<svg width="392" height="424" viewBox="0 0 392 424" fill="none" xmlns="http://www.w3.org/2000/svg">
<path opacity="0.2" d="M290.687 257.797C313.562 252.734 332.386 243.498 349.764 231.116C355.373 227.1 360.783 222.719 366.835 219.441C377.009 213.924 387.236 217.675 388.5 228.035C393.691 270.718 392.288 313.28 371.502 353.99C352.319 391.565 319.483 412.986 276.699 419.955C260.858 422.534 244.686 423.04 228.661 423.644C174.278 418.838 144.404 413.424 92.2619 397.639C62.5158 388.036 35.8346 373.798 18.634 348.817C-10.9919 305.761 -2.29453 261.535 24.9877 217.818C39.3201 194.851 61.9525 179.152 82.9368 161.973C116.98 134.117 150.329 105.359 174.399 69.1255C184.397 54.0611 192.418 37.5489 198.814 20.941C207.779 -2.31283 216.4 -5.34055 234.772 10.4877C280.297 49.6427 308.798 97.6292 308.839 157.786C308.865 184.627 302.833 211.917 296.18 237.757C292.576 250.664 291.065 256.386 290.687 257.797Z" fill="#E21A6B"/>
</svg>
