<svg width="306" height="324" viewBox="0 0 306 324" fill="none" xmlns="http://www.w3.org/2000/svg">
<path opacity="0.3" d="M226.965 190.464C244.705 184.466 259.202 175.647 272.507 164.552C276.8 160.956 280.932 157.099 285.586 154.027C293.41 148.859 301.464 150.784 302.66 158.603C307.573 190.818 307.34 223.551 291.95 256.661C277.747 287.221 252.568 306.672 219.336 315.975C207.032 319.419 194.428 321.305 181.94 323.252C139.422 324.609 116.01 323.23 75.0182 315.97C51.621 311.37 30.5207 302.936 16.5981 285.394C-7.38244 255.158 -1.49344 220.474 18.9026 184.458C29.6174 165.537 46.9536 151.414 62.9742 136.311C88.9653 111.819 114.396 86.6997 132.438 56.7139C139.932 44.2481 145.854 30.8563 150.507 17.5418C157.03 -1.10159 163.692 -4.21956 178.344 6.20275C214.647 31.9779 237.85 66.0953 239.1 112.172C239.663 132.731 235.511 154.194 230.844 174.604C228.294 184.825 227.231 189.348 226.965 190.464Z" fill="#E21A6B"/>
</svg>
