<svg width="48" height="48" viewBox="0 0 48 48" fill="none" xmlns="http://www.w3.org/2000/svg">
<path fill-rule="evenodd" clip-rule="evenodd" d="M24 7.19995C25.3255 7.19995 26.4 8.27447 26.4 9.59995V21.6H38.4C39.7255 21.6 40.8 22.6745 40.8 24C40.8 25.3254 39.7255 26.4 38.4 26.4H26.4V38.4C26.4 39.7254 25.3255 40.7999 24 40.7999C22.6745 40.7999 21.6 39.7254 21.6 38.4V26.4H9.60001C8.27453 26.4 7.20001 25.3254 7.20001 23.9999C7.20001 22.6745 8.27453 21.5999 9.60001 21.5999L21.6 21.6V9.59995C21.6 8.27447 22.6745 7.19995 24 7.19995Z" fill="white"/>
</svg>
