<svg width="163" height="81" viewBox="0 0 163 81" fill="none" xmlns="http://www.w3.org/2000/svg">
<path d="M32.8291 39.4275C32.6309 32.0527 38.8982 25.6651 46.4842 25.6563C54.0855 25.6474 60.3976 31.7869 60.3144 39.6617C60.2377 46.9783 54.161 53.5076 45.97 53.238C39.0376 53.0115 32.6296 47.0479 32.8291 39.4275ZM58.5148 39.444C58.5928 32.9273 53.2733 27.4205 46.575 27.4104C39.7372 27.4016 34.7003 32.9096 34.5392 39.1048C34.3563 46.1316 40.0339 51.375 46.268 51.4902C53.1902 51.6193 58.6453 45.9012 58.5148 39.444ZM101.831 39.8363V36.2571C101.831 35.1586 101.833 34.0613 101.823 32.9627C101.821 32.7248 101.897 32.6349 102.14 32.6375C102.964 32.6488 103.79 32.6476 104.613 32.6375C104.879 32.6349 104.972 32.7387 104.972 33.007C104.967 36.9418 104.967 40.8767 104.972 44.8115C104.972 45.0785 104.879 45.1849 104.614 45.1823C103.866 45.1747 103.118 45.1697 102.369 45.1849C102.098 45.1899 101.988 45.0241 101.871 44.8393L97.6816 38.2176C97.633 38.1379 97.5755 38.0632 97.4834 37.9303C97.4693 38.0809 97.4527 38.1606 97.4527 38.2429C97.4668 40.34 97.4808 42.4359 97.5026 44.5331C97.509 45.1785 97.5205 45.1785 96.8579 45.1785C96.1532 45.1785 95.4484 45.1697 94.7437 45.1823C94.47 45.1874 94.3549 45.1039 94.3549 44.8115C94.3613 40.8767 94.3613 36.9418 94.3549 33.007C94.3549 32.7159 94.4661 32.6299 94.7411 32.6349C95.4446 32.6476 96.1506 32.6501 96.8554 32.6349C97.1189 32.6286 97.2711 32.7286 97.4054 32.9475C98.7803 35.1548 100.163 37.3557 101.544 39.5592C101.611 39.6667 101.689 39.7655 101.762 39.8692C101.785 39.8566 101.807 39.8477 101.831 39.8363ZM76.0569 44.7773C76.0556 45.0697 76.1349 45.1887 76.438 45.1823C77.2848 45.1697 78.1302 45.1722 78.9757 45.1823C79.2506 45.1874 79.3581 45.0988 79.3542 44.8077C79.3402 43.7433 79.3542 42.6777 79.3453 41.6133C79.3415 41.3855 79.4144 41.3171 79.642 41.312C80.4095 41.2905 81.1807 41.2829 81.943 41.2007C82.9049 41.0969 83.7631 40.7147 84.4116 39.9692C85.3274 38.9187 85.6382 37.681 85.4796 36.3078C85.321 34.9346 84.6725 33.8664 83.4779 33.1753C82.667 32.7058 81.7397 32.6653 80.8328 32.6488C79.3901 32.621 77.9486 32.6412 76.5058 32.6425C76.0684 32.6425 76.0633 32.6488 76.0633 33.0728V38.877C76.0633 40.845 76.0671 42.8105 76.0569 44.7773ZM79.3568 35.7762C79.3619 35.6914 79.4732 35.5357 79.5282 35.5395C80.1933 35.5775 80.8686 35.5826 81.5171 35.7167C82.1374 35.8433 82.4201 36.3786 82.3805 37.0633C82.3434 37.6873 81.9533 38.2037 81.3598 38.2834C80.7625 38.3631 80.1549 38.3593 79.5499 38.3669C79.4847 38.3669 79.3632 38.21 79.3581 38.1201C79.3363 37.7303 79.3491 37.3392 79.3491 36.9482C79.3491 36.5584 79.3389 36.1673 79.3568 35.7762ZM126.171 36.3837C126.401 36.39 126.486 36.2875 126.466 36.0698C126.345 34.7789 125.844 33.7158 124.686 33.0298C123.089 32.0806 120.593 32.2249 119.102 33.4804C117.457 34.8675 117.296 37.624 119.178 38.9618C119.796 39.4022 120.519 39.692 121.203 40.0363C121.752 40.3109 122.324 40.5425 122.869 40.8273C123.176 40.9868 123.349 41.2665 123.297 41.6373C123.233 42.0955 122.824 42.5422 122.407 42.6118C121.84 42.7042 121.363 42.4941 121.137 41.998C121.022 41.7474 120.97 41.4639 120.906 41.1931C120.866 41.0222 120.799 40.9336 120.602 40.9362C119.713 40.945 118.824 40.9438 117.935 40.9387C117.673 40.9374 117.587 41.0741 117.612 41.3095C117.639 41.569 117.682 41.8259 117.708 42.0841C117.847 43.5079 118.856 44.7027 120.217 45.1418C121.107 45.4291 122.012 45.4203 122.918 45.376C123.681 45.347 124.419 45.0994 125.042 44.6634C126.12 43.9028 126.501 42.8068 126.555 41.5411C126.606 40.3223 126.143 39.363 125.161 38.6618C124.772 38.3873 124.365 38.1399 123.942 37.9214C123.155 37.5126 122.344 37.1519 121.563 36.7368C120.958 36.4153 120.964 35.7003 121.545 35.332C122.216 34.9055 123.009 35.2712 123.165 36.104C123.209 36.3318 123.301 36.39 123.504 36.3862C123.938 36.3774 124.371 36.3837 124.805 36.3837C125.262 36.3837 125.716 36.3736 126.171 36.3837ZM107.45 44.7875C107.45 45.0608 107.528 45.1823 107.817 45.1823C109.975 45.176 112.132 45.1773 114.291 45.1823C114.545 45.1823 114.63 45.0823 114.625 44.8305C114.612 44.1255 114.621 43.418 114.62 42.7118C114.62 42.3106 114.607 42.2942 114.195 42.2942C113.143 42.2942 112.09 42.2891 111.039 42.2992C110.796 42.3018 110.713 42.2233 110.719 41.9828C110.733 41.5145 110.736 41.0463 110.719 40.5792C110.71 40.3299 110.805 40.2654 111.039 40.2679C112.07 40.278 113.1 40.2679 114.131 40.2755C114.394 40.278 114.5 40.1869 114.493 39.9148C114.482 39.1871 114.478 38.4568 114.496 37.7291C114.502 37.4506 114.401 37.3772 114.14 37.3797C113.099 37.3924 112.058 37.3797 111.016 37.3886C110.791 37.3911 110.71 37.3241 110.719 37.0937C110.736 36.6824 110.737 36.2673 110.719 35.8547C110.709 35.5977 110.797 35.518 111.054 35.5205C112.105 35.5332 113.158 35.518 114.211 35.5319C114.511 35.5357 114.638 35.4535 114.626 35.1257C114.605 34.4422 114.62 33.7563 114.62 33.0716C114.62 32.6488 114.614 32.6412 114.176 32.6412H107.899C107.477 32.6412 107.455 32.6628 107.455 33.0804V38.8858C107.455 40.8526 107.457 42.8194 107.45 44.7875ZM72.3336 32.9944C72.3362 32.7286 72.2581 32.6299 71.9844 32.6349C71.1932 32.6486 70.4018 32.6486 69.6105 32.6349C69.3649 32.6311 69.214 32.721 69.0733 32.9209C67.6063 35.0295 66.1443 37.1393 64.6529 39.2314C64.0697 40.049 63.4673 40.8336 63.6911 41.9347C63.7295 42.1233 63.6962 42.3258 63.6962 42.5207C63.6962 42.846 63.8587 43.0093 64.1848 43.0105C65.735 43.0105 67.2852 43.0156 68.8354 43.0055C69.0861 43.0055 69.1808 43.0738 69.1692 43.3358C69.1501 43.8243 69.1782 44.3141 69.159 44.8026C69.1488 45.0899 69.2549 45.1861 69.5338 45.1823C70.3588 45.1697 71.1825 45.1697 72.0062 45.1823C72.2709 45.1861 72.34 45.0811 72.3336 44.8355C72.3208 44.3255 72.34 43.8142 72.3259 43.3041C72.3195 43.0738 72.4027 42.9928 72.6265 43.0055C72.8861 43.0219 73.1471 43.0055 73.4067 43.0105C73.6203 43.0143 73.729 42.9219 73.729 42.7004C73.7265 42.0271 73.7265 41.3538 73.729 40.6805C73.729 40.4742 73.6357 40.3856 73.431 40.3894C73.1714 40.397 72.9092 40.3755 72.6508 40.397C72.3873 40.4198 72.3221 40.3173 72.3246 40.0654C72.3374 38.8934 72.3298 37.7189 72.3298 36.547C72.3298 35.3623 72.3208 34.1777 72.3336 32.9944ZM69.3662 37.276C69.3675 38.1961 69.356 39.1175 69.3739 40.0388C69.379 40.335 69.2792 40.4071 69.0004 40.3995C68.398 40.3818 67.7943 40.3945 67.101 40.3945L69.2549 36.9672C69.2844 36.9785 69.315 36.9874 69.3445 36.9975C69.3521 37.0899 69.3662 37.1836 69.3662 37.276ZM91.1931 33.0741C91.1931 32.6488 91.1867 32.6425 90.7518 32.6425C89.9166 32.64 89.0826 32.6501 88.2462 32.6362C87.9763 32.6324 87.8931 32.7222 87.8931 32.9931C87.8995 36.938 87.8995 40.8843 87.8931 44.828C87.8931 45.0963 87.9724 45.1899 88.2449 45.1861C89.0907 45.1697 89.9367 45.1697 90.7825 45.1861C91.1189 45.1937 91.202 45.0684 91.1982 44.7482C91.1854 42.8131 91.1918 40.8779 91.1918 38.9441L91.1931 33.0741ZM74.8405 50.8055C75.3803 51.5661 75.9162 52.3281 76.4521 53.09C76.8883 53.7101 77.3346 54.3252 77.7554 54.9555C77.9435 55.2352 78.2121 55.2061 78.4461 55.1428C78.5395 55.1175 78.6162 54.8517 78.6175 54.696C78.629 53.0343 78.6226 51.3712 78.6278 49.7095C78.6278 49.4424 78.583 49.2792 78.2556 49.2817C77.9396 49.2842 77.8782 49.4234 77.8808 49.7019C77.891 50.9624 77.8859 52.2217 77.8846 53.4823C77.8846 53.5861 77.8757 53.6886 77.8667 53.8797C77.7529 53.7316 77.6877 53.6519 77.6288 53.5684L75.59 50.6701C75.315 50.2803 75.04 49.8917 74.7727 49.4943C74.5898 49.2209 74.3161 49.2665 74.0705 49.3133C73.9887 49.3285 73.8838 49.5184 73.8812 49.6297C73.8697 51.3662 73.8748 53.1051 73.871 54.8441C73.871 55.0795 73.9631 55.1732 74.1997 55.1732C74.5988 55.1732 74.6384 55.1479 74.6384 54.7302V50.565C74.7318 50.6764 74.7932 50.7372 74.8405 50.8055ZM79.9554 54.8479C79.9528 55.0757 80.0117 55.182 80.2649 55.1757C80.8597 55.1605 81.4583 55.2048 82.0505 55.163C83.1939 55.0833 84.1148 54.6049 84.487 53.4545C84.6508 52.9533 84.6776 52.3888 84.6763 51.8547C84.6725 50.6802 83.7554 49.5703 82.6043 49.3994C81.8522 49.2868 81.0771 49.3285 80.3123 49.2868C80.0424 49.2728 79.9503 49.3678 79.9541 49.6399C79.9656 50.5068 79.958 51.3763 79.9592 52.2445C79.9592 53.1127 79.9644 53.9797 79.9554 54.8479ZM80.6602 54.167C80.6602 52.8761 80.6653 51.5826 80.655 50.2917C80.655 50.0461 80.7062 49.9259 80.9774 49.9575C81.5325 50.0208 82.1157 49.9828 82.6401 50.1423C83.4408 50.3866 83.8015 51.051 83.9294 51.861C84.0969 52.928 83.7171 53.843 82.8652 54.2695C82.6136 54.3884 82.3415 54.4588 82.0633 54.4771C81.613 54.51 81.159 54.4859 80.6857 54.4859C80.6755 54.3581 80.6602 54.2607 80.6602 54.167ZM102.452 51.6725C102.683 50.9004 102.294 49.5576 101.083 49.4007C100.315 49.3019 99.5299 49.3209 98.7535 49.2943C98.5437 49.2855 98.4734 49.4171 98.4734 49.6108C98.4734 51.3826 98.4759 53.152 98.4734 54.9238C98.4734 55.2504 98.7087 55.1719 98.8891 55.1757C99.063 55.1795 99.2779 55.2327 99.2664 54.9264C99.2536 54.6125 99.2638 54.2961 99.2638 53.981C99.2638 52.7634 99.26 51.5472 99.2715 50.3309C99.2715 50.2233 99.3777 50.0271 99.4378 50.0271C99.8982 50.017 100.365 50.0056 100.819 50.0702C101.519 50.1676 101.771 50.784 101.766 51.3206C101.762 51.9851 101.318 52.4533 100.673 52.5268C100.442 52.5521 100.208 52.5647 99.9225 52.5862C99.9852 52.7381 100.012 52.852 100.072 52.9431C100.469 53.5646 100.87 54.1822 101.274 54.7986C101.547 55.2162 101.746 55.2795 102.29 55.0972L101.64 54.0923L100.968 53.0684C102.047 52.6293 102.217 52.4673 102.452 51.6725ZM113.254 49.2817C111.874 49.5943 110.776 50.8916 110.962 52.5723C111.126 54.0721 112.26 55.1643 113.76 55.2681C115.142 55.3605 116.51 54.534 116.665 53.5899C116.267 53.4317 116.014 53.476 115.749 53.7734C115.302 54.2758 114.742 54.5733 114.078 54.5986C112.382 54.6669 111.183 52.971 111.784 51.3826C112.401 49.7538 114.63 49.364 115.71 50.7118C115.996 51.0713 116.307 51.0017 116.684 50.9612C116.328 49.917 114.99 48.8893 113.254 49.2817ZM68.3814 53.4C68.389 53.6329 68.4363 53.8772 68.5272 54.0898C68.884 54.9251 69.7602 55.4073 70.6299 55.2757C71.5802 55.1327 72.2351 54.4619 72.3285 53.5013C72.3617 53.1583 72.3285 52.809 72.3285 52.4635C72.3285 51.518 72.3323 50.5739 72.3221 49.6285C72.3221 49.5184 72.2658 49.345 72.1878 49.3108C71.8233 49.1501 71.5815 49.3247 71.5802 49.7247C71.5802 50.8106 71.5841 51.8977 71.5764 52.9836C71.5757 53.2223 71.55 53.4603 71.4997 53.6937C71.4666 53.8548 71.3982 54.0069 71.2994 54.1391C71.2006 54.2713 71.0737 54.3806 70.9276 54.4591C70.7816 54.5376 70.6199 54.5835 70.454 54.5937C70.2882 54.6038 70.122 54.5778 69.9674 54.5176C69.4135 54.31 69.1309 53.8 69.1449 53.1444C69.1705 51.9724 69.1603 50.7992 69.1756 49.6259C69.1795 49.2766 68.9544 49.2969 68.7152 49.2855C68.4619 49.2728 68.366 49.3614 68.3698 49.6196C68.3826 50.2727 68.375 50.9232 68.375 51.575C68.375 52.1825 68.3622 52.7925 68.3814 53.4ZM125.363 55.2352C126.117 54.9568 126.58 54.286 126.578 53.5203C126.578 52.7925 126.181 52.3053 125.354 51.9838C124.939 51.8305 124.532 51.656 124.135 51.4611C124 51.3957 123.891 51.2887 123.823 51.1562C123.755 51.0238 123.733 50.8731 123.76 50.727C123.798 50.5298 123.896 50.3487 124.041 50.2078C124.185 50.067 124.37 49.973 124.57 49.9386C125.043 49.8816 125.407 50.0752 125.61 50.4904C125.745 50.7663 126.01 50.8865 126.281 50.765C126.35 50.7334 126.437 50.5853 126.415 50.5271C126.327 50.2739 126.236 50.0094 126.081 49.7993C125.685 49.2627 125.103 49.1627 124.483 49.2159C123.783 49.2741 123.17 49.7981 123.05 50.4309C122.885 51.2877 123.132 51.8332 123.892 52.1926C124.3 52.3837 124.741 52.5052 125.158 52.6774C125.741 52.9204 125.966 53.419 125.746 53.9354C125.639 54.197 125.432 54.4062 125.17 54.5173C124.908 54.6285 124.612 54.6327 124.347 54.529C123.962 54.372 123.752 54.0759 123.651 53.6886C123.613 53.5431 123.569 53.438 123.378 53.4367C122.949 53.4317 122.82 53.5937 122.956 54.0227C123.164 54.6897 123.787 55.3757 124.73 55.3428C124.942 55.3086 125.166 55.3086 125.363 55.2352ZM90.7326 49.2108C89.9115 49.2285 89.3052 49.7474 89.121 50.5903C88.9765 51.2561 89.3269 51.8889 90.0675 52.2205C90.4794 52.4065 90.9245 52.5154 91.3376 52.7001C91.8505 52.928 92.059 53.4127 91.8825 53.8671C91.6906 54.3581 91.2621 54.6479 90.7825 54.6125C90.3195 54.5783 89.9 54.2088 89.7759 53.7253C89.7068 53.4595 89.4651 53.3519 89.1172 53.4532C88.8383 53.5342 88.9599 53.7481 89.0021 53.9101C89.1862 54.6252 89.648 55.0656 90.3578 55.2567C91.2967 55.5086 92.3736 54.9808 92.5808 54.0544C92.7765 53.1823 92.7087 52.4787 91.4681 51.9876C91.0588 51.8256 90.6418 51.6712 90.253 51.4662C90.1017 51.385 89.9853 51.2522 89.9255 51.0925C89.8658 50.9328 89.8667 50.757 89.9281 50.5979C90.1302 50.0638 90.7633 49.7968 91.2583 50.079C91.4527 50.1891 91.6023 50.3916 91.7405 50.5777C91.8773 50.7612 92.2009 50.8852 92.4158 50.7726C92.6563 50.646 92.522 50.4309 92.4708 50.2828C92.2534 49.6702 91.7124 49.1779 90.8643 49.2133L90.7326 49.2108ZM93.8343 54.8011C93.8304 55.0846 93.9315 55.1808 94.2142 55.1744C95.0711 55.1605 95.9281 55.1618 96.7825 55.1732C97.0357 55.1757 97.1624 55.1099 97.1624 54.8277C97.1624 54.5467 97.0383 54.4771 96.7838 54.4809C96.134 54.491 95.4842 54.4809 94.8332 54.4859C94.6644 54.4859 94.571 54.4518 94.5748 54.2531C94.5851 53.7645 94.5851 53.276 94.5748 52.7875C94.571 52.5862 94.6682 52.5559 94.8358 52.5571C95.4753 52.5635 96.1148 52.5483 96.7543 52.5635C97.0319 52.5711 97.1125 52.4622 97.1125 52.2015C97.1112 51.9446 97.0038 51.8648 96.7569 51.8699C96.1174 51.8826 95.4779 51.8699 94.8383 51.8775C94.6414 51.88 94.5697 51.818 94.5748 51.6168C94.5876 51.1725 94.5953 50.7258 94.5723 50.2815C94.5595 50.0158 94.6529 49.9487 94.9048 49.9537C95.5546 49.9689 96.2043 49.9563 96.8554 49.9601C97.0447 49.9601 97.1572 49.9183 97.1624 49.6905C97.1713 49.3969 97.0639 49.2804 96.7646 49.2855C95.9204 49.2969 95.0737 49.2981 94.2295 49.283C93.9238 49.2779 93.8304 49.3956 93.8343 49.6854C93.8445 50.5321 93.8381 51.3801 93.8381 52.2268C93.8381 53.0849 93.8458 53.9443 93.8343 54.8011ZM119.278 52.5609C119.94 52.5609 120.601 52.5521 121.262 52.5635C121.513 52.5685 121.582 52.4559 121.582 52.2319C121.582 52.0015 121.533 51.8547 121.257 51.8712C120.988 51.8889 120.716 51.875 120.445 51.875H119.061C119.061 51.2966 119.069 50.7663 119.056 50.2372C119.051 50.0246 119.12 49.9525 119.335 49.9563C119.974 49.9689 120.614 49.9588 121.253 49.9613C121.458 49.9613 121.643 49.9765 121.639 49.6702C121.634 49.3893 121.529 49.2842 121.251 49.2868C120.394 49.2965 119.538 49.2965 118.682 49.2868C118.42 49.283 118.309 49.3728 118.311 49.6411C118.315 51.3687 118.316 53.0963 118.311 54.8226C118.311 55.0922 118.412 55.1782 118.677 55.1744C119.533 55.1636 120.389 55.1632 121.245 55.1732C121.486 55.1757 121.634 55.1339 121.639 54.8403C121.643 54.5391 121.504 54.4758 121.239 54.4809C120.6 54.4923 119.96 54.491 119.322 54.4771C119.235 54.4746 119.077 54.3784 119.076 54.3227C119.058 53.7493 119.063 53.1773 119.063 52.5799C119.175 52.5698 119.226 52.5635 119.278 52.5609ZM105.654 53.9974C105.435 53.4367 105.214 52.8761 104.998 52.3141C104.64 51.3864 104.29 50.4562 103.931 49.5297C103.847 49.3095 103.473 49.1842 103.23 49.307C102.996 49.426 103.148 49.6057 103.206 49.7538C103.871 51.4459 104.548 53.1343 105.201 54.8289C105.295 55.0694 105.402 55.1757 105.665 55.177C105.925 55.177 106.075 55.1137 106.177 54.8479C106.58 53.7861 107.01 52.7343 107.429 51.6788C107.693 51.0156 107.963 50.3537 108.215 49.6867C108.255 49.5804 108.264 49.4007 108.202 49.3323C108.051 49.164 107.544 49.3159 107.456 49.5373C107.312 49.8993 107.179 50.2651 107.038 50.6283L105.733 53.9848L105.654 53.9974ZM64.9062 50.2436C64.8972 50.0031 64.9957 49.9525 65.2119 49.9575C65.7529 49.9702 66.2952 49.9613 66.8363 49.9613C67.0332 49.9613 67.2302 49.9892 67.2264 49.6778C67.2238 49.4019 67.1305 49.283 66.8465 49.2868C66.0663 49.2981 65.2861 49.2981 64.5059 49.2868C64.25 49.283 64.1605 49.3905 64.1605 49.6361C64.1644 51.3725 64.1669 53.1102 64.158 54.8466C64.158 55.1744 64.346 55.1631 64.5813 55.177C64.8474 55.1909 64.919 55.0871 64.9139 54.8378C64.9011 54.1873 64.919 53.5342 64.9049 52.8837C64.8998 52.647 64.9599 52.5559 65.2119 52.5647C65.7529 52.5824 66.2952 52.5584 66.8363 52.5736C67.0895 52.5799 67.1816 52.4938 67.1765 52.2369C67.1688 51.9825 67.0998 51.8623 66.8184 51.8699C66.2044 51.8876 65.5866 51.875 64.9088 51.875C64.9088 51.3016 64.9228 50.7726 64.9062 50.2436ZM108.591 54.8251C108.587 55.0934 108.672 55.1846 108.944 55.1795C109.199 55.1732 109.35 55.1352 109.349 54.8277C109.34 53.1001 109.341 51.3725 109.349 49.6462C109.349 49.3488 109.211 49.288 108.946 49.283C108.671 49.2779 108.588 49.3779 108.593 49.6437C108.605 50.5018 108.596 51.3598 108.596 52.2179C108.596 53.0874 108.605 53.9556 108.591 54.8251Z" fill="#C5C5C5"/>
<path d="M53.1619 41.3111L49.0997 36.0359L49.0127 36.0676C49.0051 36.2017 48.991 36.3359 48.991 36.4713V46.0217C48.991 46.3609 48.8158 46.5318 48.4666 46.5318C48.1647 46.5318 47.859 46.5153 47.5585 46.5356C47.2643 46.5546 47.1594 46.4305 47.1939 46.1546V33.4414C47.1939 32.8592 47.4331 32.5226 47.9358 32.4137C48.3451 32.3251 48.6392 32.5137 48.8823 32.8314C49.8901 34.1502 50.9031 35.4626 51.9136 36.7789C53.1466 38.3862 54.3821 39.9961 55.6139 41.606C55.8159 41.8717 55.9502 42.159 55.8275 42.5096C55.6778 42.9387 55.3491 43.1272 54.9321 43.1323C53.4356 43.1475 51.9392 43.1361 50.4427 43.1437C50.2086 43.1437 50.1408 43.045 50.1447 42.8298C50.1536 42.4387 50.1562 42.0477 50.1447 41.6579C50.1383 41.4212 50.2253 41.3313 50.4683 41.3351C51.237 41.3478 52.0082 41.3402 52.7769 41.3377C52.8716 41.3377 52.965 41.325 53.1619 41.3111ZM43.8083 36.1979C43.8211 36.3194 43.8428 36.4409 43.8428 36.5624C43.8454 37.6927 43.8505 38.8216 43.8403 39.9531C43.8377 40.2214 43.9324 40.3226 44.201 40.3125C44.5796 40.2986 44.9594 40.2998 45.3393 40.3125C45.5504 40.3188 45.622 40.2366 45.6207 40.0252C45.6156 37.7661 45.6207 35.5057 45.6156 33.2465C45.6156 32.8491 45.3598 32.5466 44.985 32.439C44.5131 32.3036 44.1958 32.5276 43.9311 32.882L41.1556 36.6131C39.9111 38.2812 38.664 39.9493 37.4208 41.6186C37.1893 41.9325 37.0882 42.2767 37.298 42.6488C37.3803 42.8023 37.5048 42.9295 37.6571 43.0157C37.8095 43.1019 37.9834 43.1437 38.1588 43.1361C40.6849 43.1399 43.211 43.1361 45.7371 43.1424C45.9673 43.1424 46.0428 43.0513 46.039 42.8324C46.0313 42.4641 46.0249 42.0932 46.0415 41.7249C46.0543 41.4364 45.9648 41.3288 45.6565 41.3326C43.8902 41.3452 42.1212 41.3389 40.3549 41.3377C40.2206 41.3377 40.0863 41.325 39.8714 41.3149L43.7213 36.1726L43.8109 36.1992L43.8083 36.1979ZM45.6181 45.418C45.6181 45.1371 45.6118 44.8548 45.6207 44.5726C45.6271 44.3853 45.5657 44.2929 45.3623 44.2967C44.9518 44.3043 44.5399 44.3017 44.1306 44.2979C43.9477 44.2967 43.8441 44.3612 43.8454 44.5612C43.8492 45.1244 43.8454 45.6876 43.8454 46.2521C43.8454 46.4356 43.9273 46.533 44.1217 46.5305C44.5438 46.5254 44.9658 46.5406 45.3866 46.5179C45.4672 46.5141 45.6002 46.3799 45.6079 46.2951C45.6348 46.0053 45.6181 45.7104 45.6181 45.418Z" fill="#C5C5C5"/>
</svg>
