<svg width="166" height="81" viewBox="0 0 166 81" fill="none" xmlns="http://www.w3.org/2000/svg">
<path fill-rule="evenodd" clip-rule="evenodd" d="M108.515 39.0533C107.69 39.0533 106.978 38.8761 106.379 38.5217C105.783 38.166 105.303 37.6474 104.998 37.0283C104.677 36.3904 104.516 35.6488 104.516 34.8008C104.516 33.9541 104.677 33.2112 104.998 32.5733C105.304 31.9547 105.783 31.4365 106.379 31.0811C106.978 30.7267 107.69 30.5496 108.515 30.5496C109.342 30.5496 110.051 30.7267 110.647 31.0811C111.247 31.4368 111.708 31.9342 112.029 32.5733C112.354 33.2112 112.515 33.9541 112.515 34.8008C112.515 35.6488 112.354 36.3904 112.029 37.0283C111.708 37.6687 111.247 38.1648 110.647 38.5217C110.051 38.8761 109.34 39.0533 108.515 39.0533ZM108.515 37.6016C109.04 37.6092 109.475 37.4978 109.822 37.2675C110.178 37.0275 110.45 36.6851 110.603 36.2866C110.778 35.8639 110.865 35.3678 110.865 34.8008C110.865 34.2338 110.778 33.7427 110.601 33.3263C110.447 32.9323 110.175 32.5941 109.821 32.3569C109.476 32.1265 109.04 32.0076 108.517 32C107.992 31.9924 107.557 32.1037 107.209 32.3354C106.861 32.5657 106.601 32.8922 106.424 33.315C106.253 33.7389 106.167 34.2338 106.167 34.8008C106.167 35.3678 106.253 35.8601 106.424 36.2752C106.601 36.6916 106.861 37.0144 107.209 37.2447C107.557 37.4751 107.991 37.594 108.515 37.6016ZM116.063 30.7192L118.48 38.8824H120.016L121.615 33.3719L123.214 38.8837H124.749L127.168 30.7192H125.53L123.983 36.3322L122.435 30.7192L120.798 30.7305L119.25 36.3322L117.703 30.7192H116.063ZM131.525 38.8824V30.7192H136.913V32.1594H133.084V33.906H136.224V35.345H133.084V37.4434H136.913V38.8837L131.525 38.8824ZM141.723 38.8824V30.7192H145.207C145.288 30.7192 145.395 30.723 145.528 30.7305C145.666 30.7343 145.788 30.7457 145.895 30.7647C146.388 30.8407 146.791 31.0001 147.104 31.2457C147.421 31.4912 147.654 31.8025 147.804 32.1759C147.952 32.5467 148.026 32.9606 148.026 33.4175C148.026 34.1009 147.855 34.6882 147.511 35.1754C147.298 35.4741 147.012 35.7019 146.651 35.8589L148.141 38.8837H146.376L145.022 36.117H143.282V38.8837L141.723 38.8824ZM143.282 34.6768H145.138C145.219 34.6768 145.307 34.673 145.402 34.6641C145.497 34.6578 145.586 34.6426 145.666 34.6198C145.854 34.5765 146.023 34.4776 146.152 34.3363C146.264 34.2065 146.344 34.0533 146.388 33.8883C146.432 33.7351 146.455 33.5768 146.457 33.4175C146.457 33.2707 146.434 33.115 146.388 32.953C146.346 32.7873 146.265 32.6338 146.152 32.505C146.025 32.3604 145.855 32.259 145.666 32.2151C145.58 32.1918 145.491 32.177 145.402 32.1708C145.314 32.1632 145.226 32.159 145.138 32.1582H143.282V34.6768ZM96.4564 32.1582V38.8837H98.0143V32.1594H100.616V30.7192H93.8536V32.1594H96.4552L96.4564 32.1582ZM86.1602 38.8837V30.7192H87.718V37.4434H91.2712V38.8837H86.1602ZM76.5213 30.7192V38.8824H81.6323V37.4434H78.0804V30.7192H76.5213ZM66.2097 38.8824V30.7192H71.5944V32.1594H67.7688V33.906H70.9089V35.345H67.7688V37.4434H71.597V38.8837H66.2084L66.2097 38.8824ZM55.4747 30.7192V38.8824H59.1302C59.6917 38.8824 60.1572 38.7799 60.5282 38.5724C60.8991 38.3597 61.1741 38.0686 61.3531 37.6991C61.536 37.3282 61.6281 36.8992 61.6281 36.4119C61.6281 35.9576 61.4977 35.5475 61.238 35.1805C61.0491 34.9119 60.7831 34.7056 60.4744 34.5882C60.6561 34.4781 60.8095 34.3325 60.9349 34.149C61.1447 33.8465 61.2495 33.4668 61.2495 33.0099C61.2495 32.6505 61.1664 32.2949 60.9976 31.943C60.8219 31.5829 60.5459 31.2799 60.202 31.0697C59.8388 30.8356 59.3629 30.7192 58.7746 30.7192H55.4747ZM58.969 37.432H57.0556V35.345H58.969C59.2095 35.345 59.4103 35.3906 59.5702 35.4817C59.7271 35.5604 59.8557 35.685 59.9385 35.8386C60.0178 35.9905 60.0587 36.1626 60.0587 36.355C60.0635 36.5549 60.014 36.7524 59.9155 36.927C59.8252 37.0847 59.6923 37.2144 59.5318 37.3017C59.3581 37.3909 59.1647 37.4358 58.969 37.432ZM58.7516 33.9047H57.0556V32.1582H58.7516C59.0496 32.1582 59.276 32.2442 59.4333 32.4138C59.5908 32.5856 59.6752 32.811 59.6686 33.0428C59.6759 33.2153 59.6343 33.3862 59.5484 33.5364C59.4702 33.6598 59.356 33.7569 59.221 33.8149C59.0726 33.8771 58.9127 33.9078 58.7516 33.9047ZM96.6879 49.9655C97.096 50.2035 97.582 50.3212 98.146 50.3212C98.5119 50.3212 98.8751 50.2807 99.2358 50.1971C99.6016 50.1085 99.9431 49.9567 100.262 49.7415V47.2925H98.0744V48.2367H99.191V49.1188C99.0337 49.2201 98.8662 49.2909 98.6858 49.3327C98.5067 49.3745 98.3264 49.396 98.146 49.396C97.683 49.396 97.3083 49.2289 97.0205 48.8961C96.7327 48.5632 96.5882 48.0582 96.5882 47.3811C96.5882 46.9305 96.6598 46.5711 96.8043 46.3028C96.9311 46.0535 97.132 45.8486 97.3799 45.7155C97.6204 45.5903 97.8787 45.5282 98.155 45.5282C98.5827 45.5183 98.9992 45.6642 99.3253 45.9383C99.3711 45.9928 99.4106 46.0523 99.443 46.1155C99.4607 46.158 99.4694 46.2037 99.4686 46.2496L99.5415 46.3129L99.5952 46.2496L100.244 45.5548C100.025 45.2343 99.7148 44.9861 99.3522 44.8423C98.9685 44.6701 98.5592 44.5841 98.1281 44.5841C97.9299 44.5841 97.7112 44.6094 97.4707 44.6638C97.2194 44.7153 96.9769 44.8022 96.7506 44.922C96.4999 45.055 96.2744 45.2302 96.0842 45.4396C95.886 45.6523 95.7261 45.9294 95.6059 46.2674C95.4869 46.6002 95.4268 47.0014 95.4268 47.4697C95.4268 48.0405 95.5342 48.5392 95.7504 48.9669C95.973 49.3947 96.2863 49.7276 96.6879 49.9655ZM112.222 49.5732C112.661 50.0782 113.284 50.33 114.094 50.33C114.9 50.33 115.517 50.0782 115.949 49.5732C116.388 49.0682 116.606 48.362 116.606 47.4533C116.606 46.561 116.389 45.8636 115.949 45.3586C115.517 44.8473 114.9 44.5929 114.094 44.5929C113.285 44.5929 112.661 44.8473 112.222 45.3586C111.79 45.8636 111.573 46.561 111.573 47.452C111.573 48.362 111.79 49.0682 112.222 49.5732ZM115.086 48.915C114.852 49.234 114.52 49.396 114.094 49.396C113.657 49.396 113.321 49.234 113.087 48.915C112.852 48.5936 112.735 48.1025 112.735 47.4431C112.735 46.8255 112.852 46.3509 113.087 46.018C113.321 45.6852 113.657 45.5194 114.094 45.5194C114.52 45.5194 114.852 45.6852 115.086 46.018C115.325 46.3509 115.445 46.8255 115.445 47.4444C115.445 48.1025 115.325 48.5948 115.086 48.915ZM122.177 50.3401C121.439 50.3401 120.868 50.1528 120.467 49.7782C120.07 49.4036 119.872 48.8809 119.872 48.2101V44.6727H121.115V44.7613C121.086 44.7952 121.064 44.8349 121.051 44.8777C121.046 44.9195 121.042 44.9916 121.042 45.0916V48.219C121.042 48.5873 121.129 48.8783 121.303 49.0922C121.483 49.3061 121.778 49.4124 122.186 49.4124C122.613 49.4124 122.912 49.3061 123.086 49.0922C123.266 48.872 123.357 48.5733 123.357 48.1924V44.6739H124.508V48.1835C124.508 48.6771 124.41 49.0821 124.212 49.4036C124.015 49.72 123.738 49.9541 123.384 50.1085C123.003 50.2696 122.591 50.3485 122.177 50.3401ZM128.09 50.2237V44.6727H130.457C130.956 44.6727 131.367 44.7473 131.691 44.8954C132.021 45.0435 132.264 45.2435 132.421 45.4928C132.583 45.7421 132.664 46.018 132.664 46.3205C132.664 46.7901 132.474 47.1799 132.097 47.4887C131.718 47.7975 131.19 47.9519 130.512 47.9519H129.278V50.2237H128.09ZM129.278 47.0078H130.421C130.758 47.0078 131.016 46.9445 131.196 46.8204C131.281 46.7669 131.35 46.6929 131.397 46.6053C131.445 46.5178 131.468 46.4197 131.466 46.3205C131.468 46.2217 131.443 46.1243 131.394 46.0382C131.345 45.9522 131.274 45.8805 131.188 45.8307C131.007 45.7067 130.758 45.6434 130.439 45.6434H129.278V47.0078ZM103.752 50.2237V44.6727H106.039C106.783 44.6727 107.339 44.8245 107.706 45.1283C108.077 45.4295 108.263 45.8282 108.263 46.3205C108.263 46.666 108.143 46.9812 107.903 47.2659C107.669 47.5507 107.356 47.7469 106.966 47.8532L108.444 50.2237H107.182L105.787 47.9696H104.94V50.2237H103.752ZM104.942 47.0255H106.102C106.427 47.0255 106.667 46.966 106.823 46.847C106.901 46.7893 106.964 46.7139 107.006 46.6271C107.048 46.5403 107.069 46.4447 107.066 46.3484C107.067 46.2522 107.045 46.1573 107.003 46.0706C106.961 45.984 106.899 45.908 106.823 45.8484C106.667 45.7118 106.42 45.6447 106.084 45.6447H104.94V47.0242L104.942 47.0255ZM79.4132 50.2237V44.6727H81.1604C81.7487 44.6727 82.2054 44.741 82.5289 44.8777C82.8589 45.0144 83.1352 45.2042 83.3578 45.4472C83.5854 45.6978 83.7658 45.994 83.8975 46.3395C84.0293 46.6774 84.0958 47.0609 84.0958 47.4887C84.083 48.0532 83.9692 48.5392 83.753 48.9492C83.5379 49.3638 83.1896 49.6959 82.763 49.8934C82.3192 50.1136 81.7398 50.2237 81.0248 50.2237H79.4132ZM80.5656 49.315H80.9979C81.4789 49.315 81.86 49.2378 82.1414 49.0834C82.4305 48.929 82.6364 48.7176 82.763 48.4506C82.8896 48.1772 82.9523 47.8595 82.9523 47.4975C82.9523 47.1179 82.8922 46.785 82.772 46.499C82.6569 46.2079 82.465 45.9851 82.1964 45.8307C81.9316 45.6713 81.5709 45.5903 81.1156 45.5903H80.5656V49.315ZM72.4834 44.6727H71.2683V50.2237H72.3299V46.4104L74.7792 50.2237H75.869V45.0916C75.869 44.9903 75.8715 44.9195 75.8779 44.8777C75.8907 44.8349 75.9125 44.7952 75.9419 44.7613V44.6727H74.7971L74.8521 48.2633L72.4834 44.6727ZM65.4729 50.3401C64.7336 50.3401 64.1645 50.1528 63.7616 49.7782C63.3651 49.4036 63.1668 48.8809 63.1668 48.2101V44.6727H64.41V44.7613C64.3807 44.7952 64.3589 44.8349 64.3461 44.8777C64.341 44.9195 64.3384 44.9916 64.3384 45.0916V48.219C64.3384 48.5873 64.4254 48.8783 64.5993 49.0922C64.7784 49.3061 65.0726 49.4124 65.4819 49.4124C65.9078 49.4124 66.2084 49.3061 66.3823 49.0922C66.5614 48.872 66.6509 48.5733 66.6509 48.1924V44.6739H67.8046V48.1835C67.8046 48.6771 67.7049 49.0821 67.5079 49.4036C67.3096 49.72 67.0334 49.9541 66.6791 50.1085C66.2981 50.2694 65.887 50.3483 65.4729 50.3401ZM55.3557 44.6727V50.2237H56.4084V47.6925H59.0112V46.7761H56.4084V45.5903H59.606V44.6727H55.3557Z" fill="#C5C5C5"/>
<path d="M39.5735 35.5506C39.5889 35.5898 39.6247 35.5873 39.6566 35.5835C39.7526 35.5709 39.837 35.6177 39.9176 35.6582C40.0838 35.6392 40.2258 35.7531 40.3895 35.7506C40.5469 35.8493 40.7438 35.843 40.9127 35.905C41.0713 35.8809 41.1953 36.01 41.3514 35.9936C41.4601 35.991 41.5599 36.0543 41.6622 36.0721C41.8899 36.0518 42.0907 36.1898 42.3183 36.1505C42.3759 36.1442 42.4155 36.0961 42.4373 36.0493C42.6777 35.6266 42.9425 35.1646 43.4324 34.9988C43.503 34.9824 43.5763 34.9807 43.6476 34.9938C43.719 35.0068 43.7868 35.0344 43.8468 35.0747C43.8621 35.0899 43.8967 35.0887 43.921 35.0963C44.0297 35.1165 44.0745 35.2038 44.1921 35.1785C44.2574 35.1785 44.32 35.1773 44.3738 35.2317C44.4633 35.2823 44.5912 35.2507 44.6935 35.257C44.7831 35.238 44.8125 35.3405 44.8943 35.3443H45.3893C45.3202 35.2545 45.264 35.2532 45.1706 35.2583C44.8611 35.2608 44.5643 35.1595 44.2689 35.0963C44.0502 35.0406 43.8493 34.9406 43.6383 34.8571C43.5782 34.8343 43.5744 34.7925 43.5756 34.7431C43.591 34.7723 43.6217 34.7647 43.6473 34.771C43.733 34.7849 43.7739 34.876 43.8647 34.8558C43.9491 34.8406 43.9773 34.9418 44.0655 34.9292C44.2049 34.9089 44.2983 35.0406 44.4364 35.0178C44.5503 34.9899 44.6155 35.0963 44.7268 35.095C44.8803 35.1165 45.0529 35.0545 45.1923 35.1355C45.2473 35.1785 45.3126 35.181 45.3791 35.1798H45.7078C45.7513 35.3165 45.5748 35.2924 45.4904 35.3291C45.5492 35.3582 45.6477 35.3203 45.6848 35.3722C45.727 35.4734 45.7116 35.5051 45.608 35.5038C45.5185 35.5038 45.4238 35.524 45.3356 35.4759C45.2269 35.4532 45.1118 35.4835 45.0018 35.4304C44.9109 35.3956 44.8139 35.3797 44.7165 35.3836C44.5272 35.4114 44.3802 35.2443 44.2049 35.2671C44.141 35.3177 44.2446 35.3899 44.2855 35.4139C44.4518 35.4848 44.5081 35.6519 44.6244 35.7696C44.8815 35.9594 45.0849 36.4353 45.4635 36.291C45.5314 36.2656 45.6067 36.2674 45.6733 36.2961C45.617 36.4479 45.4558 36.3669 45.3433 36.41C45.3049 36.4707 45.374 36.4986 45.3689 36.5441C45.4648 36.5935 45.7884 36.5024 45.7027 36.6884C45.5428 36.7732 45.6311 36.8314 45.7321 36.9124C45.7999 36.982 45.796 37.0073 45.7129 37.082C45.6067 37.0858 45.4968 36.9795 45.443 36.8795C45.1578 36.5555 44.8521 36.2594 44.5733 35.9303C44.5179 35.8496 44.4438 35.7832 44.3571 35.7367C44.2152 35.6316 44.0924 35.4835 43.9453 35.3823C43.7074 35.2038 43.3659 35.1241 43.1395 35.3722C43.1318 35.8898 43.2252 36.4201 43.4349 36.9036C43.5833 37.2769 43.9402 37.5111 44.1256 37.8629C44.2177 37.9464 44.3482 38.2439 44.1231 38.2261C43.8033 38.1502 43.5526 37.9566 43.339 37.711C43.1523 37.5617 42.9208 37.7844 42.8197 37.973C42.6969 38.2008 42.6407 38.4666 42.6074 38.7197C42.624 38.9843 42.3554 39.0513 42.184 39.1754C41.2081 39.6917 40.2271 40.2005 39.2205 40.6587C39.0836 40.7055 38.9481 40.7599 38.8163 40.8194C38.6923 40.8726 38.5516 40.8688 38.4339 40.946C38.3827 40.9688 38.2919 40.9498 38.2369 40.9181C38.1448 41.1713 38.3137 41.3548 38.2906 41.6003C38.2804 41.7307 38.32 41.8534 38.3546 41.9762C38.3866 42.1382 38.3584 42.3103 38.4173 42.4685C38.4582 42.7406 38.4454 42.9545 38.5541 43.2279L38.6628 43.0735C38.8777 43.1646 39.0465 43.2608 39.255 43.3481C39.4584 43.3899 39.8562 43.5873 40.0135 43.4177C39.993 43.1785 40.2847 43.0811 40.4804 43.0722C40.5763 43.0887 40.6556 43.0292 40.7528 43.0343C41.1685 42.9457 41.6059 43.0026 42.0369 42.9874C42.8466 42.8558 43.701 43.0621 44.5042 42.8862C44.4569 42.8039 44.3584 42.8102 44.2855 42.7609C44.1346 42.7077 44.0259 42.5153 44.2318 42.4521C44.2983 42.4318 44.297 42.3609 44.3008 42.3002C44.3635 42.1306 44.5797 42.2698 44.7037 42.2901C44.7485 42.2217 44.6526 42.1002 44.6193 42.023C44.5554 41.9041 44.4595 41.761 44.5183 41.6168C44.6014 41.6041 44.6718 41.6231 44.7076 41.7016C44.7344 41.7572 44.7805 41.7522 44.8278 41.7534C44.7984 41.7864 44.7818 41.88 44.8611 41.8522C44.8444 41.8003 44.8278 41.7484 44.7843 41.7142C44.6731 41.532 44.5874 41.3371 44.4953 41.1447C44.4543 41.0029 44.32 40.7447 44.5093 40.6726C44.5469 40.6664 44.5856 40.671 44.6205 40.6861C44.6555 40.7011 44.6853 40.7259 44.7063 40.7574C44.7805 40.8333 44.8176 40.9852 44.9186 41.0232C44.9685 40.9941 44.9506 40.9093 44.9532 40.8612C44.9698 40.6523 44.9161 40.4347 44.9851 40.2334C45.0261 40.0259 44.9468 39.793 45.0235 39.5918C45.0389 39.5664 45.0337 39.5285 45.035 39.4956C45.0273 39.3475 45.2333 39.1412 45.3471 39.3057C45.5262 39.7803 45.3957 40.3119 45.4648 40.803C45.5313 40.803 45.5198 40.7397 45.5492 40.7131C45.7845 40.4486 45.805 40.6979 45.773 40.9346C45.7602 41.027 45.7052 41.1143 45.672 41.2029C45.6195 41.3016 45.6924 41.3371 45.7781 41.3927C45.7781 41.475 45.7807 41.5611 45.7769 41.6459C45.7769 44.9491 45.7794 48.3258 45.7781 51.6544C45.8152 51.8734 45.6016 51.9632 45.5147 52.1316C45.5031 52.1645 45.4648 52.1873 45.4379 52.2151C45.3561 52.2999 45.2691 52.3796 45.2026 52.4809C45.0759 52.6543 44.87 52.7656 44.7639 52.958C44.7549 52.977 44.7383 52.9985 44.7204 53.0049C44.6283 53.0352 44.6104 53.1466 44.5183 53.1795C44.437 53.2922 44.3371 53.3906 44.2228 53.4706C44.0374 53.5921 43.9286 53.8073 43.7278 53.9136C43.1484 54.4274 42.5255 54.9261 41.8719 55.3602C41.744 55.3982 41.4345 55.7943 41.3757 55.55C41.3616 55.4277 41.3162 55.311 41.2439 55.2108C41.125 55.0881 41.3348 55.0033 41.2772 54.8868C41.2439 54.8362 41.2068 54.7869 41.1352 54.7906C41.0866 54.7932 41.0393 54.7881 40.9932 54.816C40.8014 54.8957 40.7106 54.6805 40.5123 54.8919C40.4381 55.002 40.2488 54.9678 40.2668 54.8198C40.2677 54.6389 40.2379 54.4592 40.1785 54.2882C40.1695 54.2692 40.1657 54.2414 40.1529 54.2325C40.0237 54.1351 39.9099 54.0186 39.7628 53.9465C39.6327 53.8257 39.4928 53.7156 39.3446 53.6174C39.2013 53.5301 39.0977 53.3959 38.9519 53.3099C38.9007 53.2719 38.8688 53.2086 38.7997 53.1909C38.7229 53.1365 38.6603 53.0567 38.572 53.0137C38.4121 52.9226 38.2996 52.7694 38.1423 52.672C37.976 52.6011 37.5411 52.0708 37.6473 52.5707C37.7074 52.71 37.6409 52.858 37.7074 52.9973C37.733 53.1669 37.6959 53.3605 37.7202 53.5301C37.7829 53.6415 37.7394 53.7655 37.7585 53.8807C37.8199 54.0199 37.788 54.168 37.7956 54.311C37.7765 54.4439 37.8404 54.5603 37.8391 54.6932C37.8391 54.7464 37.8379 54.7995 37.866 54.8501C37.9005 54.9932 37.8711 55.1539 37.8813 55.302C37.8813 55.3716 37.8711 55.4412 37.9095 55.5083C37.9351 55.5981 37.8967 55.7032 37.9478 55.793C37.9926 56.0044 37.9056 56.2423 37.9952 56.4486C38.0348 56.5575 37.9709 56.703 38.0348 56.8144C38.0451 56.8308 38.0425 56.8561 38.0425 56.8777C38.0182 57.0042 38.1103 57.4219 37.9683 57.4118C37.9184 57.3839 37.8788 57.3485 37.8813 57.2852C37.898 57.1219 37.8622 56.9814 37.8391 56.822C37.8263 56.6663 37.8685 56.5056 37.8097 56.3575C37.7918 56.3221 37.7982 56.2727 37.7969 56.2309C37.8161 56.0854 37.7534 55.9601 37.7547 55.8158C37.747 55.688 37.779 55.5564 37.7176 55.4323C37.7023 55.302 37.7266 55.1665 37.6844 55.0324C37.646 54.8843 37.7074 54.7185 37.6486 54.5692C37.6051 54.4375 37.6741 54.2844 37.5999 54.1578C37.5833 54.1338 37.5884 54.0946 37.5884 54.0629C37.5883 53.773 37.5652 53.4836 37.5194 53.1972C37.4823 53.039 37.5603 52.8568 37.4669 52.7074C37.4887 52.5391 37.4286 52.3784 37.4234 52.2113C37.4618 51.8367 37.8455 52.2493 37.9901 52.3556C38.1346 52.491 38.3047 52.5961 38.4671 52.71C38.7242 52.9504 39.0235 53.1491 39.3036 53.3656C39.3983 53.4352 39.4763 53.5263 39.585 53.5794C39.6925 53.6655 39.883 53.8743 39.8485 53.5757C39.8165 53.4681 39.7999 53.339 39.7436 53.2428C39.6707 53.196 39.6554 53.0985 39.5697 53.0593C39.452 52.9656 39.3203 52.8694 39.2128 52.7555C38.7601 52.3506 38.3022 51.9515 37.8391 51.5582C37.7547 51.4241 37.394 51.3342 37.5756 51.1659C37.7573 51.2735 37.866 51.4532 38.0451 51.5684C38.2088 51.6696 38.3009 51.8746 38.4812 51.9531C38.7472 52.2151 39.0401 52.4556 39.3369 52.6834C39.4456 52.791 39.8191 53.2074 39.7193 52.7897C39.6426 52.31 39.6784 52.4644 39.3497 52.1113C39.0721 51.9126 38.847 51.643 38.5912 51.4114C38.3162 51.2178 38.109 50.9482 37.8391 50.7457C37.7522 50.6293 37.5961 50.5824 37.527 50.4496C37.4349 50.4166 37.4682 50.3508 37.4759 50.2762C37.8072 50.4609 38.0642 50.7824 38.3443 51.0406C38.43 51.1558 38.5643 51.214 38.6641 51.3152C38.9071 51.5646 39.1591 51.7987 39.4213 52.0265C39.5454 52.1708 39.6477 52.1835 39.608 51.9468C39.609 51.8853 39.5969 51.8243 39.5727 51.7676C39.5485 51.7109 39.5126 51.6599 39.4673 51.6177C38.9519 51.0862 38.393 50.6065 37.8724 50.0863C37.8317 50.0431 37.7853 50.0056 37.7342 49.9749C37.6626 49.9205 37.6191 49.7902 37.5258 49.7573C37.3608 49.6965 37.3454 49.4168 37.5411 49.5965C37.7419 49.8066 37.9709 49.9851 38.1806 50.1863C38.2535 50.2724 38.3546 50.3344 38.3993 50.4445C38.4505 50.5052 38.5311 50.5407 38.5874 50.5964C38.6347 50.6381 38.6424 50.7179 38.7178 50.7318C38.8074 50.8533 38.9442 50.9267 39.0427 51.0406C39.131 51.1102 39.452 51.5253 39.5057 51.4076C39.516 51.3861 39.5275 51.3519 39.5185 51.3317C39.4635 51.1697 39.5006 50.9862 39.3548 50.8583C38.9314 50.4331 38.485 50.0306 38.0566 49.618C37.9913 49.5611 37.9427 49.4851 37.857 49.4535C37.837 49.4442 37.8211 49.428 37.8123 49.4079C37.7956 49.3548 37.7483 49.3409 37.7099 49.313C37.6703 49.2624 37.6383 49.2029 37.5897 49.1624C37.4938 49.1333 37.1996 48.7916 37.4593 48.8713C38.0604 49.413 38.6321 49.9889 39.2141 50.5622C39.5108 50.8596 39.3906 50.2673 39.2601 50.1547C38.6206 49.5218 37.9785 48.889 37.3365 48.2752C37.3032 48.2474 37.2533 48.1778 37.3058 48.1411C37.4043 48.0778 37.6089 48.3967 37.7074 48.4575C38.2241 48.9447 38.7025 49.4813 39.2256 49.9598C39.3497 50.0142 39.2589 49.8129 39.2819 49.7573C39.3036 49.5168 39.1489 49.3143 38.9647 49.1649C38.8752 49.0991 38.8291 48.9903 38.7345 48.9295C38.6577 48.8637 38.5682 48.8093 38.5285 48.7068C38.4646 48.6283 38.3674 48.5726 38.2906 48.5005C38.0949 48.3182 37.889 48.1284 37.7176 47.9234C37.6844 47.8272 37.5859 47.8044 37.5206 47.7399C37.4554 47.6462 37.3518 47.5905 37.2802 47.5044C37.2469 47.4488 37.1881 47.3627 37.2725 47.326C37.4183 47.3627 37.4861 47.5437 37.6102 47.6297C37.9235 47.9474 38.2587 48.26 38.5452 48.584C38.6923 48.765 38.8854 48.9219 39.0465 49.0941C39.0849 49.1396 39.1744 49.1624 39.1885 49.0941C39.2013 48.9473 39.1374 48.7903 39.067 48.6574C39.0158 48.5625 38.9097 48.5296 38.8726 48.4321C38.8086 48.3841 38.7281 48.3575 38.6961 48.2739C38.6193 48.1524 38.4812 48.0841 38.3814 47.9803C38.2855 47.8993 38.2433 47.7525 38.1128 47.7095C38.0451 47.6842 38.054 47.6082 38.0067 47.5728C37.9632 47.5424 37.8992 47.5399 37.8839 47.4766C37.8519 47.3741 37.701 47.3728 37.6652 47.269C37.6447 47.1564 36.9361 46.6438 37.2802 46.6653C37.5104 46.8691 37.7317 47.0994 37.9299 47.3361C38.1781 47.5639 38.4198 47.8069 38.6385 48.0639C38.7652 48.1866 38.8815 48.3549 39.0389 48.4321C39.0696 48.3448 39.0849 48.2474 39.0568 48.1816C39.0056 48.0676 39.0619 47.9474 38.9852 47.8424C38.407 47.1513 37.6805 46.5995 37.0998 45.9085L37.1753 45.8326C37.2827 45.9199 37.4183 45.9654 37.4746 46.1009C37.8046 46.4274 38.1218 46.7666 38.439 47.1032C38.5055 47.1817 38.5848 47.2488 38.659 47.3222C38.7319 47.3665 38.8995 47.6475 38.9442 47.4943C38.9724 47.3652 38.9007 47.2576 38.9058 47.1298C38.8905 46.9324 38.7293 46.7742 38.581 46.6489C38.1576 46.3008 37.7931 45.8794 37.3953 45.4997C37.2879 45.3909 37.1894 45.2744 37.0883 45.158C37.0474 45.1111 37.05 45.1086 37.1101 45.0339C37.6652 45.5149 38.1487 46.0831 38.6679 46.5983C38.9621 46.8514 38.7959 46.2097 38.6424 46.1236C38.2625 45.7376 37.857 45.3807 37.4938 44.9909C37.4094 44.8606 36.94 44.5619 37.0423 44.4226C37.183 44.3885 37.2943 44.6213 37.4017 44.6935C37.788 45.0605 38.118 45.4731 38.5119 45.8351C38.5439 45.9262 38.6321 45.949 38.6948 45.9971C38.8125 45.9578 38.6667 45.768 38.6999 45.6478C38.6731 45.3643 38.2894 45.0896 38.086 44.9011C37.9555 44.8428 37.9338 44.6821 37.8008 44.6214C37.7534 44.5953 37.7131 44.5584 37.6831 44.5138C37.6191 44.3784 37.4848 44.3265 37.3902 44.2227C37.3672 44.1936 37.3518 44.1518 37.3237 44.1341C37.1865 44.0245 37.0682 43.8937 36.9732 43.7468C36.9975 43.5924 37.1651 43.7911 37.2162 43.8367C37.4119 44.0265 37.6025 44.2075 37.7931 44.4075C37.9299 44.5657 38.077 44.715 38.228 44.8618C38.3533 44.9656 38.4377 45.12 38.5938 45.1846C38.6859 45.0706 38.5579 44.9669 38.5746 44.8492C38.5823 44.4543 38.1845 44.2568 37.9504 44.0012C37.9031 43.9088 37.7867 43.8822 37.7317 43.7962C37.6613 43.662 37.5437 43.5759 37.435 43.4798C37.2687 43.2735 37.0077 43.1304 36.9093 42.8824C36.9348 42.8305 37.0244 42.8672 37.0436 42.89C37.0832 42.9748 37.1536 43.0191 37.229 43.0634C37.252 43.076 37.2789 43.0975 37.2866 43.1203C37.3198 43.2114 37.3979 43.2659 37.4618 43.3304C37.7099 43.5962 37.9965 43.824 38.2216 44.11C38.6002 44.5226 38.5081 44.1341 38.4096 43.8518C37.9491 43.2697 37.2968 42.8292 36.8555 42.2318C36.9118 42.0066 37.3953 42.6495 37.4874 42.709C37.7355 42.99 37.9977 43.2583 38.2676 43.519C38.4659 43.6797 38.3405 43.1646 38.3149 43.0811C38.2356 42.8406 37.9849 42.7292 37.8647 42.5153C37.8519 42.49 37.8174 42.4736 37.7931 42.4546C37.5923 42.3053 37.4324 42.1129 37.252 41.9433C37.0896 41.7661 36.8671 41.6244 36.7698 41.4016C36.8466 41.2181 37.2226 41.7572 37.3134 41.8193C37.5884 42.1369 37.9133 42.423 38.2062 42.7229C38.2945 42.7052 38.2407 42.3964 38.2113 42.328C38.0259 41.999 37.6908 41.7762 37.4439 41.494C37.3478 41.4346 37.2668 41.354 37.2073 41.2586C37.0781 41.0953 36.9041 40.9612 36.7622 40.8068C36.7174 40.7599 36.72 40.7561 36.7814 40.689C37.0269 40.827 37.206 41.0877 37.417 41.2776C37.6191 41.5028 37.8391 41.7142 38.0425 41.9357C38.0796 41.9901 38.1602 41.9775 38.1653 41.9268C38.1295 41.7104 38.1205 41.4699 37.9862 41.294C37.8481 41.2118 37.7777 41.0409 37.6306 40.9586C37.4234 40.8181 37.3109 40.5574 37.0896 40.4372C37.0078 40.2992 36.8747 40.2069 36.7698 40.0816C36.7187 40.0309 36.6292 39.8411 36.7941 39.917C37.1318 40.2739 37.4887 40.6005 37.8097 40.9726C37.8583 41.0384 38.054 41.1915 38.0399 41.0004C38.0016 40.9295 38.0208 40.8511 38.0016 40.7802C37.724 40.1967 37.0704 39.8221 36.6624 39.3171C36.5946 39.1741 36.7673 39.2095 36.8248 39.3133C37.0014 39.5133 37.2034 39.6892 37.3953 39.8727C37.5616 40.0208 37.7099 40.2322 37.8967 40.341C37.9632 40.1183 37.8724 39.8537 37.7202 39.6829C37.4669 39.4146 37.1791 39.1792 36.9502 38.8893C36.889 38.8 36.8081 38.7256 36.7136 38.6716C36.5729 38.6198 36.491 38.3135 36.7187 38.4843C36.9655 38.7286 37.2137 38.9729 37.458 39.2197C37.5923 39.3563 37.5705 39.4133 37.7765 39.5133C37.8289 39.4032 37.7534 39.3146 37.7573 39.2095C37.7701 39.1209 37.7215 39.0437 37.7099 38.9589C37.5705 38.7526 37.3812 38.5742 37.2047 38.3957C37.1024 38.2515 36.4181 37.7553 36.555 37.6237C36.8824 37.8591 37.1433 38.2021 37.449 38.4755C37.5219 38.5299 37.568 38.6501 37.6754 38.616C37.5974 38.3641 37.3352 38.2704 37.2111 38.0502C37.0858 37.9768 37.0321 37.8376 36.9233 37.7477C36.7379 37.5781 36.5153 37.4035 36.4322 37.1605C36.4258 37.1137 36.381 37.0947 36.3324 37.0947H35.8055C35.7492 37.2238 35.8093 37.3351 35.8195 37.4617C35.8029 37.5819 35.8656 37.6769 35.863 37.7946C35.8694 37.9034 35.8502 38.0287 35.8668 38.135C35.9564 38.335 35.8694 38.5489 35.9372 38.7552C35.973 38.9273 35.9142 39.1096 35.9756 39.2842C36.0139 39.4108 35.941 39.5588 36.0203 39.6791C36.037 39.7019 36.0306 39.7424 36.0331 39.774C36.0139 39.9499 36.0843 40.1081 36.0715 40.2866C36.0587 40.4663 36.129 40.6321 36.1099 40.8156C36.0894 40.9548 36.1623 41.0713 36.1508 41.213C36.1316 41.3624 36.2096 41.4889 36.1956 41.6433C36.1764 41.7914 36.2442 41.9218 36.2339 42.0736C36.2429 42.2065 36.2083 42.3445 36.2723 42.4711C36.2825 42.6394 36.2544 42.8064 36.3017 42.971C36.3388 43.1039 36.2825 43.2507 36.3452 43.3836C36.3682 43.4279 36.3542 43.4899 36.358 43.5443C36.3631 43.6456 36.3388 43.7493 36.3964 43.8443C36.4156 43.9797 36.3861 44.1227 36.4322 44.2606C36.468 44.3923 36.4053 44.5441 36.4642 44.677C36.4936 44.8036 36.4693 44.9479 36.4769 45.0795C36.4769 45.139 36.4718 45.1972 36.5115 45.2504C36.5499 45.363 36.5115 45.5035 36.5294 45.6199C36.5831 45.7503 36.5588 45.8857 36.5652 46.0199C36.5818 46.1376 36.6164 46.2477 36.6023 46.3704C36.6049 46.4502 36.601 46.5274 36.6355 46.6071C36.6778 46.7463 36.6061 46.9134 36.679 47.0526C36.7097 47.1842 36.6662 47.3323 36.7187 47.4677C36.7583 47.6361 36.688 47.8259 36.7609 47.9955C36.7954 48.1195 36.7328 48.2701 36.7993 48.3942C36.821 48.4942 36.8018 48.6119 36.8082 48.7169C36.8082 48.7498 36.7993 48.7878 36.8133 48.8131C36.8671 48.9042 36.8479 49.0029 36.8517 49.0979C36.8543 49.1776 36.8428 49.2586 36.8888 49.3345C36.9067 49.451 36.8888 49.5851 36.8952 49.7066C36.8952 49.7383 36.8888 49.7762 36.9029 49.8016C36.9719 49.956 36.8914 50.123 36.9655 50.2787C36.9847 50.3951 36.9579 50.5306 36.9732 50.6508C37.041 50.933 37.0615 51.2267 37.0589 51.519C37.0436 51.6759 37.1216 51.8202 37.0909 51.9822C37.0909 52.0936 36.8709 52.0885 36.8581 51.9924C36.8402 51.8962 36.8696 51.8 36.8172 51.7076C36.7609 51.5798 36.9041 51.2798 36.6995 51.2532C32.4787 51.2393 28.2527 51.2861 24.0434 51.2127C24.014 51.2102 23.9858 51.2001 23.9897 51.1659C23.9922 51.133 24.0229 51.1279 24.0511 51.1279C24.8658 51.1102 25.6921 51.1583 26.4991 51.1052C29.8541 50.9432 33.571 51.3355 36.7622 50.9685C36.6419 50.5989 36.9233 50.2205 36.2889 50.3331C32.251 50.3546 28.1619 50.4242 24.1457 50.2876C28.1593 50.0154 32.4659 50.2888 36.5742 50.1926C36.8108 50.1559 36.6228 49.8509 36.6445 49.699C36.6432 49.551 36.4693 49.5927 36.3682 49.5877C35.8694 49.5699 20.7767 49.6661 25.2534 49.4649C28.9907 49.3738 32.8035 49.3915 36.5409 49.4649C36.5754 49.4193 36.6471 49.3776 36.6355 49.3244C36.5435 49.1915 36.6931 48.8701 36.4347 48.8903C32.4313 48.8397 28.3461 48.989 24.3862 48.8346C28.3896 48.6271 32.5183 48.8726 36.5537 48.7498C36.555 48.579 36.6445 48.2081 36.413 48.1626C32.5631 48.16 28.7132 48.1626 24.8632 48.1626C24.7839 48.1588 24.697 48.1803 24.6292 48.1271C24.587 48.0816 24.6535 48.0423 24.6983 48.0398C28.5482 48.036 32.3968 48.0398 36.2454 48.0385C36.3158 48.0385 36.3861 48.036 36.4629 48.0335C36.4923 47.8576 36.4718 47.6867 36.4757 47.5095C32.7971 47.1589 28.6556 47.512 24.8262 47.388C24.6023 47.3374 24.8773 47.2045 24.9886 47.2501C28.7477 47.202 32.5567 47.2121 36.326 47.2399C36.5588 47.226 36.3759 46.8969 36.3976 46.7653C36.3273 46.7071 36.2544 46.6982 36.1764 46.6957C32.4377 46.6944 28.6172 46.7451 24.8939 46.6603C28.5712 46.4109 32.5234 46.6628 36.2902 46.5729C36.3887 46.5729 36.4156 46.473 36.4002 46.3932C36.3388 46.2667 36.3657 46.13 36.3529 45.9882C32.7537 45.6743 28.8884 45.9832 25.2022 45.8781C24.908 45.8427 25.0513 45.7288 25.2764 45.7604C28.9178 45.7591 32.5605 45.7629 36.202 45.7591C36.3785 45.7718 36.3171 45.4301 36.2851 45.3276C36.2659 45.2175 36.28 45.1453 36.1661 45.0618C32.6539 45.1187 29.0675 45.1757 25.5565 45.0618C25.4375 45.0365 25.2495 45.1365 25.2265 44.9605C28.8129 44.915 32.4096 44.9605 35.9999 44.9441C36.074 44.9441 36.1521 44.9529 36.2339 44.9251C36.2199 44.7568 36.2813 44.596 36.1636 44.4568C32.5554 44.4062 28.8986 44.5454 25.3135 44.4087C25.3339 44.2948 25.4618 44.3454 25.5411 44.3341C29.0585 44.3454 32.5656 44.2429 36.0779 44.3341C36.2889 44.2277 36.1444 44.0404 36.1508 43.8734C36.1725 43.7012 36.0011 43.7177 35.8796 43.7215C32.503 43.6013 28.6684 43.9531 25.5168 43.6013C27.5403 43.6076 29.5561 43.5253 31.5718 43.5962C32.7396 43.619 33.9201 43.4823 35.0854 43.5962C35.4128 43.5949 35.7415 43.6051 36.0689 43.5937C36.1585 43.5835 36.1661 43.4544 36.1457 43.3912C36.0536 43.2266 36.2032 42.8545 35.9129 42.8697C32.517 42.8685 29.1212 42.8735 25.7266 42.8685C25.6601 42.8735 25.5795 42.752 25.6831 42.7482C29.1058 42.7444 32.5285 42.7482 35.9513 42.747C36.1214 42.7773 36.0792 42.5596 36.06 42.4495C36.0318 42.3698 36.0497 42.2432 35.9423 42.2243C32.5592 42.1521 29.1378 42.3445 25.7714 42.1546C29.0009 41.9876 32.4173 42.1546 35.7082 42.0964C35.8118 42.0901 35.9807 42.1369 35.9832 41.9851C35.9781 41.8357 36.0229 41.4573 35.8528 41.4079C32.5784 41.3902 29.3015 41.4219 26.0285 41.3953C26.0093 41.3915 25.9824 41.3598 25.9824 41.3396C25.9824 41.3219 26.0131 41.2928 26.0336 41.289C29.2516 41.27 32.4735 41.289 35.6929 41.2826C35.7568 41.2826 35.8221 41.2801 35.8899 41.2776C35.9308 41.1219 35.8988 40.9751 35.9078 40.8245C35.8298 40.6878 35.7134 40.708 35.5842 40.7118C32.4556 40.6486 29.1225 40.8321 26.0937 40.6486C26.1167 40.6359 26.1448 40.6106 26.1666 40.6156C26.274 40.6359 26.3751 40.5903 26.4825 40.5903C29.6008 40.5979 32.7178 40.5916 35.8361 40.5941C35.9142 40.4093 35.8323 40.2461 35.8208 40.0664C35.8272 39.893 35.643 39.9423 35.5266 39.936C32.581 39.8158 28.9587 40.1626 26.3393 39.8221C29.4397 39.8132 32.5401 39.8221 35.6405 39.8183C35.8016 39.8196 35.8464 39.6715 35.8067 39.5399C35.7684 39.4133 35.8144 39.2817 35.6635 39.207H31.394C31.2303 39.1741 25.2508 39.3121 26.6641 39.0817C29.6801 39.0817 32.6974 39.0855 35.7134 39.0817C35.7684 38.8539 35.7517 38.5691 35.6238 38.4704L26.8547 38.4717C26.7486 38.4717 26.4314 38.4388 26.5759 38.3578C29.5279 38.3426 32.4812 38.3578 35.4333 38.3514C35.5023 38.3514 35.5739 38.3666 35.6532 38.3261C35.643 38.1236 35.7108 37.8844 35.5893 37.7022C32.6731 37.5073 29.5893 37.8465 26.6948 37.5819C29.6034 37.4655 32.5835 37.5857 35.5151 37.5389C35.6494 37.5263 35.6123 37.3617 35.6123 37.2681C35.5919 37.12 35.423 37.125 35.3066 37.1314H26.9084C26.8036 37.1276 26.778 37.101 26.7729 36.9922C26.8036 36.8732 26.9519 36.8846 27.0491 36.8846H36.4437C36.5665 36.9668 36.6266 37.0833 36.72 37.1871C36.9054 37.3554 37.0704 37.5402 37.229 37.7313C37.3927 37.8958 37.5641 38.054 37.7099 38.2325C37.7432 38.273 37.7777 38.278 37.8315 38.2856C37.8442 38.0705 37.7803 37.8085 38.0975 37.9502C38.3661 38.0388 38.6513 38.0793 38.9238 38.1527C39.0875 38.192 39.3049 38.2502 39.4226 38.1034C39.4955 38.0034 39.915 37.8211 39.6976 37.7072C39.5275 37.6351 39.3484 37.5895 39.1796 37.5326C39.1271 37.4566 39.0133 37.4782 38.9724 37.4022C39.0312 37.3503 39.0836 37.4123 39.1412 37.4313C39.4482 37.4782 39.7423 37.5705 40.0442 37.6503C40.2066 37.6883 40.3678 37.73 40.5251 37.7819C40.6444 37.7794 40.7627 37.8045 40.8705 37.8553C40.9651 37.8705 41.0546 37.8465 41.1416 37.9148C41.1902 37.8553 41.1979 37.7882 41.1109 37.7857C40.9702 37.7667 40.8487 37.6857 40.7029 37.6958C40.3486 37.5693 39.9777 37.4971 39.6285 37.3706C39.3228 37.2719 39.0222 37.1554 38.7166 37.0529C38.595 36.977 38.4556 36.939 38.3239 36.8757C38.2548 36.8479 38.196 36.7947 38.1141 36.8023C38.1088 36.8023 38.1035 36.8012 38.0987 36.799C38.0938 36.7968 38.0895 36.7936 38.086 36.7897C38.0489 36.7327 37.9862 36.7302 37.9325 36.7074C37.843 36.653 37.9133 36.5707 37.9913 36.6188C38.934 36.996 39.9176 37.2769 40.905 37.5288C41.0278 37.5566 41.1595 37.5743 41.281 37.6148C41.3194 37.625 41.3335 37.6186 41.4 37.5642C41.3335 37.4541 41.1915 37.4883 41.0815 37.4566C40.96 37.449 40.8602 37.3655 40.74 37.3731C40.6645 37.3718 40.5967 37.3238 40.5251 37.3035C40.465 37.2807 40.3934 37.3162 40.3358 37.2693C40.2041 37.2048 40.0468 37.1858 39.9086 37.1364C39.4149 37.0061 38.9557 36.8099 38.4825 36.6365C38.2906 36.5517 38.1039 36.4581 37.9069 36.3859C37.7944 36.348 37.5846 36.2543 37.5526 36.1366C37.5424 36.0746 37.6153 36.0645 37.6562 36.0872C37.7406 36.1455 37.8558 36.1417 37.9287 36.2214C38.2395 36.3442 38.5541 36.453 38.8611 36.5796C39.4149 36.7757 39.9777 36.9593 40.5494 37.0985C40.8257 37.1656 41.0968 37.2503 41.3782 37.2959C41.4384 37.2972 41.524 37.3592 41.5714 37.306C41.5663 37.1719 41.3757 37.2326 41.29 37.1769C41.1902 37.1288 41.0828 37.1339 40.9741 37.1175C40.882 37.0896 40.795 37.0453 40.6927 37.0504C40.6006 37.0251 40.5226 36.9542 40.4177 36.9668C40.3102 36.9567 40.2258 36.8656 40.1107 36.8808C40.034 36.8719 39.9649 36.7973 39.8805 36.8074C39.5096 36.677 39.1207 36.5783 38.7613 36.41C38.6756 36.3593 38.5669 36.3416 38.4723 36.31C38.3827 36.2239 38.2638 36.1986 38.1551 36.1606C38.0259 36.0632 37.2597 35.8809 37.527 35.6848C38.3878 36.0581 39.2537 36.3973 40.1529 36.6707C40.6172 36.7745 41.0725 36.9213 41.5432 37.0048C41.5906 37.0124 41.6379 37.0048 41.6814 37.0403C41.7044 37.0592 41.7325 37.0403 41.7504 37.0175C41.8323 36.9479 41.5407 36.877 41.4946 36.8833C41.3539 36.8833 41.2286 36.7947 41.0828 36.8036C40.9945 36.8036 40.9037 36.7479 40.8219 36.7276C40.7093 36.7428 40.63 36.6644 40.5277 36.6454C40.2936 36.6302 40.089 36.5024 39.8626 36.4669C39.4712 36.3087 39.0581 36.1973 38.6718 36.0214C38.5464 35.9923 36.931 35.2785 37.5936 35.3684C38.801 35.9379 40.0749 36.3682 41.391 36.6466C41.455 36.6593 42.0638 36.8011 41.9078 36.6492C41.3386 36.5226 40.7669 36.3935 40.2092 36.2265C39.6503 36.0657 39.1182 35.8379 38.5784 35.6253C38.5042 35.581 38.4403 35.5253 38.3546 35.4987C38.297 35.4709 38.242 35.4354 38.1857 35.4038C38.1973 35.3747 38.2177 35.3418 38.242 35.3671C38.2983 35.4253 38.3776 35.4051 38.4377 35.4342C39.429 35.8164 40.4688 36.1366 41.524 36.3492C41.6277 36.3695 41.7313 36.415 41.8438 36.3973C41.9206 36.4188 41.9922 36.4657 42.0766 36.4366C42.17 36.3733 41.9883 36.3075 41.9308 36.3201C41.368 36.2454 40.8167 36.0569 40.268 35.8936C40.0813 35.843 39.9112 35.7443 39.7206 35.7038C39.6349 35.6607 39.5953 35.6582 39.5722 35.5481L39.5735 35.5506ZM43.3032 45.1567C43.3825 45.0074 43.7163 45.039 43.6025 44.8669C43.5334 44.8644 43.458 44.8542 43.3953 44.7922C43.4209 44.3796 43.4477 44.7011 43.2802 44.3341C43.1408 44.353 43.0333 44.2936 42.9451 44.21C42.702 44.2189 42.4846 44.205 42.2544 44.1721C41.7965 44.1948 41.3539 44.1202 40.8986 44.1341C40.7566 44.1391 40.6249 44.1923 40.4804 44.1721C40.3115 44.1531 40.1606 44.2176 39.9943 44.21C38.9186 44.4328 40.6888 44.9441 40.9498 45.1023C41.0482 45.1149 41.1467 45.163 41.2439 45.1833C41.3284 45.1833 41.368 45.2326 41.4 45.3023C41.2746 45.4086 41.0917 45.3073 40.9459 45.3098C40.818 45.3035 40.6773 45.3212 40.5533 45.3035C40.4535 45.2554 40.3486 45.2769 40.2463 45.2719C40.1222 45.2769 40.0199 45.2086 39.8945 45.2288C39.8089 45.2415 39.7385 45.2035 39.6579 45.1858C39.5505 45.182 39.4405 45.1972 39.3369 45.1491C39.1988 45.1719 39.0683 45.1124 38.934 45.1099C38.8649 45.1086 38.8739 45.0428 38.8048 45.0213C38.769 45.1681 38.8355 45.3061 38.8534 45.4541C38.879 45.7554 38.9327 46.0616 38.9647 46.3591C39.0453 46.5983 39.0235 46.8577 39.09 47.0969C39.1386 47.2412 39.1156 47.4032 39.1501 47.5538C39.1655 47.6804 39.2167 47.8057 39.1949 47.936C39.3011 48.2588 39.2691 48.6195 39.3804 48.946C39.4827 48.8789 39.5479 48.7524 39.7014 48.7625C39.8511 48.6549 40.034 48.6992 40.2066 48.6865C40.3883 48.6713 40.5379 48.7802 40.676 48.8776C40.7988 48.9814 40.8423 49.1371 40.9088 49.2738C40.9267 49.4004 40.9421 49.6066 41.1301 49.5218C41.1582 49.5092 41.1992 49.4965 41.2222 49.5092C41.4678 49.6218 41.6737 49.7864 41.7479 50.0559C41.854 50.3281 42.2723 50.0294 42.468 49.9965C42.8261 49.9155 42.0715 49.8788 42.2659 49.6206C42.3938 49.4839 42.1546 49.4206 42.2761 49.2054C42.2864 49.1371 42.2083 49.1282 42.161 49.1548C42.0024 49.2308 41.8323 49.2156 41.6647 49.2181C41.2746 49.1611 41.6085 48.8599 41.8285 48.8485C41.8579 48.846 41.8899 48.8258 41.9167 48.808C41.9832 48.7599 42.0485 48.7827 42.1214 48.741C42.0773 48.6578 42.008 48.5905 41.9231 48.5486C41.8847 48.4549 41.799 48.3992 41.7313 48.3296C41.487 48.0284 41.62 48.0056 41.9359 48.0702C41.9999 47.8563 42.1265 47.8398 42.3222 47.9006C42.7187 48.1183 42.5166 48.2967 42.9515 48.2398C43.0359 48.3246 43.1369 48.3815 43.1983 48.479C43.2444 48.5347 43.3045 48.5929 43.3851 48.5423C43.3851 48.4511 43.4234 48.2891 43.2853 48.2828C43.119 48.2967 42.9886 48.2372 43.0973 48.0613C43.2124 47.9854 43.1331 47.9132 43.0461 47.8689C42.8773 47.774 42.6944 47.7082 42.5511 47.5652C42.3721 47.4222 42.3362 47.1665 42.6176 47.1842C42.8773 47.1539 43.1727 47.4779 43.3902 47.388C43.5654 47.2665 43.7291 47.4386 43.912 47.4133C43.9338 47.3184 43.8967 47.107 43.7867 47.1501C43.6549 47.1906 43.5194 47.2943 43.3825 47.2956C43.2597 47.2437 43.2201 47.2501 43.2265 47.1058C43.1894 46.9602 43.3262 46.8894 43.3454 46.7539C43.3198 46.7414 43.2916 46.7352 43.2631 46.7359C43.2346 46.7366 43.2066 46.7441 43.1817 46.7577C42.9566 46.8526 42.8555 46.5742 43.0819 46.4768C43.3914 46.2363 42.2966 46.3059 42.4552 45.9452C42.5191 45.9009 42.6726 45.8528 42.555 45.7731C42.4488 45.7186 42.4322 45.6339 42.4552 45.5263C42.5319 45.4997 42.6087 45.5136 42.6854 45.5149C42.7762 45.5604 42.8594 45.6339 42.9604 45.6604C43.0346 45.6136 43.0269 45.525 43.1229 45.5022C43.2559 45.3934 43.3889 45.344 43.3032 45.1567ZM38.1973 40.6587C38.4978 40.4093 38.879 40.303 39.1655 40.0322C39.3829 39.8537 39.6477 39.7246 39.8434 39.5196C39.8694 39.2618 39.9927 39.0231 40.1887 38.8514C40.2207 38.821 40.2335 38.759 40.2731 38.7349C40.4074 38.6742 40.4842 38.5514 40.5891 38.4578C40.662 38.3907 40.6505 38.3261 40.566 38.2768C40.3307 38.1654 40.3358 37.8971 40.0327 38.1122C39.8882 38.197 39.7551 38.3249 39.6029 38.3907C39.5006 38.4135 39.4482 38.4831 39.3983 38.559C39.3087 38.6881 39.2576 38.8691 39.09 38.9134C38.6104 39.0399 38.4109 39.0425 38.7166 39.5614C38.8291 39.9006 38.2945 39.5044 38.2267 39.4386C38.1576 39.3829 38.0566 39.3614 38.0259 39.2614C37.9415 39.2146 37.9478 39.388 37.9785 39.4437C38.0156 39.5095 37.9965 39.5956 38.0144 39.6626C38.0527 39.7398 38.0476 39.8208 38.0425 39.9006C38.0361 40.0145 38.0975 40.1195 38.0873 40.2334C38.187 40.3701 38.0655 40.5296 38.1973 40.6587ZM43.0883 49.3535C42.9272 49.2991 42.8312 49.4674 42.6854 49.5054C42.569 49.6408 42.9796 49.5699 43.0525 49.5864C43.2111 49.5927 43.0883 49.4231 43.0883 49.3535ZM43.4324 45.7186C43.5219 45.8389 43.5385 45.8528 43.6319 45.8895C43.6255 45.806 43.646 45.7262 43.6191 45.6478C43.5398 45.6288 43.472 45.625 43.4324 45.7186ZM43.8647 46.0756C43.8378 45.9946 43.7931 45.992 43.7342 46.0123C43.7509 46.0819 43.7931 46.0945 43.8647 46.0756ZM39.5671 50.3622C39.5876 50.3736 39.5978 50.3749 39.6055 50.3496C39.5837 50.3356 39.5748 50.3369 39.5671 50.3622ZM39.9598 52.8213C39.9777 52.8049 39.9777 52.7935 39.9598 52.7758C39.9419 52.7922 39.9419 52.8049 39.9598 52.8213ZM39.4315 49.2219C39.4315 49.1991 39.4175 49.2092 39.4021 49.2092C39.4124 49.2194 39.4149 49.2371 39.4315 49.2219ZM40.1363 53.8883L40.1273 53.8756C40.1222 53.8883 40.1056 53.8997 40.1235 53.911L40.1363 53.8883ZM38.7319 44.4188L38.7217 44.3935C38.7038 44.3999 38.7114 44.4151 38.7127 44.429L38.7319 44.4188ZM17.2824 42.8748C17.3719 42.9381 17.3834 43.0722 17.5062 43.1304C17.5471 42.9026 17.4934 42.6698 17.5331 42.447C17.5753 42.3875 17.5663 42.3242 17.5689 42.261C17.574 42.1483 17.5574 42.0369 17.6008 41.9256C17.6277 41.7939 17.6085 41.6168 17.7543 41.5396L17.895 41.6661C17.8848 41.8509 17.8989 42.0357 17.9334 42.2192C17.936 42.3812 17.9334 42.5432 17.936 42.7065C17.9551 42.7976 17.8208 42.9166 17.9526 42.9634C18.0191 42.8963 18.1854 42.6255 18.2557 42.8242C18.2723 42.8988 18.1956 43.0646 18.312 43.0684C18.4169 43.0381 18.5461 43.0444 18.6458 43.0254C18.8172 42.9469 18.9963 43.0178 19.1741 42.9558C19.3237 42.9153 19.4938 42.9862 19.6435 42.9216C19.8392 42.8938 20.0489 42.9191 20.2485 42.9115C20.338 42.8938 20.4135 42.9495 20.5043 42.9482C20.6603 42.9267 20.7997 42.995 20.9558 42.9874C21.0312 42.9722 21.0901 43.0153 21.1579 43.033C21.3446 43.0153 21.5224 43.0836 21.7091 43.0748C22.0251 43.0469 22.3448 43.1115 22.6556 43.0444C22.7835 43.0064 22.9319 43.071 23.0572 43.0026C23.0956 42.9798 23.1532 42.9862 23.2005 42.9887C23.3581 42.9969 23.5158 42.9745 23.6648 42.9229C23.9027 42.9039 24.1355 42.8697 24.344 42.7457C24.5281 42.6065 24.7392 42.5052 24.9042 42.3407C25.0641 42.1066 25.0346 41.7965 25.1267 41.5345C25.1191 41.3965 25.183 41.2738 25.2137 41.1459C25.2265 40.8776 25.2904 40.6093 25.3582 40.3486C25.3889 40.1917 25.3966 40.0297 25.458 39.8803C25.4516 39.6576 25.6281 39.4285 25.5028 39.2083C25.4913 39.1906 25.4823 39.1627 25.4657 39.1576C25.3825 39.126 25.3634 39.0374 25.2994 38.9881C25.2407 38.9391 25.1868 38.8849 25.1382 38.8261C24.9975 38.6653 24.7852 38.6299 24.5908 38.5717C24.4245 38.5337 24.2608 38.4135 24.0894 38.4375C24.0127 38.5628 23.9052 38.7337 23.7671 38.5717C23.3706 38.1211 22.8424 37.8363 22.3039 37.5845C22.0519 37.4478 21.7667 37.3946 21.5224 37.2377C21.319 37.0238 21.1451 36.7517 20.8624 36.6277C20.6766 36.5311 20.48 36.4563 20.2766 36.4049C20.1167 36.3328 20.1103 36.5555 20.0847 36.6618C20.0029 36.8833 20.1845 37.0542 20.1999 37.2643C20.2753 37.5604 20.5004 37.8085 20.6015 38.0958C20.5874 38.2451 20.6347 38.4173 20.5746 38.5527C20.4979 38.5299 20.4518 38.454 20.4199 38.3881C20.3623 38.2413 20.2459 38.1312 20.1807 37.9895C20.0681 37.9173 19.3608 36.9339 19.4158 37.4453C19.348 37.8465 19.6307 38.8425 19.0705 38.9222C18.7443 38.9703 18.4898 38.6742 18.179 38.7008C17.9123 38.789 17.6637 38.9236 17.4448 39.0982C17.3706 39.164 17.2043 39.2703 17.1992 39.0982C17.1609 38.1958 17.2402 38.5856 17.5957 37.9262C17.4474 37.8503 17.1826 37.873 17.2542 37.6275C17.4384 37.5807 17.6533 37.8047 17.8093 37.6351C17.6661 37.6047 17.5535 37.544 17.4218 37.5364C17.3131 37.5376 17.1442 37.3693 17.2849 37.2997C17.3847 37.3415 17.4998 37.3174 17.5996 37.3668C17.6533 37.387 17.7403 37.3579 17.7914 37.3858C17.8746 37.444 17.9577 37.4161 18.0549 37.4111C18.0306 37.2301 17.7825 37.3288 17.6622 37.2845C17.5458 37.1757 17.3553 37.2668 17.2657 37.1364C17.235 37.101 17.2363 37.0985 17.2581 36.9744C17.2926 36.9744 17.3374 36.9618 17.3642 36.977C17.4371 37.0187 17.5305 36.9858 17.5945 37.0453C17.7096 37.039 17.8144 37.1035 17.9308 37.0947C18.0472 37.0896 18.138 37.158 18.2608 37.1175C18.1969 36.9529 17.8541 36.982 17.6981 36.9656C17.5893 36.9441 17.4896 36.877 17.3719 36.8795C17.3335 36.8821 17.2926 36.8504 17.2491 36.8327C17.2402 36.7719 17.212 36.6606 17.2836 36.6479C17.5561 36.7061 17.8349 36.7416 18.1035 36.8036C18.1726 36.796 18.674 36.8567 18.5102 36.7289C18.3197 36.7188 18.1278 36.7378 17.9475 36.6656C17.7428 36.6403 17.551 36.6023 17.3553 36.534C17.2325 36.4884 17.2363 36.4808 17.2529 36.3391C17.2619 36.334 17.2709 36.3239 17.2785 36.3252C17.5331 36.348 18.7955 36.6884 18.862 36.4188C18.6075 36.3505 18.3325 36.4391 18.0741 36.3682C17.8358 36.3297 17.6007 36.2738 17.3706 36.2011C17.2338 36.1581 17.2338 36.1568 17.2555 36.0012C17.2836 35.9999 17.3169 35.9898 17.3463 35.9961C17.6098 36.0442 17.863 36.1556 18.1329 36.1556C18.1828 36.1556 18.2301 36.1543 18.2762 36.1809C18.532 36.2315 18.7929 36.2429 19.0538 36.2315C19.2713 36.1493 19.4324 35.9278 19.6742 35.8708C19.8021 35.8278 19.8046 35.8278 19.9364 35.8708C20.5145 36.0543 21.0364 36.3619 21.5825 36.6175C21.6426 36.6644 21.6848 36.5973 21.7488 36.6175C21.837 36.6428 21.9023 36.7238 21.9854 36.7542C22.3333 36.92 22.6876 37.0795 23.0726 37.1326C23.2824 37.1618 23.4819 37.2225 23.6968 37.2124C23.9142 37.2314 24.1316 37.2946 24.3555 37.2212C24.5 37.1744 24.6803 37.2579 24.8223 37.1807C25.1075 37.1605 25.4068 37.1263 25.6716 37.0099C25.7995 37.0289 25.9057 36.958 26.0118 36.915C26.1947 36.8719 26.4659 36.8264 26.3994 37.1048C26.3661 37.3275 26.2971 37.5389 26.2715 37.7617C26.0898 38.5641 25.9555 39.3855 25.7854 40.1955C25.6064 41.0536 25.4503 41.9104 25.2661 42.7697C25.2022 43.1001 25.151 43.4405 25.0666 43.7696C25.0372 43.9088 25.041 44.0543 24.9771 44.1872C24.9643 44.348 24.9502 44.5074 24.8888 44.6581C24.8951 44.7656 24.8744 44.8729 24.8287 44.9707C24.7814 45.1175 24.7916 45.2744 24.7443 45.4238C24.7405 45.4617 24.72 45.4984 24.7251 45.5326C24.7417 45.6718 24.6599 45.7908 24.6369 45.9199C24.6384 46.054 24.6141 46.1871 24.5652 46.3122C24.5524 46.4401 24.5576 46.5691 24.4987 46.6894C24.454 46.8058 24.4898 46.9349 24.4284 47.0476C24.3734 47.2108 24.4002 47.3855 24.3299 47.5475C24.2954 47.6816 24.2915 47.8196 24.2493 47.9525C24.2263 48.0854 24.2161 48.2145 24.1687 48.3423C24.1214 48.6524 24.0702 48.9624 23.9807 49.2611C23.9835 49.4056 23.9592 49.5494 23.9091 49.6851C23.8886 49.7902 23.9142 49.9003 23.863 50.0015C23.7863 50.1496 23.8247 50.3268 23.7543 50.4799C23.7057 50.5736 23.762 50.6799 23.707 50.7786C23.6175 50.9431 23.6635 51.1482 23.5944 51.3254C23.533 51.414 23.6047 51.5304 23.5433 51.6215C23.4908 51.7013 23.4883 51.7924 23.4819 51.8848C23.4768 52.005 23.4166 52.124 23.4077 52.2429C23.4205 52.3442 23.3591 52.429 23.3565 52.5264C23.3079 52.5796 23.3246 52.6479 23.3169 52.71C23.279 52.9297 23.2329 53.1479 23.1787 53.3643C23.0142 54.2297 22.8402 55.0933 22.6569 55.955C22.6236 56.112 22.616 56.4081 22.3627 56.2284C22.2706 56.2031 22.1709 56.0499 22.2361 55.9626C22.2483 55.9456 22.255 55.9253 22.2553 55.9044C22.245 55.7614 22.3064 55.6323 22.332 55.4969C22.3192 55.3703 22.387 55.264 22.4088 55.14C22.4254 55.0007 22.4331 54.8641 22.4881 54.7337C22.5034 54.5945 22.5136 54.4578 22.5712 54.3287C22.584 54.1831 22.6096 54.0452 22.6556 53.906C22.6577 53.7832 22.6793 53.6614 22.7196 53.5453C22.781 53.2719 22.8065 52.9783 22.8986 52.7074C22.9588 52.4758 22.8117 52.5771 22.7042 52.6619C22.5866 52.7656 22.4625 52.6973 22.3435 52.6441C22.0506 52.7011 21.9854 53.034 22.2297 53.1922C22.4778 53.3263 22.2374 53.4542 22.0801 53.5136C21.986 53.5575 21.9101 53.6322 21.8652 53.725C21.7398 54.0654 22.3064 54.5375 21.8038 54.9248C21.507 55.14 21.2333 54.9122 20.9634 55.2716C20.8432 55.2678 20.7805 55.183 20.6987 55.1362C20.6165 55.094 20.5421 55.0384 20.4787 54.9716C20.2817 54.8362 20.0937 54.6805 19.9057 54.5299C19.0916 53.8701 18.3344 53.1445 17.6418 52.3606C17.5024 52.1493 17.2376 51.9822 17.1979 51.724C17.2785 48.7966 17.0406 45.7427 17.2811 42.8761L17.2824 42.8748ZM19.93 49.9737C19.8929 50.0724 19.7918 50.0724 19.6934 50.1002C20.1704 50.609 19.2124 50.2876 19.6831 50.6255C19.8494 50.5432 20.0809 50.5318 20.2126 50.6774C20.2382 50.7166 20.2753 50.752 20.3303 50.7596C20.3953 50.6536 20.482 50.5622 20.5849 50.4913C20.7985 50.3344 21.0517 50.2458 21.3075 50.1939C21.4776 50.1914 21.6413 50.185 21.8063 50.2369C21.9458 50.2268 22.0417 50.3597 22.1862 50.3065C22.3717 49.961 22.749 49.5763 23.1813 49.694C23.2696 49.7244 23.3604 49.7826 23.4627 49.7332C23.6072 49.3156 23.6405 48.8625 23.7479 48.4296C23.7633 48.241 23.8349 48.0525 23.8605 47.8715C23.8682 47.7525 23.927 47.6437 23.8861 47.526C23.5407 47.4121 23.1775 47.3867 22.8206 47.3386C22.5955 47.2412 22.3435 47.3614 22.1133 47.2678C21.9982 47.2551 21.8716 47.2703 21.7539 47.264C21.6567 47.269 21.5787 47.2083 21.4827 47.2247C21.3548 47.2171 21.2141 47.2374 21.0914 47.2159C21.0287 47.1817 20.9647 47.1868 20.8995 47.1842C20.8778 47.1842 20.8522 47.1842 20.8355 47.1741C20.7332 47.1096 20.613 47.1716 20.5056 47.1108C20.3521 47.045 20.1717 47.0665 20.0272 46.9792C19.8814 46.964 19.7548 46.8843 19.6013 46.8678C19.4938 46.9261 19.5655 47.0425 19.5296 47.1248C19.4452 47.2437 19.105 47.3475 19.3646 47.4918C19.5053 47.4336 19.6742 47.2298 19.8289 47.3374C19.7867 47.4285 19.7509 47.5158 19.6486 47.5551C19.6228 47.5655 19.5998 47.5816 19.5814 47.6022C19.563 47.6229 19.5497 47.6474 19.5424 47.674C19.6153 47.7753 19.6102 47.9398 19.4593 47.9575C19.238 48.0588 19.5898 48.1309 19.1306 48.3524C19.2508 48.441 19.6 48.6536 19.3583 48.7764C19.2636 48.8245 19.2623 48.9979 19.3902 49.0105C19.5079 48.9219 19.7113 48.6777 19.8711 48.7511C19.9709 48.8156 20.0297 48.6929 20.1001 48.6448C20.3393 48.4473 20.4582 48.6448 20.2638 48.8473C19.8302 49.27 19.9351 49.1409 20.4275 49.189C20.4915 49.4219 20.2856 49.3586 20.1717 49.4738C20.5222 49.7066 20.1807 49.8218 19.9146 49.8319C19.8635 49.856 19.9261 49.9281 19.93 49.9737ZM19.3314 45.4896C19.2444 45.6161 18.986 45.6073 19.0551 45.8136C19.0897 45.9604 19.2035 46.0389 19.3429 46.0895C19.4849 46.1426 19.6115 46.216 19.7496 46.2743C20.3406 46.5198 20.8918 46.9526 21.5595 46.945C21.7897 47.0311 22.0378 46.9121 22.2655 47.021C22.2873 47.0324 22.3192 47.0248 22.3461 47.0248C22.6569 47.0083 22.9588 47.107 23.267 47.102C23.3565 47.1526 23.4563 47.1323 23.5497 47.1564C23.6392 47.2045 23.7441 47.1691 23.8323 47.2209C24.0331 47.2589 24.0152 47.126 24.028 46.9779C24.0958 46.8008 24.0945 46.6109 24.1444 46.4337C24.1917 46.2262 24.2224 46.0173 24.2685 45.8098C24.2979 45.7035 24.2826 45.587 24.3452 45.487C24.3683 45.4491 24.3465 45.3997 24.3069 45.3744C23.5356 45.1554 22.7426 45.02 21.9841 44.7504C21.1489 44.4847 20.3469 44.0822 19.4746 43.9632C19.3451 43.9795 19.2134 43.9665 19.0897 43.9253C18.9477 43.9253 18.8044 43.9189 18.6637 43.9278C18.6227 43.9285 18.5826 43.9401 18.5477 43.9615C18.5128 43.9829 18.4844 44.0132 18.4655 44.0493C18.5742 44.124 18.6458 44.2214 18.7763 44.2518C18.9004 44.2796 19.0359 44.3897 18.949 44.5176C18.5473 44.6568 18.8709 44.615 18.7827 44.9466C18.8684 45.0808 18.9362 44.9567 18.9272 45.2099C18.9976 45.239 19.2086 45.1694 19.2853 45.1339C19.3082 45.1201 19.3339 45.1118 19.3606 45.1096C19.3872 45.1074 19.414 45.1114 19.4388 45.1213C19.4529 45.2415 19.4593 45.2478 19.4107 45.2896C19.3819 45.3139 19.3596 45.3449 19.3457 45.3798C19.3319 45.4146 19.327 45.4524 19.3314 45.4896ZM25.9338 37.2326C25.8635 37.2023 25.7957 37.1972 25.7471 37.22C25.6243 37.2946 25.4861 37.2807 25.3608 37.3225C25.187 37.3656 25.0076 37.3826 24.8287 37.3731C24.7277 37.3769 24.6496 37.4427 24.5448 37.4199C24.257 37.4073 23.9602 37.463 23.6878 37.3731C23.3975 37.3984 23.1212 37.2655 22.836 37.2693C23.2069 37.6845 24.3145 37.5199 24.8581 37.5301C25.1127 37.4415 25.3902 37.4668 25.6409 37.3617C25.7509 37.3111 25.8724 37.3731 25.9338 37.2326ZM23.6916 37.7212C23.785 37.9642 24.2352 37.83 24.4501 37.8604C24.5844 37.8578 24.7226 37.8857 24.853 37.8249C24.9681 37.83 25.0768 37.7819 25.1881 37.7832C25.3237 37.792 25.4452 37.6984 25.5821 37.706C25.6869 37.6857 25.7969 37.6781 25.8673 37.5933C25.7573 37.4946 25.5795 37.6541 25.4184 37.6224C25.3365 37.6794 25.2367 37.644 25.1498 37.6731C25.0039 37.7363 24.8377 37.687 24.6816 37.7034C24.5844 37.6958 24.5038 37.7541 24.4105 37.7414C24.1623 37.7768 23.9372 37.6655 23.6916 37.7212ZM24.28 38.0401C24.335 38.3375 24.7686 38.1274 24.9681 38.1413C25.0794 38.0793 25.2048 38.1262 25.3186 38.0958C25.4329 38.0462 25.5571 38.0229 25.6818 38.0274C25.7458 38.0287 25.756 38.0085 25.7688 37.9173C25.5693 37.887 25.3825 37.9971 25.1804 37.9831C25.1267 37.9831 25.0653 37.9793 25.0218 38.0009C24.7827 38.073 24.5256 38.0009 24.28 38.0401ZM18.6062 44.6986C18.4476 44.7871 18.1687 44.9289 18.335 45.1099C18.4591 45.0631 18.4463 44.9238 18.5333 44.8568C18.5652 44.8314 18.5716 44.7732 18.6062 44.6986ZM38.8688 28.4467C38.7895 28.6694 38.4786 28.7605 38.3111 28.9099C37.9005 29.1757 37.4759 29.4187 37.0743 29.6984C36.986 29.7532 36.922 29.8391 36.8952 29.9388C36.8504 30.1274 36.7366 30.3008 36.6778 30.483C36.5038 30.6045 36.0203 29.9224 35.8361 29.8072C35.7786 29.8199 35.7722 29.8629 35.7875 29.8869C35.8285 29.9565 35.8157 30.0325 35.8259 30.111C35.8975 30.1717 35.9474 30.2578 36.0408 30.3008C36.0753 30.3173 36.0856 30.3805 36.1188 30.3995C36.2813 30.5172 36.569 30.7336 36.5665 30.9425C36.5639 31.0058 36.5614 31.069 36.5921 31.1323C36.6253 31.2374 36.5716 31.3627 36.6355 31.4639C36.665 31.5715 36.6202 31.6917 36.6816 31.7968C36.7097 31.9132 36.6599 32.0474 36.7225 32.1625C36.7455 32.2802 36.7033 32.4106 36.7609 32.5283C36.7826 32.7004 36.8057 32.8814 36.8121 33.0548C36.8415 33.2826 36.899 33.5066 36.8952 33.7357C36.9221 33.9331 36.9694 34.1217 36.9719 34.323C36.9732 34.3862 36.9566 34.4533 37.0077 34.5077C37.0205 34.6432 37.0308 34.7862 37.0564 34.9216C37.0691 35.0228 37.0461 35.1241 37.0909 35.2241C37.1088 35.3038 37.0794 35.3975 37.1203 35.4772C37.1676 35.6139 37.1024 35.7708 37.1753 35.905C37.2009 35.9873 37.1612 36.0923 37.2098 36.1746C37.2226 36.1961 37.2201 36.2265 37.2201 36.253C37.2239 36.3606 37.2086 36.4682 37.2584 36.5707C37.2789 36.6264 37.2457 36.7087 37.2674 36.7631C37.316 36.8618 37.2981 36.9643 37.3019 37.0656C37.3002 37.1245 37.3111 37.1832 37.3339 37.2377C37.3672 37.3073 37.3467 37.3744 37.261 37.4212C37.1331 37.3174 37.018 37.1934 36.9016 37.0782C36.7711 36.8453 36.4143 36.6732 36.4028 36.4214C36.4028 36.3631 36.4053 36.3037 36.3695 36.2505C36.3426 36.1758 36.3733 36.0898 36.3299 36.0151C36.2877 35.8784 36.3452 35.7227 36.2825 35.5848C36.2544 35.4734 36.3017 35.3468 36.248 35.2342C36.2263 35.1886 36.2378 35.1279 36.2352 35.0747C36.2531 34.9469 36.193 34.8368 36.1956 34.7077C36.202 34.6065 36.1406 34.5179 36.1521 34.409C36.147 34.3128 36.1649 34.2166 36.1175 34.123C36.0932 33.9344 36.0613 33.7395 36.0715 33.5471C36.0587 33.4396 36.037 33.3193 36.0229 33.2155C35.9717 33.1421 35.9884 33.0611 35.9845 32.9814C35.9947 32.7283 35.9001 32.4878 35.9078 32.2321C35.9206 32.1587 35.8886 32.0967 35.8668 32.0296C35.8873 31.8563 35.8055 31.693 35.8195 31.5183C35.8451 31.4095 35.785 31.3108 35.7824 31.2019C35.7824 31.1741 35.7901 31.1424 35.7799 31.1209C35.721 31.0032 35.7505 30.8767 35.7415 30.7539C35.7172 30.5514 35.6673 30.359 35.6584 30.154C35.652 30.0527 35.6763 29.9515 35.6238 29.8528C35.6059 29.7287 35.62 29.5085 35.432 29.5237C35.2913 29.5579 34.8474 29.4376 34.8359 29.6288C34.8321 29.9755 34.8193 30.3185 34.8743 30.6602C34.8807 30.7387 34.859 30.8197 34.9127 30.8944C34.9383 30.9577 34.8999 31.0463 34.8487 31.1007C34.8142 31.1057 34.772 31.1032 34.74 31.1184C34.6428 31.1994 34.5609 31.0678 34.4637 31.1311C34.332 31.1943 34.1951 31.05 34.0544 31.1311C33.9751 31.1741 33.901 31.1247 33.8217 31.1133C33.7219 31.1437 33.6656 31.1197 33.5658 31.1791C33.5697 31.2715 33.539 31.369 33.5953 31.4614C33.6234 31.5677 33.5838 31.6867 33.6375 31.7942C33.6656 31.8563 33.6093 31.9208 33.5339 31.9246C33.2729 31.9246 33.012 31.9221 32.7613 32.0043C32.6258 32.0423 32.604 32.2144 32.5746 32.3334C32.5874 32.8485 33.1527 33.0396 33.2781 33.5079C33.2921 33.5509 33.3343 33.5838 33.365 33.6256C33.5096 33.6193 33.6413 33.6788 33.7858 33.6762C34.0915 33.7167 34.387 33.8319 34.6825 33.9167C34.708 33.9256 34.7413 33.9256 34.7579 33.942C34.8423 34.0331 34.9651 34.0812 35.0431 34.1799C35.0943 34.2141 35.1033 34.3318 35.0176 34.309C34.9204 34.2331 34.8385 34.1369 34.7285 34.0749C34.6351 33.9673 34.4829 34.2344 34.3166 34.2331C34.1222 34.2749 33.9291 34.3343 33.7283 34.3268C33.6388 34.3875 33.539 34.3635 33.4431 34.3685C33.2218 34.4065 33.0018 34.4191 32.778 34.4027C32.6513 34.4179 32.5311 34.39 32.416 34.4596C32.4288 34.6571 32.2702 34.7115 32.1487 34.8406C32.0502 34.7659 31.9415 34.6887 31.9108 34.566C31.7995 34.2331 31.2022 34.4748 30.9515 34.5166C30.6279 34.5672 30.2915 34.5938 29.9653 34.5444C29.8205 34.531 29.6783 34.4969 29.5433 34.4432C29.5126 34.4305 29.455 34.4558 29.4588 34.3989C29.4716 34.3483 29.5612 34.3774 29.6008 34.3533C29.5919 34.3065 29.5317 34.2622 29.4218 34.2204C29.3386 34.2749 29.3271 34.3723 29.2875 34.4521C29.3028 34.566 29.2209 34.6672 29.2427 34.7836C29.1839 34.9001 29.2043 35.0254 29.1992 35.1481C29.1941 35.2178 29.1493 35.2785 29.1583 35.3532C29.1839 35.4532 29.1033 35.5342 29.1186 35.6367C29.1148 35.7113 29.1314 35.7873 29.0879 35.8582C29.0662 35.948 29.0943 36.0505 29.0496 36.1429C29.0189 36.2961 29.0726 36.5783 28.827 36.5644C28.6198 36.5201 27.7974 36.6618 27.7654 36.4669C27.8076 36.4264 28.1056 36.1404 27.8907 36.1733C27.8368 36.2258 27.7767 36.2717 27.7117 36.31C27.5902 36.3669 27.5211 36.5201 27.3663 36.4707C27.3536 36.4285 27.3554 36.3832 27.3717 36.3422C27.3879 36.3011 27.4175 36.2666 27.4559 36.2442C27.6106 36.1822 27.7181 36.0569 27.8524 35.9657C27.9547 35.8999 28.1095 35.7797 28.025 35.643C27.8102 35.7379 27.7002 35.9695 27.4802 36.0632C27.2346 35.8822 28.1888 35.5468 28.1325 35.1823C28.1376 34.9621 28.2271 34.7419 28.2143 34.5166C28.2693 34.39 28.231 34.2508 28.2924 34.1268C28.3141 34.0572 28.2834 33.9749 28.3218 33.904C28.3358 33.8775 28.3346 33.8408 28.3358 33.8091C28.3397 33.7395 28.3269 33.6686 28.3691 33.6053C28.3717 33.4497 28.3972 33.2927 28.341 33.1295L28.4471 33.0092C28.3755 32.8953 28.5085 32.7991 28.5008 32.6802C28.4983 32.622 28.4957 32.5637 28.5328 32.5093C28.5674 32.422 28.5136 32.3093 28.5776 32.2258C28.5942 32.0701 28.616 31.9094 28.6492 31.7525C28.6697 31.6057 28.6786 31.4563 28.7068 31.3095C28.7835 31.0943 28.7733 30.9741 28.561 30.8501C28.4586 30.7868 28.3333 30.664 28.3422 30.5337C28.3896 30.4704 28.3627 30.3869 28.4088 30.3198C28.506 30.0679 28.3141 29.6743 28.0161 29.6971C28.002 29.8287 27.9879 29.9565 27.9368 30.0768C27.9361 30.1937 27.9108 30.3092 27.8626 30.416C27.8306 30.5147 27.8575 30.6197 27.8063 30.7134C27.7462 30.8906 27.7616 31.083 27.6823 31.2551C27.6874 31.3816 27.6439 31.4968 27.6106 31.6145C27.594 31.7158 27.6055 31.8196 27.5544 31.9119C27.4738 32.203 27.4571 32.5093 27.3625 32.7979C27.3408 32.913 27.3676 33.0345 27.296 33.1396C27.279 33.167 27.2702 33.1986 27.2704 33.2307C27.2909 33.3826 27.1937 33.5092 27.1885 33.6534C27.2077 33.8142 27.1016 33.9483 27.1028 34.1078C27.0466 34.3116 27.0095 34.5217 26.9647 34.728C26.9609 34.7495 26.943 34.7697 26.9455 34.79C26.9634 34.9241 26.8829 35.0355 26.8598 35.1608C26.8701 35.3089 26.8048 35.4418 26.7741 35.581C26.7537 35.8898 26.6194 36.1606 26.6091 36.4745C26.3175 36.758 26.4211 36.2303 26.1321 36.4555C26.0681 36.4808 25.9914 36.4808 25.944 36.5429C25.9338 36.5555 25.9031 36.5631 25.8839 36.5606C25.7394 36.5543 25.6204 36.658 25.4746 36.6428C25.4363 36.6391 25.4017 36.6555 25.3646 36.6682C25.1728 36.7694 24.9528 36.6732 24.7596 36.7593C24.7341 36.7732 24.6957 36.7656 24.6624 36.7656C24.4412 36.7479 24.2071 36.8061 23.9961 36.734C23.9027 36.7087 23.7863 36.7289 23.6865 36.7226C23.5228 36.7302 23.4179 36.5707 23.2414 36.6049C23.2171 36.534 23.8682 36.5618 23.9449 36.5694C24.2058 36.6745 24.468 36.5365 24.7328 36.5631C24.9157 36.5416 26.4723 36.2733 26.3891 36.0442C26.3628 36.032 26.3336 36.0273 26.3048 36.0304C26.2759 36.0335 26.2485 36.0444 26.2254 36.0619C26.1244 36.1341 25.9914 36.1417 25.8929 36.2214C25.8289 36.2505 25.7304 36.2113 25.6806 36.2821C25.655 36.3138 25.6166 36.3226 25.577 36.3188C25.501 36.3118 25.4245 36.3253 25.3557 36.3581C25.215 36.4176 25.0653 36.3872 24.9195 36.3961C24.8914 36.3961 24.8594 36.3897 24.8377 36.4011C24.6957 36.4783 24.5371 36.4353 24.39 36.4391C24.2608 36.3328 24.0472 36.4745 23.9641 36.3075C23.9833 36.267 24.0191 36.2796 24.0485 36.2783C24.1508 36.2733 24.2531 36.291 24.3529 36.2404C24.4655 36.2214 24.5959 36.2366 24.711 36.2353C24.8824 36.2505 25.0398 36.167 25.2048 36.1568C25.4516 36.1606 25.6652 36.0151 25.9082 35.9898C25.9901 35.9645 26.0579 35.91 26.1487 35.9012C26.6322 35.829 26.4736 35.5405 26.6002 35.1988C26.7281 34.5963 26.8266 33.9838 26.9788 33.3927C27.1834 32.3258 27.4009 31.2753 27.6388 30.2122C27.6324 29.9971 27.7334 29.8325 27.7347 29.6123C27.64 29.4427 27.5544 29.2567 27.3894 29.1352C27.3216 28.9782 27.1527 28.8998 27.076 28.7479C26.9353 28.6074 26.8253 28.4416 26.6769 28.3036C26.3955 27.9493 26.0604 27.6392 25.8008 27.2722C25.724 27.095 26.0118 27.0962 26.118 27.1443C26.205 27.2 26.2779 27.1279 26.3674 27.1241C26.4339 27.1178 26.4979 27.1937 26.5644 27.1266C27.122 27.119 27.681 27.1215 28.2374 27.1241C28.4036 27.1532 28.3218 27.3962 28.4126 27.5063C28.474 27.7974 28.3729 27.9872 28.2719 28.2518C28.3896 28.3619 28.2924 28.5416 28.4599 28.6416C28.5507 28.715 28.671 28.6011 28.6671 28.5011C28.6658 28.4201 28.6569 28.3391 28.7017 28.2631C28.6849 28.1268 28.6545 27.9924 28.6108 27.8619C28.5993 27.8406 28.5931 27.8168 28.5926 27.7926C28.5922 27.7684 28.5976 27.7445 28.6083 27.7227C28.6364 27.643 28.616 27.5531 28.6505 27.4721C28.6799 27.338 28.6377 27.1241 28.8398 27.1228H33.9739C34.1401 27.1165 34.1913 27.2582 34.1785 27.4013C34.167 27.5367 34.2489 27.6594 34.2399 27.7961C34.2079 27.9126 34.1823 28.0328 34.1542 28.1518C34.0903 28.2568 34.1887 28.3581 34.1798 28.4644C34.1606 28.7302 34.4919 28.6947 34.4676 28.4353C34.4484 28.334 34.5955 28.2885 34.5315 28.1872C34.4445 27.9948 34.3102 27.7936 34.4266 27.5873C34.41 27.4759 34.4727 27.3772 34.4714 27.2684C34.4663 27.176 34.5405 27.1013 34.6364 27.1228C34.873 27.1165 35.1033 27.1165 35.3335 27.1633C35.9449 27.1684 36.5588 27.176 37.1587 27.1102C37.4145 26.9785 37.6997 27.5025 37.9133 27.5873C38.2254 27.8835 38.5528 28.153 38.8688 28.4467ZM29.7914 34.3888C29.8272 34.3812 29.8681 34.4255 29.9219 34.3673C29.8285 34.371 29.7901 34.4255 29.785 34.3331C29.7006 34.3027 29.7249 34.3736 29.7914 34.3888ZM29.7556 33.6965C29.8131 33.7724 29.8438 33.918 29.9602 33.8699C30.2045 33.7661 30.4693 33.6863 30.734 33.6661C30.9592 33.5724 31.2111 33.6901 31.4414 33.594C31.4682 33.5826 31.5053 33.5914 31.5386 33.5914C31.6946 33.5775 32.1231 33.6648 31.8839 33.4092C31.6447 33.0371 31.1497 32.9232 30.7507 32.7865C30.4898 32.6979 30.7916 32.4663 30.7967 32.0499C30.8274 31.7677 30.862 31.4639 30.8428 31.1804C30.6918 31.0488 30.6701 31.1652 30.5332 31.1374C30.3641 31.098 30.1884 31.0946 30.0178 31.1273C29.9436 31.145 29.8617 31.1728 29.7914 31.1273C29.6724 31.188 29.7044 31.2918 29.6891 31.3905C29.6469 31.4715 29.6584 31.5576 29.6507 31.6436C29.6098 31.8588 29.5804 32.0765 29.574 32.2929C29.5727 32.3081 29.574 32.3271 29.5663 32.3397C29.5036 32.4359 29.5548 32.5574 29.5254 32.6561C29.4678 32.7473 29.4908 32.8447 29.487 32.9396C29.5074 33.0459 29.3936 33.251 29.5509 33.2687C29.7479 33.3345 30.2519 33.2358 29.8835 33.5446C29.9462 33.6345 29.8221 33.656 29.7556 33.6965ZM34.0404 29.2275C34.0404 29.2048 34.0442 29.1883 34.0404 29.1858C33.8587 29.0504 34.1261 28.6352 33.7897 28.6289H29.0994L28.7247 28.9972C28.6517 29.0766 28.5571 29.1333 28.4522 29.1605C28.4228 29.1668 28.3934 29.1908 28.4088 29.2326C28.598 29.2478 33.9086 29.244 34.0404 29.2275ZM28.671 29.5921C28.6646 29.8376 28.6019 30.0983 28.9293 30.0515C30.7481 30.0527 32.5887 30.0515 34.3908 30.0489C34.6748 30.0515 34.6697 29.5085 34.3921 29.5262C32.4953 29.5857 30.5371 29.4047 28.671 29.5921ZM36.1086 28.7745C36.2186 28.6555 36.4207 28.6985 36.5319 28.5909C36.7264 28.3315 36.6611 27.91 36.9425 27.7063C37.1958 27.6139 37.1753 27.6987 37.3838 27.6885C37.8468 27.7999 37.504 27.5696 37.371 27.4126C37.1753 27.3658 37.073 27.5354 36.9323 27.6329C36.7622 27.7379 36.6228 27.886 36.4552 27.986C36.3785 28.0796 36.2467 28.129 36.2288 28.2707C36.1521 28.4429 35.9692 28.4315 35.8118 28.4226C35.6635 28.3239 35.5842 28.1518 35.3834 28.2328C35.3578 28.2986 35.3783 28.377 35.3105 28.4251C35.0431 28.6745 34.6837 28.7833 34.4305 29.0491C34.3844 29.106 34.3294 29.1617 34.2425 29.1655C34.1261 29.2389 34.2987 29.2465 34.3678 29.2415C35.8438 29.2529 35.4013 29.0516 36.4501 30.0831C36.6893 30.2843 36.468 29.5326 36.6317 29.444C36.7596 29.4263 36.8965 29.4756 37.0205 29.4364C37.4848 29.3604 37.2955 28.677 37.6652 28.4568C37.837 28.4085 38.019 28.4085 38.1909 28.4568C38.2548 28.4796 38.3252 28.4644 38.3942 28.4302C38.2305 28.2593 38.0233 27.9872 37.811 28.2581C37.5884 28.4188 37.3518 28.5618 37.1523 28.7479C36.9489 28.8656 36.954 28.9225 36.8453 29.1023C36.7558 29.2377 36.4386 29.2465 36.3478 29.0959C36.2659 28.9833 36.1508 28.9276 36.1086 28.7745ZM28.254 29.2377C28.1235 28.8327 28.4049 28.5644 27.7782 28.6302C27.5991 28.6454 27.7078 29.0149 27.6835 29.144C27.6976 29.3212 28.1018 29.2162 28.254 29.2377ZM29.4345 34.0686C29.5727 34.1572 29.6059 34.1648 29.7274 34.1407C29.6507 34.0749 29.5573 34.0774 29.4345 34.0686ZM29.4959 33.4054C29.5215 33.5421 29.5957 33.4712 29.675 33.4446C29.6238 33.3661 29.5586 33.3953 29.4959 33.4054ZM37.2827 24.6093C37.2891 24.7207 37.38 24.77 37.4554 24.846C40.1887 24.8991 43.0192 24.7447 45.7052 24.9004C43.9939 25.1206 42.0574 24.8358 40.2911 25.0054C39.3753 25.0396 38.4723 24.951 37.5641 24.975C37.5488 25.0573 37.6191 25.1003 37.6537 25.1649C37.8008 25.3864 38.1154 25.2054 38.3431 25.251C40.7809 25.2573 43.2201 25.2383 45.6579 25.2573C45.7129 25.2712 45.7244 25.3459 45.6643 25.3661C44.471 25.3763 43.2597 25.48 42.0702 25.375C41.3859 25.3585 40.6863 25.4003 40.0173 25.375C39.8536 25.3978 39.6976 25.4307 39.5313 25.4079C39.4239 25.3345 39.3241 25.4155 39.2192 25.4041C38.7933 25.3016 38.3277 25.4535 37.9005 25.3383C37.834 25.4902 37.9415 25.575 38.0156 25.6965C38.1691 25.7091 38.3226 25.6977 38.4748 25.7003C40.772 25.5737 43.1088 25.6965 45.4187 25.656C45.5083 25.6623 45.6669 25.6218 45.6848 25.7408C45.6771 25.7939 45.6183 25.8319 45.5645 25.8243C44.0335 25.8395 42.5012 25.7939 40.9728 25.842C41.0598 25.8623 41.1391 25.9116 41.2337 25.9002C41.6021 25.9306 41.9551 26.0597 42.3235 26.0989C43.1459 25.9901 43.9977 26.1369 44.8201 26.0356C45.0862 26.0154 45.6208 25.7585 45.805 25.9635C45.8293 26.1027 45.8485 26.3343 45.6797 26.3875C45.3215 26.4609 44.9762 26.5811 44.6308 26.6912C44.306 26.8469 43.9683 26.9773 43.6575 27.1595C43.4963 27.2544 43.2942 27.4 43.1433 27.2266C42.7302 26.8785 42.2262 26.6735 41.7146 26.514C41.5087 26.5052 41.3207 26.4014 41.1173 26.3875C40.9472 26.3963 40.7899 26.3305 40.6147 26.3495C40.2949 26.3242 39.9521 26.2685 39.6285 26.3495C39.4546 26.3369 39.296 26.3685 39.1258 26.39C39.0427 26.3685 38.9672 26.4001 38.8892 26.428C38.6436 26.428 38.4185 26.533 38.1768 26.5545C38.1423 26.5545 38.1423 26.5609 38.0821 26.6431C38.4198 27.0051 38.7984 27.3456 39.1476 27.7025C39.3625 27.8759 39.6963 28.0657 39.2857 28.2606C38.9481 28.4441 38.6206 27.8455 38.3802 27.681C38.2945 27.6 38.1896 27.5392 38.1064 27.4531C38.0591 27.4025 38.0233 27.338 37.9466 27.319C37.9351 27.3152 37.9274 27.2937 37.9197 27.281C37.7496 27.1228 37.5667 26.9646 37.403 26.795C37.3595 26.752 37.3736 26.7482 37.2687 26.7773C37.2943 27.0861 37.0487 27.0443 36.8248 27.0405C34.1222 26.9735 31.3659 27.0836 28.639 27.0405C28.2182 27.0659 27.7756 26.9912 27.3663 27.0709C27.1681 27.0899 26.9762 27.0456 26.7844 27.0405H25.6908C25.6128 26.9646 25.5271 26.8912 25.4516 26.8064C25.38 26.7115 25.3275 26.5318 25.522 26.5533C29.4384 26.4406 33.5595 26.7684 37.3787 26.4394C33.4392 26.2888 29.2862 26.4419 25.2764 26.3862C25.2009 26.3812 25.1843 26.3546 25.1817 26.2508C25.3659 26.1344 25.5386 25.9926 25.7317 25.8914C26.3239 25.556 26.8944 25.1738 27.4878 24.8384C29.0419 23.86 30.6164 22.9032 32.1781 21.9274C32.2996 21.8388 32.4006 21.8553 32.5158 21.9578C32.7716 22.2109 33.0568 22.4223 33.3318 22.645C34.1798 23.3715 35.047 24.0727 35.895 24.8067C36.4987 25.299 37.0973 25.7964 37.6908 26.3002C37.8353 26.3533 37.9274 26.2495 38.0489 26.204C38.0284 26.1571 38.0169 26.1154 37.9939 26.0812C37.8033 25.7863 37.5744 25.5231 37.3646 25.2497C37.2325 25.1299 37.1126 24.9977 37.0065 24.8548C36.8479 24.6675 36.6432 24.5295 36.4693 24.3638C36.3708 24.1891 35.4819 23.7563 36.0127 23.6993C36.3324 23.674 36.5243 23.9372 36.7558 24.1132C37.7739 24.0954 38.8048 24.1486 39.8165 24.0942C40.2604 24.141 40.7208 24.103 41.171 24.1132C41.3782 24.1309 41.5778 24.0195 41.7786 24.1056C43.0794 24.1701 44.439 24.0233 45.718 24.1587C43.1472 24.3435 40.2693 24.246 37.6294 24.1904C37.293 24.184 36.5089 24.1347 37.2367 24.5042C40.0337 24.4025 42.8334 24.394 45.6311 24.4789C45.7654 24.4954 45.6976 24.6283 45.5901 24.6017C42.8376 24.6131 39.9866 24.5814 37.2827 24.6093ZM29.7198 24.1397C31.2892 24.241 32.9468 24.0018 34.4804 24.2283C34.4292 24.2929 34.3908 24.3549 34.3013 24.3549C32.6552 24.3587 31.009 24.3562 29.3642 24.3549C29.2632 24.3549 29.1685 24.3549 29.0892 24.4308C28.9805 24.4941 28.8615 24.5232 28.7694 24.6321C30.8185 24.7713 32.9826 24.6194 35.0367 24.6827C35.1071 24.6953 35.0751 24.7763 35.0738 24.8308C32.9378 24.8751 30.7929 24.8308 28.653 24.846C28.3141 24.8282 28.1465 24.9396 27.8728 25.1307C30.4284 25.2345 33.0299 25.1282 35.6021 25.1687C35.6293 25.1715 35.6545 25.1845 35.6725 25.2049C35.6905 25.2253 35.7001 25.2517 35.6993 25.2788C33.2154 25.5585 30.3977 25.2788 27.8255 25.3737C27.4546 25.3522 27.2896 25.4092 26.9749 25.6104C30.028 25.7408 33.1617 25.6117 36.239 25.656C36.3068 25.6977 36.326 25.7521 36.3388 25.8205C33.108 25.9534 29.8119 25.8028 26.5644 25.8711C26.4109 25.9154 26.2651 26.0154 26.1257 26.0901C26.1231 26.1989 26.4659 26.123 26.5465 26.1458C26.5848 26.1458 26.6309 26.1369 26.659 26.1533C26.808 26.2084 26.9716 26.2107 27.122 26.1597C27.1988 26.1141 27.2614 26.2141 27.3395 26.1888C27.4162 26.1825 27.4904 26.1356 27.5697 26.1863C27.7142 26.1495 27.8639 26.1141 28.0122 26.1711C30.9528 26.0977 33.9547 26.1711 36.8901 26.1458C36.9451 26.1432 37.0781 26.1571 37.0372 26.0774C36.367 25.5737 35.73 25.0295 35.0815 24.4979C34.9395 24.4232 34.8334 24.2941 34.7029 24.1992C34.552 24.0676 34.3768 23.9676 34.2399 23.8246C34.1734 23.7487 34.0711 23.7233 34.0135 23.6423C33.5876 23.2829 33.131 22.95 32.7076 22.5919C32.5695 22.4691 32.3635 22.2742 32.3572 22.5881C32.4825 22.6438 32.6219 22.6438 32.5567 22.8108C32.2229 22.8058 31.8916 22.7754 31.6076 22.9804C31.1369 23.2778 32.8035 23.088 32.9609 23.1374C33.076 23.1348 33.1988 23.1247 33.2167 23.2791C32.558 23.4297 31.82 23.2905 31.1344 23.3373C30.9963 23.293 30.2966 23.6664 30.7699 23.6246C31.7048 23.6246 32.6398 23.6272 33.5748 23.6246C33.6976 23.6348 33.8818 23.6348 33.8268 23.8195C32.7063 23.8373 31.5718 23.8056 30.4591 23.8335C30.3715 23.8164 30.2815 23.8171 30.1942 23.8354C30.107 23.8536 30.0243 23.8891 29.9513 23.9398C29.8617 23.9486 29.8131 24.0195 29.7402 24.0524C29.7108 24.0651 29.6929 24.098 29.7198 24.1397ZM44.2305 26.1976C43.9243 26.1724 43.6162 26.1817 43.3121 26.2255C43.0832 26.2381 42.8632 26.1673 42.6304 26.1913C42.39 26.2862 43.1165 26.5128 43.2213 26.4735C43.4835 26.4799 43.7381 26.4735 43.9888 26.3888C44.0642 26.3267 44.274 26.3305 44.2305 26.1989V26.1976ZM39.8498 25.8483C39.7653 25.7947 39.6632 25.7752 39.5646 25.7939C39.4968 25.7623 39.4251 25.7775 39.3561 25.7762C38.9212 25.7737 38.4978 25.7888 38.0719 25.7509C38.1103 25.9002 38.1883 26.1533 38.3814 26.0951C38.462 26.0597 38.5413 26.0673 38.6219 26.0648C38.7396 26.0673 38.8457 25.9838 38.9647 25.9888C39.1335 25.9787 39.2896 25.8977 39.4546 25.9002C39.5888 25.9099 39.7237 25.8926 39.8511 25.8496L39.8498 25.8483ZM43.5577 26.5837C43.4899 26.5216 43.3185 26.5647 43.2213 26.5634C43.1983 26.6052 43.2712 26.6596 43.3019 26.69C43.3978 26.7672 43.4848 26.6381 43.5577 26.5837ZM31.8238 55.7563C31.843 55.7373 31.8622 55.7133 31.8865 55.7044C31.9926 55.6665 32.0463 55.5551 32.1346 55.4981C32.2676 55.4386 32.3392 55.3058 32.4544 55.226C32.5618 55.1703 32.6309 55.064 32.7281 54.9982C32.8918 54.8894 33.0325 54.74 33.1885 54.6185C33.3279 54.5502 33.4111 54.4097 33.5275 54.3198C33.9854 53.9693 34.4356 53.5908 34.8615 53.1985C35.2708 52.8568 35.7044 52.5404 36.0766 52.1607C36.115 52.1278 36.1175 52.0847 36.0894 52.0354C35.0662 52.0164 34.0378 52.0354 33.012 52.0291C30.3721 52.1063 27.7066 52.0797 25.0564 52.1037C24.7213 52.1101 25.1178 52.4075 25.2227 52.5037C25.3288 52.6049 25.4196 52.7264 25.5386 52.8074C25.8328 53.0416 26.0732 53.3276 26.37 53.5554C26.5158 53.6883 26.6462 53.8516 26.8023 53.9731C26.8649 53.9908 26.902 54.0389 26.9417 54.0819C27.0351 54.1857 27.1463 54.2262 27.287 54.2249C28.9383 54.2186 30.5895 54.2249 32.2408 54.2236C32.3047 54.2236 32.3699 54.2173 32.4313 54.2325C32.4697 54.3819 32.4723 54.4173 32.4045 54.5109C32.3263 54.6351 32.217 54.7371 32.0873 54.8071C31.9363 54.9691 31.7253 54.8033 31.5424 54.8312C31.1395 54.8198 30.7571 54.9438 30.3606 54.9906C29.9679 55.0919 29.4269 54.6274 29.1416 55.0337C29.0841 55.1185 29.079 55.2982 28.937 55.2311C28.8053 55.1741 28.6671 55.2045 28.5405 55.2463C28.355 55.2741 28.2821 55.3108 28.4292 55.4716C28.5827 55.6449 28.7733 55.7804 28.9434 55.936C29.0713 56.031 29.2759 55.9449 29.4281 55.974C29.5919 56.1449 29.4857 56.4069 29.7543 56.46C29.8899 56.3461 29.9948 56.1575 30.1828 56.1335C30.5204 56.0575 30.6816 56.298 30.8556 56.541C31.2303 56.3132 31.4951 56.0221 31.8238 55.7563ZM29.6417 57.1181C29.4755 56.9739 29.345 56.7891 29.148 56.6752C28.9216 56.4334 28.6684 56.2297 28.4318 56.0031C28.3474 55.9183 28.2706 55.8221 28.1734 55.7563C27.9572 55.607 27.7999 55.3956 27.6017 55.2286C27.3267 55.0514 27.154 54.7603 26.8726 54.5882C26.2216 53.9338 25.5079 53.344 24.8505 52.7024C24.7481 52.5796 24.6074 52.5049 24.4962 52.3948C24.4028 52.3353 24.3299 52.1518 24.2007 52.205C24.0907 52.3847 24.1048 52.6074 24.0536 52.8049C24.0025 52.9732 24.0076 53.1567 23.9423 53.3175C23.9257 53.5276 23.9206 53.563 24.1252 53.5769C24.2097 53.6389 24.2736 53.7427 24.1956 53.8326C23.9909 54.1616 24.4399 53.9541 24.5077 54.254C24.5767 54.616 23.9654 54.2604 23.9014 54.5527C23.8541 54.7476 23.7019 54.897 23.6187 55.0704C23.5676 55.2982 23.3655 55.7766 23.8106 55.5234C23.8745 55.488 23.9449 55.4576 23.9858 55.3906C24.0728 55.3678 24.0434 55.2551 24.1176 55.221C24.4731 55.4019 24.3938 55.1007 24.5806 55.1703C24.7865 55.2551 24.9745 55.2045 24.8044 55.4817C24.7532 55.6462 24.8735 55.7677 25.0001 55.8487C25.1181 55.811 25.2222 55.7397 25.2994 55.6437C25.4094 55.6374 25.3429 55.8145 25.3403 55.8766C25.3531 55.9677 25.2853 56.0335 25.2917 56.1259C25.3058 56.3056 25.27 56.4803 25.2534 56.6537C25.2521 56.7802 25.1971 56.8929 25.215 57.0207C25.2137 57.0688 25.2252 57.1245 25.206 57.165C25.1459 57.2915 25.1804 57.4181 25.1792 57.5535C25.4247 57.6915 25.7061 57.7687 25.976 57.8446C26.3175 58.0117 26.2574 57.6396 26.2881 57.4396C26.3482 57.327 26.3086 57.2055 26.3354 57.0928C26.3738 57.0321 26.3674 56.9663 26.3623 56.903C26.3623 56.7486 26.4109 56.5954 26.4134 56.4423C26.494 56.3259 26.4173 56.1702 26.4595 56.0474C26.4979 55.8411 26.5337 55.6361 26.5286 55.4273C26.549 55.3513 26.581 55.2868 26.5695 55.207C26.5695 55.0906 26.6283 54.9919 26.6117 54.8742C26.59 54.7096 26.7677 54.7451 26.8355 54.8299C27.1092 55.1058 27.4239 55.3387 27.6848 55.6323C27.8025 55.7538 27.5978 55.8639 27.4814 55.8538C27.4405 55.85 27.3932 55.8411 27.3548 55.8841C27.3855 56.0056 27.4981 56.0993 27.4776 56.2385C27.4725 56.3461 27.4776 56.4537 27.4776 56.5587C27.5838 56.6764 27.7014 56.8865 27.8741 56.7334C28.3333 56.2499 28.4791 56.8156 28.7989 56.7802C28.9651 56.6676 29.2005 57.046 29.3361 57.1472C29.4077 57.2257 29.5126 57.2548 29.5752 57.3409C29.6319 57.4032 29.7036 57.4502 29.7837 57.4776C29.9705 57.3611 29.7453 57.2029 29.643 57.1194L29.6417 57.1181ZM31.1254 57.2131C31.2137 57.2649 31.1843 57.4067 31.3096 57.4333C31.6422 57.2219 31.889 57.0599 32.2842 57.2536C32.3802 57.2991 32.4735 57.3978 32.5848 57.389C32.8278 57.3168 32.7856 57.0422 32.7664 56.8473C32.7281 56.66 32.6142 56.5157 32.8189 56.3866C32.8777 56.1271 32.4825 56.2411 32.4083 56.0537C32.448 55.9652 32.5362 55.9449 32.5938 55.8917C32.7178 55.7791 32.8304 55.6576 32.9685 55.5589C33.3164 55.2513 33.4495 55.126 33.9508 55.2298C34.0915 55.2412 34.2246 55.2944 34.3166 55.4045C34.4676 55.5184 34.2425 55.8399 34.5315 55.7589C34.6697 55.7247 34.8129 55.6449 34.9536 55.7259C35.1595 55.8133 35.0981 56.0044 35.1877 56.1639C35.6609 56.2271 35.5164 56.7081 35.7415 56.3815C35.7614 56.3369 35.7932 56.2984 35.8336 56.2703C35.8739 56.2422 35.9212 56.2255 35.9704 56.2221C36.0231 56.2164 36.0739 56.1995 36.1194 56.1727C36.1648 56.1458 36.2039 56.1096 36.2339 56.0664C36.2339 55.9576 36.2275 55.6044 36.381 55.6095C36.8057 55.5842 36.7443 55.3121 36.4399 55.1362C36.2531 54.9931 36.4373 54.84 36.4603 54.6679C36.4399 54.6552 36.4232 54.6362 36.4053 54.635C36.2224 54.6071 36.0139 54.4236 36.0958 54.2249C36.3158 54.2249 36.5332 54.2224 36.7519 54.2249C37.0807 54.2515 36.9489 53.906 36.9655 53.6858C36.8978 53.5731 36.9553 53.4377 36.9246 53.3213C36.8824 53.2377 36.899 53.1517 36.8952 53.0669C36.9041 52.9099 36.83 52.7758 36.8517 52.6214C36.8607 52.5075 36.7929 52.4151 36.8082 52.305C36.8197 51.8493 36.4399 52.3088 36.2966 52.4189C36.1572 52.4986 36.0766 52.6467 35.9449 52.7315C35.8042 52.8175 35.707 52.9542 35.5829 53.0542C35.455 53.1124 35.3821 53.2365 35.2759 53.3149C35.1953 53.3453 35.1455 53.4111 35.0879 53.4668C34.9945 53.5845 34.8666 53.6554 34.7592 53.7516C34.52 53.9946 34.2501 54.2021 33.9956 54.4249C33.938 54.497 33.8498 54.516 33.7948 54.5856C33.7347 54.6476 33.6797 54.7223 33.6068 54.7641C33.4955 54.8274 33.4162 54.9223 33.3254 55.0071C33.1361 55.2007 32.8995 55.3374 32.7127 55.5323C32.503 55.7563 32.2344 55.912 32.022 56.136C31.6831 56.4157 31.3505 56.7144 31.0193 57.0042C30.9464 57.1283 30.523 57.3194 30.6138 57.4649C30.8504 57.57 30.9208 57.227 31.1267 57.2118L31.1254 57.2131ZM18.9413 28.8314C18.9119 28.8757 18.8645 28.9213 18.8633 28.9694C18.8556 29.1428 18.6995 29.2377 18.6765 29.406C18.6445 29.5313 18.5819 29.7718 18.4105 29.7224C18.3107 29.6591 18.193 29.7085 18.092 29.6781C18.0153 29.6338 17.9334 29.6452 17.8528 29.6439C17.51 29.6794 17.0509 29.4781 17.2018 30.0173C17.2338 30.1363 17.3553 30.0768 17.4371 30.0553C17.5829 30.0198 17.7403 30.0236 17.8848 29.997C18.0165 29.9414 18.1662 29.9869 18.3069 29.9717C18.344 29.9705 18.3862 29.9717 18.4182 29.954C18.5294 29.8692 18.6369 30.0363 18.7341 29.9312C18.9605 29.6528 19.0845 29.2934 19.3096 29.0073C20.3329 27.4759 22.057 26.2799 23.9065 25.985C23.9781 25.9762 24.0357 25.9293 24.1112 25.9433C24.1368 25.942 24.17 25.9483 24.1918 25.9369C24.2774 25.8863 24.3708 25.904 24.4629 25.9028C24.6676 25.8838 24.9323 25.9622 25.082 25.7888C25.6972 25.1054 26.3367 24.422 27.0824 23.8689C27.1898 23.6373 26.8074 23.7157 26.6961 23.7056C26.4186 23.8512 26.2651 24.179 25.9159 24.1144C23.0649 24.1562 20.15 24.0347 17.3297 24.1575C18.4859 24.2828 19.7368 24.0916 20.8944 24.2385C21.4393 24.2055 22.0135 24.3081 22.5405 24.1967C22.8475 24.1663 23.1724 24.2131 23.4768 24.2119C23.7556 24.1688 24.0421 24.1904 24.3235 24.198C24.5102 24.2321 24.7034 24.2612 24.8901 24.2182C25.2124 24.1815 25.5424 24.1891 25.8737 24.1904C25.9645 24.1726 26.0297 24.2372 25.9696 24.3169C25.9168 24.3857 25.846 24.4391 25.765 24.4713C25.71 24.4928 25.6716 24.522 25.6626 24.5852C25.6243 24.6941 25.5066 24.7637 25.4324 24.8485C22.74 24.8535 20.0477 24.8358 17.3553 24.8548C17.3246 24.8573 17.299 24.8763 17.3092 24.9257H19.6882C21.2998 24.994 22.9677 25.0067 24.5767 24.9257C24.7213 24.932 24.876 24.913 25.018 24.9333C25.105 24.9915 25.1971 24.9459 25.2892 24.9864C25.2009 25.299 24.9144 25.3357 24.6369 25.2712C23.9372 25.2649 23.2043 25.337 22.5047 25.2522C20.8279 25.3193 18.885 25.1231 17.3386 25.3193C19.8328 25.5028 22.4331 25.2864 24.9298 25.3383C25.0244 25.3244 24.9873 25.4193 24.9656 25.4775C24.9221 25.6332 24.7737 25.6699 24.6279 25.6572C23.9845 25.6598 23.3169 25.6344 22.6965 25.7268L22.7669 25.7572C22.607 25.8762 22.4267 25.8888 22.2502 25.9673C22.0673 26.0293 21.8908 26.1141 21.6912 26.109C21.5172 26.3236 21.266 26.4633 20.9903 26.4989C20.9903 26.5748 21.0133 26.6077 20.9264 26.6596C20.7319 26.79 20.6833 26.8874 20.4135 26.8836C20.5542 27.0836 20.4199 26.9887 20.3533 27.1367C20.2817 27.2684 20.0336 27.238 20.0272 27.4152C19.9402 27.5354 19.8225 27.6683 19.6742 27.7126C19.6691 27.7531 19.6767 27.8113 19.6524 27.8341C19.5859 27.8948 19.5527 27.9822 19.4721 28.0341C19.293 28.1404 19.3352 28.3986 19.1037 28.4796C19.1498 28.6188 18.9924 28.715 18.9413 28.8314ZM22.8193 35.0216V35.0798C22.6838 35.1051 22.5763 35.2089 22.4356 35.2317C22.3461 35.2608 22.2617 35.2494 22.1952 35.3329C22.2745 35.3633 22.3576 35.3279 22.4459 35.3633C22.3064 35.5202 22.1082 35.4506 21.947 35.5607C22.0212 35.6152 22.1159 35.5481 22.1594 35.6215C22.1389 35.6949 22.0187 35.6936 21.9598 35.7303C21.8447 35.7455 21.7258 35.7683 21.6106 35.7886C21.3318 35.8139 21.0645 35.7405 20.7921 35.705C20.5938 35.6506 20.6411 35.5607 20.833 35.5873C20.9353 35.5835 20.9852 35.5671 20.9673 35.5392C20.8611 35.4506 20.6961 35.5569 20.5785 35.4747C20.5222 35.4266 20.4531 35.419 20.3828 35.4114C20.315 35.3317 20.2165 35.3481 20.1359 35.3418C20.0809 35.2253 20.2318 35.2671 20.3099 35.2481C20.2664 35.1798 20.2101 35.1621 20.141 35.1532C19.985 35.1532 19.8775 35.0292 19.7317 35.0089C19.7228 35.0089 19.71 34.9836 19.7113 34.971C19.742 34.9077 19.8443 34.938 19.9031 34.9216C19.8993 35.0355 19.9939 35.0153 20.0758 35.0102C20.1653 34.9153 19.953 34.9355 19.898 34.9254C19.7803 34.7583 19.5207 34.7824 19.3953 34.6343C19.4849 34.6065 19.4849 34.6052 19.5437 34.6343C19.6524 34.6887 19.7752 34.7039 19.8839 34.7672C20.1103 34.7583 20.1333 34.8798 20.3354 34.8457C20.3687 34.7482 19.9095 34.6938 19.8046 34.5925C19.7624 34.5103 19.9287 34.5115 19.9645 34.5672C20.0029 34.6065 20.0489 34.6103 20.0988 34.609C20.2715 34.5571 20.5132 34.7862 20.5388 34.6343C20.4749 34.5647 20.4019 34.5153 20.2996 34.5293C20.2536 34.5394 20.219 34.4723 20.2664 34.4533C20.3418 34.4419 20.4199 34.4242 20.4876 34.471C20.6117 34.5546 20.7435 34.5343 20.8739 34.5217C20.9123 34.4369 20.8317 34.4419 20.801 34.4166C20.7678 34.3862 20.7204 34.3711 20.6744 34.347C20.7908 34.2951 20.9353 34.3356 21.0619 34.323C21.0786 34.323 21.099 34.3217 21.1105 34.3306C21.1873 34.39 21.2768 34.3685 21.3625 34.3685C21.5109 34.3964 21.9125 34.3078 21.9867 34.4242C21.8805 34.4609 21.7616 34.471 21.6516 34.5634C21.8818 34.5989 22.0903 34.4495 22.2847 34.5824C22.1453 34.6406 22.0545 34.6976 21.9048 34.7052C22.0698 34.776 22.1568 34.6925 22.2975 34.6925C22.4382 34.7254 22.5379 34.5799 22.671 34.6178C22.7541 34.6647 22.5418 34.7824 22.4893 34.7786C22.4791 34.7786 22.4689 34.8064 22.451 34.8355C22.6965 34.8178 22.8679 34.6976 23.0803 34.6153C23.1954 34.5837 23.2478 34.4609 23.377 34.4508C23.3923 34.5001 23.3399 34.5179 23.3258 34.5546C23.2325 34.7672 22.9677 34.7697 22.8193 34.9267L22.8232 34.9241C22.7375 34.9267 22.6825 34.9241 22.6339 35.0115L22.8232 35.0254L22.8193 35.0216ZM22.0263 35.3519H20.9647C21.1655 35.3962 21.3356 35.462 21.5339 35.3899C21.7194 35.4013 21.8396 35.4658 22.0263 35.3519ZM20.7473 35.3443C20.668 35.2076 20.5222 35.2747 20.3968 35.2608C20.3661 35.4089 20.6437 35.3228 20.7486 35.3443H20.7473ZM20.6603 35.1241C20.7371 35.138 20.8138 35.181 20.8893 35.176C21.0172 35.0747 20.714 35.0874 20.6603 35.1241ZM20.6936 34.6748C20.7601 34.771 20.8854 34.7267 20.9826 34.7204C20.8854 34.7052 20.7831 34.6305 20.6936 34.6748ZM20.3431 35.0191C20.2075 35.0089 20.205 35.1051 20.3457 35.0963C20.4314 35.1152 20.4774 35.014 20.3431 35.0191ZM22.0916 35.1304C22.0916 35.119 22.089 35.1076 22.0864 35.0975C22.0583 35.1102 22.0225 35.0811 21.9841 35.1304H22.0916ZM22.552 35.0266C22.4279 34.9849 22.3653 35.0975 22.4957 35.0937C22.5277 35.0874 22.5559 35.0747 22.552 35.0266ZM20.6846 34.8874C20.6309 34.8608 20.5785 34.8495 20.4915 34.8874H20.6833H20.6846ZM22.2003 34.8697C22.2028 34.9077 22.2732 34.8874 22.3026 34.8862C22.3 34.852 22.2284 34.8786 22.2003 34.8697ZM34.2437 58.4572C34.3205 58.4521 34.3972 58.466 34.465 58.4192C34.5993 58.423 34.6876 58.3433 34.772 58.2572C34.9741 58.1028 35.1583 57.9155 35.3412 57.7294C35.588 57.5674 35.7556 57.3168 35.996 57.151C36.2263 56.9739 36.3951 56.722 36.6458 56.5638C36.9502 56.236 37.3493 56.0993 37.1139 55.6158C37.0372 55.5931 36.9796 55.612 36.9246 55.6741C36.8172 55.7943 36.688 55.8955 36.5614 55.9968C36.2787 56.2727 35.9692 56.5182 35.6993 56.8068C35.5087 56.8966 35.4102 57.1029 35.2388 57.2118C35.0649 57.3599 34.8871 57.5105 34.7336 57.6851C34.6134 57.8319 33.8958 58.3281 33.9892 58.4901C34.0787 58.5116 34.1555 58.461 34.2437 58.4572ZM38.0821 53.625C38.1167 53.7351 38.187 53.8351 38.1794 53.9591C38.1819 54.0072 38.2369 54.0553 38.2459 54.1047C38.2702 54.2907 38.3559 54.4591 38.4019 54.6388C38.4531 54.8337 38.5132 54.8413 38.6577 54.6945C38.769 54.6122 38.847 54.4413 38.9928 54.4287C39.0644 54.4299 39.1898 54.5274 39.1898 54.5957C39.241 54.8236 38.9813 55.6703 39.4341 55.1362C39.6042 54.9311 39.7679 54.7185 39.9368 54.5135C39.8792 54.4148 39.7922 54.3527 39.7001 54.2857C39.2857 53.968 38.856 53.6604 38.4428 53.3364C38.2804 53.2377 38.1563 53.0656 37.976 53.0074C37.9325 53.2276 38.0451 53.4162 38.0821 53.625ZM38.7882 56.7562C38.7907 56.6587 38.7383 56.5828 38.7038 56.4992C38.5145 55.7297 38.242 54.9932 38.0387 54.2249C38.0297 54.0452 37.8366 54.0692 37.9069 54.2452C37.9248 54.2793 37.9159 54.3287 37.9184 54.3717C37.9184 54.5616 37.9056 54.7476 37.9581 54.9324C37.9632 55.0387 37.9402 55.1476 38.0016 55.2488C38.0144 55.2678 38.0067 55.3007 38.0067 55.3273C38.0131 55.4488 37.9939 55.5817 38.0144 55.6994C38.0527 55.7715 38.0412 55.8462 38.0438 55.9221C38.0323 56.0424 38.0566 56.155 38.0821 56.2714C38.0821 56.3676 38.0681 56.4663 38.1269 56.5537C38.2126 56.7714 38.1909 57.1776 38.4134 57.2725C38.8022 57.0624 38.9634 57.1953 38.7882 56.7549V56.7562ZM25.9722 36.615C25.7407 36.6909 25.4951 36.7416 25.2585 36.8023C25.0896 36.8403 24.9208 36.8529 24.7481 36.8821C24.642 36.8896 24.5307 36.8605 24.4309 36.9263C24.2544 36.9314 24.0664 36.939 23.8912 36.9238C23.808 36.8643 23.7121 36.877 23.6226 36.8858C23.4525 36.8985 23.29 36.8276 23.1212 36.8403C22.9895 36.7745 22.8398 36.7783 22.7029 36.7264C22.6838 36.7163 22.639 36.7049 22.6185 36.7517C22.7464 36.7897 22.8436 36.8947 22.9831 36.901C23.0624 36.9668 23.1621 36.9668 23.2593 36.977C23.4167 37.0403 23.5842 37.0529 23.7492 37.0605C23.8144 37.1035 23.8861 37.0909 23.9564 37.0921C24.2212 37.0858 24.4962 37.1048 24.7584 37.0858C24.9298 37.0036 25.1165 37.1035 25.2853 37.0137C25.4235 36.9339 25.6025 37.0036 25.733 36.8934C25.8021 36.8745 25.8852 36.8896 25.9504 36.8453C26.0553 36.8112 26.1282 36.7871 26.1628 36.6682C26.1116 36.6112 26.0425 36.5897 25.9722 36.615ZM17.8528 25.6547C17.7211 25.642 17.6162 25.7205 17.4857 25.7003C17.4448 25.7003 17.2785 25.6876 17.3476 25.7635C17.4883 25.7838 17.6303 25.7724 17.7722 25.7749C19.2764 25.7559 20.801 25.8205 22.2885 25.7319C20.8803 25.599 19.3212 25.6724 17.8528 25.6547ZM25.5117 24.5599C25.6729 24.5587 25.4657 24.4536 25.3877 24.503C25.2342 24.5536 25.0679 24.4308 24.9106 24.4992C24.7443 24.5599 24.578 24.4878 24.4117 24.4764C23.8375 24.4878 23.2465 24.446 22.6838 24.5042C21.9458 24.4346 21.1719 24.4827 20.4288 24.4916C20.3201 24.4587 20.228 24.4979 20.1359 24.5587C21.9304 24.5662 23.7377 24.5612 25.5117 24.5599ZM39.8958 55.5323C39.8907 55.8462 39.8101 56.1639 39.8651 56.479C39.9726 56.6524 40.1465 56.398 40.2668 56.3398V55.9411C40.2655 55.8639 40.213 55.8019 40.2233 55.7234C40.2309 55.6386 40.1657 55.5703 40.1798 55.4893C40.1721 55.302 40.1504 54.9856 40.0519 54.8312C39.8434 55.0147 40.0084 55.307 39.8958 55.5323ZM31.1254 58.6913C31.4222 58.5647 30.8978 58.3306 30.8249 58.2066C30.0434 57.3978 30.3081 57.7396 29.4972 58.3116C29.422 58.3536 29.3614 58.4172 29.3233 58.4939C29.4026 58.5825 29.4102 58.585 29.487 58.5508C29.7722 58.4078 29.9474 58.1142 30.2327 57.9699C30.578 58.1471 30.7647 58.542 31.1254 58.6913ZM33.0363 35.9657C33.0107 35.9746 32.9852 35.9911 32.9596 35.9911C32.8023 35.9873 32.6692 36.105 32.5119 36.1113C32.1589 36.1809 31.8097 36.2075 31.4465 36.1936C31.4132 36.1936 31.3748 36.2037 31.3493 36.1898C31.2405 36.1366 31.1254 36.1581 31.0116 36.1543C30.963 36.1518 30.9131 36.1594 30.8709 36.1265C30.8568 36.1201 30.8197 36.1379 30.8351 36.1556C30.9732 36.2353 31.1037 36.3404 31.2802 36.3201C31.3007 36.3163 31.3275 36.3138 31.3442 36.3239C31.4541 36.3809 31.5782 36.353 31.6933 36.3872C32.2382 36.4555 33.1898 36.2353 33.5492 35.7974C33.3638 35.7923 33.2103 35.9151 33.0363 35.9657ZM34.1683 35.7341C33.7974 35.9202 33.4776 36.1214 33.09 36.2606C32.8982 36.3644 32.668 36.3214 32.4978 36.4758C32.737 36.8302 34.0608 36.048 34.1683 35.7341ZM32.6488 35.7468C32.5017 35.7721 32.3648 35.848 32.2088 35.8316C32.1218 35.8379 32.0438 35.8835 31.953 35.867C30.8607 35.8291 31.6307 36.1138 32.1551 36.0721C32.4326 35.9847 32.9263 35.9581 33.0709 35.6886C32.9123 35.6215 32.8048 35.762 32.6488 35.7468ZM34.8155 35.4911C34.6645 35.5823 34.5622 35.7253 34.4356 35.8417C34.323 35.943 34.1747 35.9936 34.0775 36.1138C33.9125 36.2277 33.7193 36.3087 33.5403 36.4049C33.4495 36.453 33.4917 36.5555 33.5761 36.5593C33.8408 36.5581 34.1312 36.248 34.3601 36.1163C34.6006 35.8771 34.8168 35.6519 34.9933 35.3405C34.8845 35.362 34.8564 35.4215 34.8155 35.4911ZM17.3361 35.8316C17.4755 35.8696 17.6047 35.9404 17.739 35.9898C17.8541 36.0138 17.9769 36.0126 18.0869 36.0442C18.1815 36.1239 19.0513 36.0569 18.6407 35.905C18.564 35.905 18.4834 35.9176 18.413 35.8961C18.2442 35.8291 18.0651 35.848 17.8925 35.8075C17.7953 35.7784 17.7032 35.7341 17.5957 35.7417C17.4755 35.724 17.3834 35.6278 17.2453 35.6784C17.2517 35.8025 17.2529 35.8025 17.3361 35.8303V35.8316ZM17.5062 26.9608C18.3721 26.9127 19.2751 27.0633 20.1231 26.8912C19.1838 26.8538 18.2434 26.853 17.3041 26.8887C17.3028 26.9925 17.4384 26.952 17.5049 26.9608H17.5062ZM21.2743 26.1609C20.9398 26.0752 20.5896 26.0691 20.2523 26.1432C20.086 26.1306 19.9146 26.1812 19.7535 26.1078C19.6256 26.1204 19.4913 26.0926 19.3698 26.1078C19.2009 26.1837 19.0116 26.1306 18.8351 26.1458C18.5806 26.1533 18.3209 26.1331 18.0728 26.1458C17.9756 26.1495 17.8963 26.0939 17.8042 26.1015C17.7249 26.123 17.2657 26.0382 17.3374 26.1774C18.2276 26.2255 21.0837 26.1913 21.2743 26.1609ZM37.096 32.303C37.3288 32.1916 37.545 32.0562 37.7688 31.9309C37.8839 31.8259 37.976 31.6981 38.1141 31.6171C38.1359 31.5133 38.4224 31.3639 38.3482 31.288C38.2305 31.3525 38.1627 31.4563 38.0527 31.5335C37.889 31.6145 37.7816 31.7803 37.6089 31.8487C37.5603 31.9309 37.4605 31.9271 37.3889 31.9752C37.2738 32.0512 37.1408 32.1018 37.0154 32.1651C36.9323 32.1587 36.9259 32.2246 36.908 32.2815C36.9643 32.3448 37.041 32.3511 37.096 32.303ZM35.0342 33.4104C34.9638 33.3383 34.9651 33.2801 34.9958 33.1965C35.0035 33.1042 34.9702 33.0675 34.8756 33.0649C34.7387 33.0966 34.1747 32.9573 34.364 33.2244C34.5379 33.2307 34.6121 33.1965 34.7848 33.294C34.662 33.3231 34.4625 33.2472 34.5098 33.4484C34.5763 33.5117 35.125 33.5838 35.0342 33.4104ZM34.0749 32.6435C34.254 32.6599 34.4228 32.7586 34.6121 32.7371C34.6663 32.7305 34.7213 32.7407 34.7694 32.7662C34.8769 32.8422 35.0943 32.6701 34.9421 32.5891C34.7733 32.5473 34.5929 32.6144 34.4292 32.5384C34.3416 32.4958 34.2435 32.4791 34.1465 32.4903C33.9841 32.5055 33.8958 32.3638 33.7181 32.4308C33.782 32.608 33.9432 32.5625 34.0749 32.6435ZM34.5686 32.3271C34.4036 32.3347 34.2668 32.2132 34.0954 32.2423C33.9943 32.1663 33.8549 32.1878 33.7551 32.103C33.7334 32.0588 33.6017 32.1106 33.6362 32.1739C33.7667 32.2764 33.9329 32.2954 34.0839 32.3435C34.3499 32.4574 34.662 32.522 34.9498 32.4701C34.9779 32.2423 34.7055 32.3524 34.5686 32.3271ZM34.5059 32.9789C34.6492 32.9561 34.7745 33.0459 34.9216 33.0143C34.9651 33.0105 34.9945 32.9637 34.9958 32.9206C34.9779 32.7308 34.6377 32.8422 34.5034 32.8169C34.3166 32.827 34.1721 32.6814 33.9815 32.7511C33.9943 32.9485 34.3525 32.9611 34.5059 32.9789ZM17.4486 27.3608C18.2455 27.3544 19.0436 27.3759 19.8392 27.3544C19.8558 27.3519 19.8686 27.3291 19.8993 27.3C19.8149 27.2823 16.7145 27.2532 17.4486 27.3608ZM34.8526 32.2461C34.9805 32.2372 34.9869 32.0993 34.859 32.0891C34.6185 32.1182 34.4113 31.9955 34.1721 32.0005C34.1399 31.9991 34.109 31.9876 34.0839 31.9676C34.0007 31.8917 33.8728 31.9651 33.8076 31.8601C33.7897 31.8385 33.7513 31.8474 33.7372 31.8638C33.7718 32.041 34.543 32.241 34.7247 32.2473L34.8526 32.2461ZM44.5017 34.8406C44.4172 34.9621 44.7767 34.9773 44.847 34.9861C45.003 35.0292 45.1604 35.0596 45.3241 35.0545C45.4571 35.0077 45.6374 35.1848 45.7206 35.0216C45.7436 34.8482 45.1118 34.9583 44.9762 34.9292C44.9391 34.9292 44.8943 34.938 44.8739 34.8988C44.7843 34.809 44.6193 34.8672 44.5017 34.8406ZM18.5422 27.7278C18.3309 27.6887 18.114 27.6887 17.9027 27.7278C17.7198 27.7189 17.5331 27.7544 17.3527 27.6987C17.3476 27.6974 17.331 27.7113 17.3297 27.7177C17.3207 27.786 17.4064 27.767 17.4499 27.7759C17.9564 27.7733 18.4591 27.7835 18.9643 27.7708C18.9157 27.6822 18.6458 27.748 18.5422 27.7278ZM17.3745 26.4748C17.3016 26.4773 17.3271 26.5672 17.3872 26.5482C18.3363 26.4558 19.3352 26.5419 20.3124 26.5077C19.403 26.4166 18.335 26.5065 17.3745 26.4761V26.4748ZM45.0734 35.619C45.1569 35.6587 45.2496 35.6757 45.342 35.6683C45.4469 35.6772 45.5505 35.7303 45.6592 35.7C45.906 35.5266 45.3599 35.5974 45.2755 35.5835C45.1335 35.6063 44.7639 35.3835 44.6935 35.5671C44.8176 35.6101 44.9493 35.5595 45.0734 35.619ZM18.9617 24.5182L17.8221 24.5308C18.1496 24.6118 18.6241 24.5308 18.9988 24.5587C19.0116 24.5321 18.9835 24.5207 18.9617 24.5182ZM34.8871 31.8461C34.7144 31.8398 34.5418 31.8499 34.3806 31.7651C34.3486 31.7474 34.2923 31.7436 34.2604 31.8183C34.3652 31.8866 35.0662 32.1271 34.8871 31.8461ZM45.3138 34.7355C45.2627 34.7001 44.7715 34.6343 44.8585 34.7571C45.0184 34.7824 45.1898 34.7419 45.3343 34.8203C45.4507 34.876 45.5645 34.8545 45.6937 34.8444C45.6515 34.6976 45.4302 34.8128 45.3138 34.7355ZM17.354 28.4948C17.8784 28.5112 18.3964 28.5163 18.9234 28.4922C18.6944 28.4062 18.4297 28.5213 18.1982 28.4353C18.1835 28.4283 18.1675 28.4244 18.1512 28.4238C18.135 28.4231 18.1187 28.4257 18.1035 28.4315C17.8631 28.5036 17.6072 28.4479 17.3591 28.4644C17.3569 28.4745 17.3548 28.4846 17.3527 28.4948H17.354ZM17.6482 28.1454C17.7671 28.191 17.8861 28.1049 18.0063 28.1581C18.2148 28.2188 18.413 28.1442 18.6164 28.1378C18.6266 28.1366 18.6356 28.1265 18.6535 28.1151C18.2573 28.0923 17.86 28.0944 17.464 28.1214C17.5305 28.153 17.5957 28.1239 17.6469 28.1454H17.6482ZM37.5027 32.3093C37.5155 32.2942 37.5027 32.2638 37.4836 32.2587C37.394 32.2208 37.3556 32.3397 37.2636 32.3334C37.1702 32.3764 37.174 32.4283 37.0397 32.4207C36.853 32.7346 37.4298 32.3865 37.5027 32.3093ZM45.6835 35.8025C45.6784 35.6911 45.4482 35.7569 45.3689 35.7518C45.3445 35.7531 45.3241 35.786 45.2819 35.8215C45.4405 35.8088 45.6016 35.9468 45.6835 35.8025ZM30.8453 36.4935C30.7596 36.3695 30.5844 36.3745 30.4463 36.3631C30.5639 36.4454 30.6675 36.5732 30.8453 36.4935ZM36.9144 32.0258C37.0001 32.0714 37.0679 32.0296 37.119 31.9917C37.1791 31.9474 37.2751 31.9347 37.2955 31.8385C37.2212 31.8355 37.1473 31.8511 37.0807 31.8839C37.0141 31.9166 36.9569 31.9654 36.9144 32.0258ZM17.3195 28.9023C17.6686 28.9162 18.0523 28.939 18.3913 28.8909C18.0396 28.8782 17.6622 28.8593 17.3195 28.901V28.9023ZM34.1811 36.4834C34.2834 36.6036 34.4497 36.3581 34.488 36.2644C34.3806 36.329 34.2297 36.3606 34.1811 36.4834ZM44.2561 34.7672C44.2382 34.7697 44.2177 34.7545 44.1985 34.7469C44.196 34.9368 44.3904 34.8254 44.5029 34.8419C44.4236 34.8077 44.3558 34.7457 44.2561 34.7672ZM45.663 34.5394C45.5727 34.5374 45.4822 34.5374 45.3919 34.5394C45.3202 34.6153 45.4942 34.6039 45.5364 34.6115C45.5824 34.6027 45.7321 34.6153 45.663 34.5394ZM43.935 34.7229C44.0195 34.7925 44.1026 34.7571 44.1985 34.7457C44.109 34.7254 44.0259 34.6482 43.935 34.7229ZM22.8245 34.9229V35.0241C22.8308 35.0115 22.8999 35.0178 22.9268 35.0115C22.9255 34.9355 22.8731 34.9292 22.8206 34.9254L22.8245 34.9229ZM43.5756 34.7431C43.3966 34.6254 43.3915 34.833 43.5769 34.7419L43.5756 34.7431ZM19.2278 27.7544C19.2009 27.729 19.1817 27.729 19.1587 27.7582L19.1971 27.7809L19.2278 27.7544ZM20.6705 26.5039H20.8419C20.7729 26.4723 20.7319 26.4698 20.6705 26.5039ZM37.8008 36.5808C37.7854 36.5618 37.7458 36.5618 37.7432 36.5986C37.7662 36.5986 37.7944 36.6137 37.8008 36.5808ZM29.8451 36.4226C29.84 36.4657 29.8899 36.4859 29.9219 36.4682C29.9283 36.4315 29.8707 36.3758 29.8451 36.4226ZM37.582 32.2334L37.6063 32.2296C37.5999 32.2043 37.5769 32.2043 37.582 32.2334ZM39.475 35.5645C39.5198 35.5924 39.5492 35.5747 39.5748 35.5481C39.5492 35.5607 39.5057 35.5228 39.475 35.5645ZM30.0293 33.2636C30.0856 33.2978 30.1239 33.2092 30.0881 33.1548C29.9858 33.1434 29.5126 33.0029 29.7556 33.2219C29.8528 33.2295 29.9436 33.2193 30.0293 33.2636Z" fill="#C5C5C5"/>
</svg>
