<svg width="166" height="81" viewBox="0 0 166 81" fill="none" xmlns="http://www.w3.org/2000/svg">
<path d="M35.4978 44.0264C34.8072 44.4947 34.1766 44.9807 33.4897 45.3705C32.1979 46.1046 30.8089 46.3261 29.3648 45.8793C28.0039 45.4578 27.2237 44.4757 26.9142 43.1379C26.2836 40.4017 27.3721 36.5124 30.0849 34.6355C31.7323 33.4951 33.4488 33.4483 35.2292 34.3013C35.3981 34.3823 35.4211 34.4735 35.3993 34.6329C35.3354 35.1 35.2855 35.5682 35.2241 36.0846C35.6436 36.1783 36.0568 36.2783 36.4737 36.358C36.5223 36.3668 36.6221 36.2821 36.649 36.22C37.2335 34.8886 37.8129 33.5546 38.3936 32.2131C37.6927 31.8245 36.6477 31.6524 33.8274 31.4929L42.1987 28.7528C42.2064 28.8946 42.2166 28.9984 42.2166 29.1009C42.2166 33.8331 42.2166 38.5652 42.223 43.2974C42.223 43.5442 42.1616 43.6606 41.9135 43.7379C40.2712 44.258 38.6328 44.7883 36.9994 45.3351C36.7232 45.4275 36.5684 45.3933 36.3983 45.1579C36.1118 44.7567 35.7856 44.3846 35.4966 44.0251L35.4978 44.0264ZM26.102 48.7801C26.0002 48.7366 25.8979 48.6944 25.795 48.6535C24.2218 48.0258 23.0169 46.988 22.3135 45.4502C21.2468 43.1139 21.4731 40.7991 22.5897 38.5463C23.5055 36.6972 24.924 35.267 26.588 34.0609C26.6827 33.9913 26.7748 33.9166 26.8681 33.8457L26.8247 33.7862C23.5682 34.8506 20.3118 35.9176 17.0617 36.9819V51.7898L26.1634 48.8383C26.1327 48.8079 26.1212 48.7877 26.1033 48.7788L26.102 48.7801ZM23.7997 52.6453H42.2857V46.3703L23.7818 52.6048L23.7997 52.6428V52.6453ZM35.5413 27.8403H17.0579V34.1077L35.5439 27.8808V27.8416L35.5413 27.8403ZM58.5474 39.3714L59.2599 40.2169C58.0768 41.48 56.6673 42.2394 54.9329 42.3431C53.7536 42.4127 52.6076 42.2672 51.5588 41.6951C49.7042 40.6826 48.9713 39.0462 49.0109 37.025C49.0454 35.2961 49.8295 33.9368 51.294 33.0256C53.6794 31.5423 56.2017 31.7195 58.7713 32.5168L58.284 34.9734L57.5332 34.9126C57.514 34.7886 57.4743 34.6722 57.482 34.5583C57.5153 34.1077 57.2479 33.9077 56.8719 33.7495C56.0149 33.3888 55.1388 33.2281 54.2166 33.4243C52.8659 33.7141 51.9629 34.7532 51.7736 36.234C51.5485 38.0046 52.3249 39.6005 53.7728 40.2435C55.0454 40.8079 56.3002 40.6421 57.5076 40.0182C57.8568 39.8372 58.1791 39.6018 58.5487 39.3702L58.5474 39.3714ZM86.2732 41.3939C85.956 41.3876 85.8895 41.2066 85.8857 40.9484C85.8703 39.9422 85.8473 38.9361 85.8384 37.9299C85.832 37.1642 85.8575 36.396 85.6107 35.653C85.2845 34.6722 84.5401 34.1482 83.4964 34.1254C82.642 34.1064 81.8912 34.3823 81.1916 34.8316C80.9627 34.9785 80.7478 35.143 80.4805 35.3328L80.6007 34.1431C79.3818 34.0216 78.2907 34.6152 77.1179 34.5671V35.2215C77.3468 35.2696 77.5514 35.3404 77.7574 35.348C78.0695 35.3607 78.1411 35.5265 78.1372 35.791C78.1245 37.5755 78.1155 39.3575 78.0912 41.1421C78.0912 41.2167 77.9671 41.3256 77.8789 41.3559C77.6742 41.4256 77.4568 41.4572 77.2573 41.5028V42.1027H81.4576V41.5053C81.2952 41.4711 81.1366 41.4192 80.9742 41.4066C80.6838 41.3851 80.5866 41.237 80.5866 40.9636C80.5866 39.9346 80.5482 38.907 80.5815 37.8805C80.5956 37.4401 80.703 36.987 80.8501 36.5693C81.0611 35.9682 81.6086 35.6682 82.2353 35.7252C82.862 35.7796 83.1818 36.077 83.3404 36.7605C83.3788 36.9199 83.4133 37.0832 83.4146 37.2452C83.4248 38.3501 83.4274 39.455 83.4312 40.5586V42.1001H86.7861V41.5078C86.6135 41.4673 86.4434 41.3964 86.2732 41.3939ZM133.135 41.4104C132.855 41.38 132.715 41.2648 132.715 40.9573C132.717 40.1916 132.646 39.4233 132.683 38.6589C132.717 37.9881 132.801 37.3072 132.966 36.6567C133.137 35.9821 133.704 35.6644 134.381 35.7239C135.018 35.7809 135.408 36.1137 135.481 36.8313C135.571 37.7426 135.582 38.664 135.601 39.5815C135.62 40.4194 135.605 41.2598 135.605 42.1001H138.919V41.5053C138.796 41.4762 138.69 41.4471 138.581 41.4256C138.045 41.3218 138.031 41.3243 138.019 40.7889C137.993 39.5524 137.991 38.3146 137.955 37.0794C137.949 36.6529 137.895 36.2284 137.793 35.8138C137.562 34.9304 137.023 34.3178 136.066 34.1659C135.024 33.9989 134.099 34.3102 133.247 34.8823C133.05 35.0139 132.864 35.1582 132.618 35.3354L132.746 34.0761C132.259 34.1393 131.793 34.1862 131.33 34.2621C130.637 34.3735 129.947 34.5051 129.257 34.6291V35.2189C129.466 35.262 129.658 35.3202 129.854 35.3366C130.162 35.3632 130.285 35.505 130.281 35.8176C130.261 37.5793 130.257 39.3411 130.234 41.1028C130.233 41.1914 130.111 41.318 130.016 41.3534C129.817 41.4293 129.597 41.4585 129.403 41.5028V42.1014H133.579V41.5015C133.433 41.4698 133.284 41.4268 133.133 41.4104H133.135ZM66.1309 42.009C67.7271 41.485 68.7043 40.389 68.9294 38.7184C69.1597 37.0123 68.5342 35.6682 67.0492 34.757C65.4376 33.7673 62.8796 33.9204 61.3754 35.0671C59.3929 36.5807 59.2688 39.6967 61.1362 41.2914C62.0264 42.0508 63.0996 42.2976 64.2571 42.3824C64.8838 42.2621 65.5297 42.2052 66.1309 42.009ZM65.9134 40.3194C65.2292 41.404 63.8273 41.4547 63.0573 40.4257C62.2707 39.3727 62.1786 37.2578 62.8706 36.1416C63.6431 34.8962 65.21 34.9342 65.9198 36.2175C66.2741 36.8579 66.3637 37.5591 66.4008 38.321C66.3816 38.988 66.3087 39.6929 65.9134 40.3194ZM126.046 41.8255C128.633 40.6472 129.23 37.1528 127.157 35.262C126.082 34.2836 124.778 34.0128 123.368 34.133C121.141 34.3229 119.377 35.7315 119.243 37.9957C119.15 39.5714 119.81 41.1129 121.469 41.8736C122.163 42.19 122.901 42.3064 123.733 42.3115C124.487 42.3014 125.288 42.1723 126.045 41.8268L126.046 41.8255ZM125.416 40.1675C124.758 41.4268 123.181 41.5179 122.406 40.327C121.882 39.5221 121.779 38.6146 121.841 37.6818C121.886 37.0022 122.054 36.3656 122.516 35.834C123.245 34.9962 124.49 35.0417 125.148 35.934C125.675 36.6478 125.793 37.4743 125.807 38.326C125.812 38.969 125.718 39.5904 125.417 40.1688L125.416 40.1675ZM147.814 37.1806C147.772 35.5986 146.934 34.5342 145.408 34.2444C144.821 34.1444 144.222 34.1295 143.631 34.2001C141.584 34.4153 139.918 35.8378 139.635 37.9198C139.393 39.7005 140.287 41.3332 141.942 41.9571C143.187 42.4254 144.452 42.452 145.705 42.0001C146.638 41.6648 147.397 41.0788 148.03 40.2953L147.211 39.5448C147.11 39.6322 147.029 39.7043 146.945 39.7739C146.331 40.2903 145.634 40.6118 144.819 40.6674C143.168 40.7788 141.91 39.4486 142.217 37.8628H147.816C147.816 37.6148 147.819 37.3983 147.814 37.1806ZM144.138 35.1835C144.316 35.1798 144.492 35.2141 144.655 35.284C144.817 35.3539 144.963 35.4579 145.081 35.5887C145.199 35.7195 145.288 35.874 145.34 36.0418C145.392 36.2095 145.407 36.3865 145.384 36.5605C145.375 36.6314 145.283 36.744 145.223 36.7478C144.257 36.8073 143.289 36.8503 142.317 36.8997C142.401 35.91 143.184 35.1848 144.138 35.1835ZM95.6908 37.3426C95.6652 35.7201 94.9157 34.6646 93.4934 34.29C93.1191 34.1918 92.7334 34.142 92.3461 34.1419C90.5977 34.1457 89.1063 34.7038 88.1125 36.2112C87.0253 37.8578 87.1647 40.7371 89.4811 41.8103C91.1003 42.5608 92.7401 42.5153 94.3197 41.642C94.9298 41.3041 95.4529 40.8573 95.884 40.289L95.0782 39.5537C94.8786 39.7119 94.6983 39.8739 94.5 40.0093C93.4806 40.6928 92.4037 40.913 91.2436 40.3789C90.4352 40.0055 89.8494 38.8766 90.1027 37.854H95.6665C95.6742 37.6869 95.6921 37.5148 95.6908 37.3426ZM90.1679 36.9022C90.2523 36.2517 90.5286 35.7556 91.0696 35.4404C91.5787 35.1455 92.1312 35.0506 92.671 35.367C93.1813 35.6657 93.2734 36.1606 93.244 36.7427L90.1679 36.9022ZM104.161 41.4167C104.195 41.4382 104.237 41.4724 104.286 41.4964C105.593 42.1613 107.07 42.4286 108.53 42.2647C109.4 42.1697 110.212 41.9116 110.895 41.3294C111.853 40.513 112.254 38.5501 110.501 37.7603C109.759 37.4262 108.971 37.1946 108.21 36.9035C107.872 36.7744 107.519 36.6529 107.223 36.4567C106.818 36.1897 106.89 35.691 107.333 35.4898C107.471 35.4265 107.627 35.3911 107.778 35.3733C108.476 35.2961 109.139 35.4303 109.783 35.6999C109.983 35.7834 110.099 35.8821 110.062 36.1099C110.029 36.3162 110.093 36.4453 110.337 36.4466C110.477 36.4466 110.615 36.4883 110.744 36.5099L111.404 34.657C110.104 34.1798 108.784 34.0065 107.421 34.2355C106.712 34.3545 106.06 34.6 105.502 35.0683C104.611 35.815 104.31 37.4895 105.766 38.2716C106.18 38.4956 106.615 38.6893 107.051 38.869C107.613 39.0993 108.191 39.2879 108.75 39.5246C109.187 39.7119 109.36 40.0308 109.249 40.4105C109.114 40.856 108.742 41.0345 108.32 41.0965C107.524 41.2119 106.713 41.0355 106.04 40.6004C105.954 40.5472 105.881 40.3599 105.909 40.265C106.008 39.9233 105.901 39.7283 105.56 39.641C105.497 39.6258 105.44 39.5904 105.367 39.56L104.162 41.418L104.161 41.4167ZM113.92 37.1579C113.915 38.1856 113.865 39.2158 113.915 40.2409C113.959 41.1117 114.344 41.8521 115.241 42.1406C115.668 42.2773 116.158 42.3102 116.607 42.2647C117.464 42.1773 118.138 41.7204 118.692 41.0686L118.052 40.3498C117.987 40.3865 117.937 40.4093 117.892 40.4384C116.984 41.0028 116.405 40.7763 116.341 39.7132C116.254 38.2957 116.303 36.8693 116.296 35.448C116.296 35.429 116.317 35.4113 116.329 35.3923H117.9L118.373 34.2482H116.312V32.3498C115.721 32.4637 115.149 32.5826 114.572 32.6788C113.916 32.7902 113.915 32.7813 113.915 33.4483C113.915 34.2368 113.917 34.2431 113.166 34.5266C112.991 34.5937 112.922 34.6798 112.937 34.862C112.951 35.0215 112.94 35.1835 112.94 35.3708H113.918C113.918 35.9998 113.921 36.5782 113.918 37.1553L113.92 37.1579ZM101.385 41.5028C101.136 41.4572 100.89 41.399 100.639 41.3724C100.439 41.3521 100.35 41.2762 100.343 41.0686C100.308 40.184 100.237 39.3006 100.229 38.4159C100.215 37.767 100.372 37.1256 100.685 36.5554C100.884 36.2036 101.143 35.9074 101.542 35.772C102.059 35.5986 102.215 35.6986 102.274 36.2238C102.279 36.2669 102.293 36.3074 102.305 36.3631L102.839 36.4441L103.595 34.2748C101.963 33.6901 100.925 34.5254 99.9935 35.7138L100.155 34.0659L96.7665 34.6228V35.0443C96.7678 35.0974 96.7767 35.1506 96.7844 35.2189C96.943 35.2518 97.0914 35.286 97.2423 35.3138C97.7936 35.4176 97.814 35.4176 97.8153 35.9669C97.8179 37.5198 97.8115 39.074 97.791 40.6269C97.7833 41.3003 97.7629 41.299 97.0888 41.4623C97.0287 41.4762 96.9686 41.4952 96.9213 41.5091V42.1039H101.385V41.5028ZM70.33 35.3214C70.385 35.3328 70.4387 35.3581 70.4924 35.3594C70.7738 35.3632 70.8646 35.5088 70.8633 35.7771C70.8505 37.4502 70.8582 39.1246 70.8442 40.7978C70.839 41.3256 70.8186 41.3243 70.2916 41.4293C70.1854 41.4509 70.0818 41.4825 69.9846 41.5078V42.1027H74.4408V41.5002C74.1671 41.4509 73.9036 41.4218 73.6504 41.3496C73.5519 41.3218 73.415 41.1977 73.4125 41.1142C73.3703 40.0334 73.3114 38.9513 73.3396 37.8717C73.3556 37.2625 73.5807 36.6769 73.9778 36.2112C74.2387 35.9011 74.5687 35.7226 74.9819 35.71C75.1686 35.7049 75.2888 35.7669 75.3106 35.9872C75.3515 36.4099 75.4551 36.4694 75.913 36.4023L76.6421 34.2963C75.9616 33.9672 75.2863 34.0103 74.6135 34.3292C73.9548 34.6418 73.5071 35.1873 73.0352 35.8378L73.2065 34.0596L69.8312 34.6228C69.7902 35.0164 69.9565 35.2493 70.33 35.3214ZM103.598 46.0995C103.664 46.1577 103.728 46.259 103.799 46.264C104.016 46.2818 104.074 46.3906 104.072 46.5868C104.067 47.6815 104.066 48.7763 104.07 49.8711C104.07 50.0508 104.02 50.1546 103.817 50.1736C103.737 50.1811 103.667 50.2748 103.591 50.328L103.641 50.4077H105.383L105.438 50.3356L105.227 50.166C105.148 50.0989 105.005 50.0369 104.998 49.9635C104.956 49.4559 104.942 48.9446 104.919 48.4447C105.244 48.3511 105.438 48.4169 105.612 48.6637C106.011 49.2281 106.439 49.7724 106.868 50.3153C106.937 50.4026 107.077 50.4849 107.183 50.4849C107.49 50.4824 107.797 50.4343 108.236 50.3925C107.385 49.7964 106.836 49.0484 106.271 48.2966C106.437 48.2435 106.567 48.2106 106.688 48.1599C107.278 47.9157 107.542 47.4702 107.463 46.8627C107.402 46.402 106.998 46.0451 106.384 46.0223C105.47 45.9881 104.555 46.0134 103.639 46.0134L103.597 46.1008H103.599L103.598 46.0995ZM104.961 46.4843C105.34 46.4843 105.697 46.4577 106.049 46.4918C106.188 46.4986 106.321 46.5537 106.424 46.6473C106.527 46.741 106.593 46.8673 106.611 47.0044C106.646 47.1492 106.633 47.3013 106.573 47.4377C106.513 47.5742 106.41 47.6878 106.279 47.7613C105.867 48.0131 105.413 48.0195 104.961 47.9638V46.4843ZM77.1422 50.4305C77.9902 50.4305 78.8407 50.4659 79.6862 50.4204C80.451 50.3786 81.0547 49.9875 81.4397 49.3319C81.8976 48.5523 81.9693 47.7233 81.5446 46.9171C81.1404 46.1501 80.3986 45.9869 79.5928 45.997C78.819 46.0071 78.0452 46.0096 77.2713 46.0198C77.2227 46.0198 77.1729 46.0413 77.0488 46.0704C77.1473 46.1615 77.2023 46.2552 77.2534 46.2552C77.586 46.2476 77.5809 46.4678 77.5796 46.6931C77.5757 47.7436 77.5694 48.794 77.5719 49.8445C77.5719 50.0356 77.5335 50.1546 77.3084 50.1736C77.2317 50.1811 77.1626 50.2761 77.0897 50.3318L77.1422 50.4305ZM78.4391 46.8475C78.4327 46.6096 78.5286 46.507 78.7589 46.4944C78.9123 46.4855 79.0646 46.4577 79.2193 46.4488C80.1185 46.4007 80.7286 46.8513 80.8309 47.7322C80.8795 48.1511 80.8437 48.6143 80.7132 49.0142C80.4127 49.9344 79.4956 50.1811 78.5913 49.8875C78.5197 49.8647 78.457 49.7015 78.4545 49.6015C78.4391 49.1319 78.4481 48.6611 78.4481 48.1916H78.4442C78.4442 47.7436 78.4545 47.2955 78.4404 46.8462L78.4391 46.8475ZM69.6623 46.4513C69.6623 47.5664 69.661 48.6814 69.6649 49.7964C69.6649 50.0204 69.6278 50.1824 69.3515 50.1837C69.3067 50.1837 69.262 50.2761 69.2172 50.3267C69.2556 50.3571 69.294 50.4115 69.3349 50.4128C69.7813 50.4191 70.2264 50.4166 70.6728 50.4166L70.7111 50.3242C70.6421 50.2723 70.5743 50.1799 70.5027 50.1761C70.2865 50.1634 70.2596 50.0445 70.2545 49.8711C70.2353 49.1712 70.2072 48.4726 70.1854 47.7727C70.1791 47.5752 70.1854 47.3778 70.1854 47.1791C70.9043 48.1283 71.5783 49.0623 72.1833 50.0381C72.4442 50.4608 72.7461 50.5507 73.204 50.4444V50.2242C73.204 49.032 73.2014 47.8397 73.2027 46.6475C73.2027 46.4602 73.2001 46.2691 73.4828 46.2628C73.5404 46.2628 73.5954 46.1463 73.69 46.0413H72.0938C72.2153 46.159 72.2728 46.2628 72.3304 46.264C72.5952 46.2704 72.5862 46.4412 72.5926 46.6235C72.6131 47.2803 72.6425 47.9347 72.6642 48.5915C72.6719 48.813 72.6655 49.0358 72.6655 49.3306C72.5466 49.1661 72.4685 49.0649 72.3969 48.9573C71.7894 48.0587 71.1857 47.1563 70.5768 46.2577C70.518 46.1716 70.4387 46.0388 70.362 46.0337C69.9949 46.0096 69.6265 46.0236 69.2581 46.0236L69.2185 46.1577L69.6483 46.3501C69.6508 46.3666 69.6623 46.4096 69.6623 46.4513ZM91.9726 45.9945C91.2641 45.8894 90.5542 45.8578 89.9172 46.2653C89.192 46.7298 89.2074 47.6461 89.9556 48.0562C90.2702 48.2296 90.6233 48.3359 90.9596 48.4713C91.1835 48.5624 91.4201 48.627 91.6311 48.7421C91.8921 48.8826 92.0379 49.1117 91.9854 49.423C91.9343 49.7306 91.7296 49.8939 91.4418 49.9736C91.0019 50.0976 90.5874 49.9989 90.1858 49.8217C89.9658 49.723 89.7254 49.6319 89.8085 49.3015C89.8213 49.2534 89.7343 49.1649 89.6729 49.1269C89.6512 49.1142 89.5425 49.1876 89.5194 49.2408C89.3992 49.5192 89.2943 49.8027 89.1703 50.1179C89.4453 50.2153 89.6959 50.3305 89.9607 50.3925C90.7665 50.5798 91.5595 50.6001 92.2924 50.1255C92.9319 49.7116 93.2133 48.5574 92.1619 48.0789C91.9432 47.9777 91.7143 47.8954 91.4879 47.8068C91.1809 47.6866 90.8484 47.6056 90.5734 47.4347C90.4173 47.3373 90.292 47.1031 90.2626 46.9158C90.2268 46.669 90.4416 46.4881 90.6693 46.4805C91.0569 46.4653 91.4495 46.5032 91.8332 46.5602C92.0225 46.588 92.2144 46.6893 92.1798 46.9576C92.1747 47.0019 92.263 47.0576 92.3078 47.1069C92.3564 47.0626 92.428 47.0272 92.451 46.9715C92.5495 46.7311 92.6352 46.4855 92.7401 46.1995C92.4753 46.1274 92.2284 46.0312 91.9726 45.9945ZM141.473 50.1596C141.905 49.9141 142.12 49.5154 142.097 49.0054C142.077 48.5244 141.781 48.2536 141.378 48.0688C141.117 47.9511 140.846 47.8537 140.58 47.7474C140.315 47.641 140.025 47.5702 139.795 47.4158C139.646 47.3145 139.484 47.074 139.51 46.926C139.538 46.7551 139.754 46.5083 139.911 46.4893C140.282 46.4463 140.67 46.4982 141.046 46.5488C141.312 46.5855 141.492 46.7399 141.406 47.0475C141.679 47.1107 141.818 46.8867 141.955 46.178C141.69 46.1122 141.428 46.0261 141.158 45.9869C140.528 45.8932 139.897 45.8856 139.309 46.1792C138.907 46.3805 138.645 46.6981 138.631 47.1588C138.618 47.6018 138.879 47.8916 139.25 48.0954C139.376 48.1625 139.507 48.222 139.641 48.2726C140.015 48.4093 140.396 48.5232 140.763 48.6738C141.099 48.813 141.282 49.1041 141.239 49.3889C141.186 49.7356 140.96 49.9179 140.624 49.9913C140.168 50.0888 139.751 49.9749 139.345 49.7799C139.15 49.6876 139.009 49.5863 139.059 49.3344C139.072 49.2737 138.976 49.1902 138.931 49.1193C138.867 49.1762 138.778 49.2218 138.745 49.2939C138.632 49.542 138.539 49.8002 138.418 50.1039C139.438 50.5545 140.452 50.7406 141.473 50.1596ZM61.3844 46.1058C61.433 46.159 61.4841 46.2577 61.5315 46.2577C61.8678 46.2501 61.8256 46.4817 61.8256 46.6868C61.8231 47.4639 61.8116 48.2397 61.818 49.0155C61.8218 49.5724 61.9881 50.0824 62.5355 50.3216C63.198 50.6102 63.9015 50.6178 64.5564 50.2989C64.7956 50.1824 65.0092 49.9445 65.1447 49.7103C65.4376 49.2117 65.4108 48.6396 65.4082 48.0815C65.4044 47.4942 65.4082 46.9057 65.4082 46.3982L65.8431 46.1223L65.7919 46.0375H64.3019C64.3863 46.1413 64.4298 46.2476 64.4771 46.2476C64.8224 46.2539 64.8096 46.4881 64.8135 46.7222C64.8173 46.907 64.8518 47.093 64.8455 47.2791C64.8263 47.9309 64.8493 48.5915 64.7559 49.2345C64.6792 49.7572 64.2724 49.9837 63.702 49.9711C63.1865 49.9584 62.845 49.7053 62.7529 49.1826C62.5828 48.227 62.7146 47.2715 62.7683 46.3982C62.9486 46.2742 63.0625 46.1957 63.175 46.116L63.12 46.0324H61.4394L61.3844 46.1058ZM134.012 46.5311C134.328 46.5425 134.608 46.6032 134.703 46.9525C134.965 46.8513 134.956 46.5956 134.693 45.9995C133.704 45.9995 132.71 45.9957 131.716 46.0046C131.601 46.0046 131.486 46.0666 131.371 46.0995L131.686 46.302L131.741 46.3438C131.747 46.3716 131.761 46.402 131.761 46.4336C131.765 47.5917 131.774 48.751 131.761 49.909C131.761 49.9951 131.624 50.0824 131.544 50.1634C131.48 50.228 131.404 50.2837 131.334 50.3419C132.328 50.4204 133.265 50.4204 134.204 50.4204C134.959 50.4204 134.963 50.4216 135.142 49.704C135.165 49.6078 135.116 49.4939 135.102 49.3901C135.018 49.4521 134.931 49.5078 134.853 49.5762C134.751 49.6622 134.666 49.8293 134.561 49.8394C134.003 49.8976 133.44 49.9255 132.879 49.9432C132.805 49.9457 132.663 49.8356 132.66 49.7749C132.642 49.2648 132.651 48.7548 132.651 48.2144C133.032 48.2144 133.384 48.2118 133.735 48.2144C133.892 48.2156 134.042 48.2283 134.091 48.427C134.103 48.4726 134.198 48.5131 134.26 48.5244C134.281 48.5282 134.346 48.4346 134.347 48.3852C134.355 48.0941 134.351 47.8018 134.351 47.5094L134.301 47.4335C133.832 48.0233 133.224 47.7575 132.654 47.8106V46.4691C133.133 46.4931 133.572 46.5172 134.012 46.5324V46.5311ZM98.9997 46.5197C99.2964 46.5399 99.6392 46.5159 99.7774 46.8918C99.7889 46.9196 99.904 46.9412 99.9436 46.9184C99.9846 46.8956 100.018 46.8108 100.009 46.7602C99.9871 46.6209 99.9181 46.4855 99.9117 46.3463C99.8989 46.0375 99.7352 45.9919 99.455 45.997C98.6045 46.016 97.7526 45.9995 96.9021 46.0071C96.7524 46.0071 96.6028 46.0641 96.4544 46.0957L96.8573 46.4146C96.8573 47.5347 96.8611 48.7358 96.8471 49.9356C96.8471 50.0116 96.7179 50.09 96.6424 50.1609C96.5759 50.2267 96.503 50.2849 96.4327 50.3469L96.4915 50.414H100.06C100.132 50.1318 100.205 49.8685 100.257 49.6015C100.27 49.5382 100.214 49.461 100.189 49.3901C100.12 49.4256 100.036 49.4458 99.9859 49.5002C99.8938 49.6015 99.84 49.7989 99.739 49.8217C99.0932 49.9705 98.4259 50.0048 97.768 49.923C97.7526 49.5863 97.7245 49.2813 97.7271 48.9763C97.7347 48.0435 97.594 48.2194 98.4804 48.2131C98.7516 48.2106 99.0944 48.0916 99.2235 48.4979C99.2312 48.5232 99.3386 48.5181 99.4141 48.5282V47.3866C98.9242 48.0233 98.318 47.7524 97.7514 47.8132V46.5134C98.1837 46.5134 98.5942 46.4931 98.9997 46.5197ZM127.504 49.5635C126.462 50.333 125.083 49.8799 124.778 48.6396C124.607 47.9536 124.655 47.2639 125.256 46.7741C125.808 46.3235 126.447 46.3109 127.098 46.5855C127.277 46.6614 127.391 46.7627 127.392 46.9728C127.392 47.0335 127.474 47.093 127.52 47.1525C127.576 47.1044 127.671 47.0639 127.686 47.0057C127.756 46.7437 127.802 46.4767 127.861 46.1957C127.209 45.9135 126.54 45.8717 125.87 45.9742C124.937 46.116 124.221 46.5944 123.95 47.5157C123.68 48.4295 123.803 49.3028 124.55 49.9913C125.362 50.7418 127.144 50.7722 128.057 49.5888L127.823 49.3104C127.709 49.4015 127.611 49.4876 127.504 49.5635ZM110.877 46.2564C111.167 46.2552 111.238 46.4589 111.314 46.6665C111.734 47.8056 112.189 48.9345 112.555 50.09C112.708 50.5684 113.023 50.39 113.302 50.4368C113.594 50.4862 113.577 50.247 113.637 50.0888C114.09 48.9155 114.532 47.7385 114.997 46.5703C115.045 46.4476 115.214 46.3729 115.329 46.2754L115.589 46.0438H114.062L114.021 46.1375L114.426 46.3881L113.336 49.6217L113.243 49.604L112.156 46.3805C112.313 46.2754 112.427 46.1982 112.542 46.1236C112.525 46.094 112.508 46.0644 112.491 46.035H110.654C110.763 46.1489 110.821 46.2552 110.876 46.2552L110.877 46.2564ZM55.0851 49.9344C55.0851 50.0116 54.9533 50.09 54.8779 50.1634C54.8114 50.2267 54.7372 50.2811 54.6681 50.3381L54.7231 50.4014H56.588L56.6263 50.2963C56.524 50.2533 56.4191 50.2141 56.3219 50.1622C56.2094 50.1039 56.0124 50.0381 56.0085 49.9685C55.983 49.4154 55.9945 48.8611 55.9945 48.2726C56.3321 48.2726 56.6506 48.2688 56.9691 48.2751C57.161 48.2776 57.3733 48.2473 57.4385 48.5181C57.4487 48.5611 57.5818 48.5751 57.6777 48.6067V47.4778C57.1712 48.0498 56.5752 47.8372 55.9958 47.8638V46.4589C56.4613 46.4805 56.8988 46.4969 57.3375 46.5235C57.5715 46.5374 57.7979 46.5779 57.9054 46.8374C57.9233 46.8804 58.023 46.8893 58.0844 46.9146C58.1075 46.8513 58.1612 46.7842 58.1484 46.7285C58.1023 46.4944 58.0371 46.264 57.9796 46.0337H54.7193L54.6719 46.1299L55.094 46.3779C55.094 47.5297 55.0979 48.732 55.0851 49.9344ZM118.526 46.1147C118.604 46.1704 118.676 46.264 118.758 46.2716C118.953 46.2894 118.994 46.3957 118.994 46.5564L118.998 49.866C118.998 50.0609 118.926 50.1672 118.708 50.1773C118.645 50.1811 118.59 50.2989 118.488 50.409H120.403C120.339 50.3077 120.301 50.1875 120.262 50.1875C119.883 50.19 119.931 49.9141 119.915 49.6838C119.897 49.4551 119.888 49.2259 119.888 48.9965C119.895 48.1043 119.908 47.212 119.918 46.3729C120.105 46.2362 120.396 46.3501 120.341 46.0337H118.575C118.559 46.0607 118.542 46.0877 118.526 46.1147Z" fill="#C5C5C5"/>
</svg>
