<svg width="164" height="81" viewBox="0 0 164 81" fill="none" xmlns="http://www.w3.org/2000/svg">
<path d="M72.0173 43.0802V33.5007C71.5415 33.5007 71.0708 33.5184 70.5988 33.4893C70.4709 33.483 70.3507 33.3374 70.2279 33.2552C70.3494 33.1919 70.4709 33.078 70.5924 33.0755C71.7423 33.0628 72.8896 33.0666 74.1123 33.0666V35.2561C74.152 35.265 74.1916 35.2738 74.2287 35.2802L74.5357 34.7549C75.7124 32.8211 78.3971 32.1516 80.3553 33.2868C81.4195 33.9019 81.7341 34.8929 81.7418 36.0231C81.7597 38.162 81.7469 40.2996 81.7469 42.4348V43.0473H83.4711C83.6259 43.3789 83.5734 43.5321 83.2127 43.5321C81.5142 43.5257 79.8169 43.5321 78.1209 43.5207C78.0083 43.5207 77.8957 43.3814 77.7819 43.3055C77.9034 43.2245 78.0211 43.0802 78.1477 43.0714C78.6184 43.0423 79.0916 43.06 79.593 43.06C79.6045 42.8296 79.6199 42.6562 79.6199 42.4841C79.6199 40.168 79.6288 37.8545 79.6148 35.5396C79.6109 34.6917 79.5329 33.7931 78.6274 33.4235C77.5811 32.9957 76.6039 33.3552 75.7725 34.0437C74.7979 34.8486 74.2607 35.9231 74.23 37.1774C74.1814 39.1163 74.2172 41.0552 74.2172 43.0536H75.9439C76.0872 43.4106 75.981 43.5295 75.6638 43.5295C73.9665 43.5257 72.2667 43.5738 70.5732 43.4966C70.1409 43.4764 69.8096 43.565 69.4272 43.6763C68.2403 44.0193 66.6773 44.0725 66.0122 42.15C65.6042 43.0043 64.9736 43.6004 64.077 43.7054C63.2494 43.8004 62.381 43.8156 61.5675 43.67C60.4458 43.4675 59.9124 42.7891 59.8152 41.7045C59.7206 40.6515 60.048 39.7402 61.0367 39.2644C61.8553 38.8695 62.7481 38.624 63.605 38.3113C63.738 38.2633 63.8749 38.2253 64.0053 38.1747C64.6832 37.9013 65.5108 37.8203 65.828 37.0356C66.2104 36.0864 66.1298 35.0967 65.8472 34.1285C65.7065 33.6475 65.3726 33.3147 64.8661 33.2856C64.3635 33.2552 63.8429 33.2552 63.3556 33.3615C62.7455 33.4944 62.5242 33.8601 62.5498 34.4917C62.5664 34.8764 62.6508 35.2625 62.6636 35.6485C62.6854 36.2484 62.3784 36.5547 61.7721 36.5812C60.9395 36.6192 60.5814 36.361 60.5302 35.7054C60.4547 34.7309 60.8666 33.9905 61.6442 33.4476C62.9425 32.5414 65.4762 32.5199 66.7988 33.3919C67.8578 34.0905 68.1494 35.1511 68.1546 36.3332C68.1674 38.2582 68.1546 40.1845 68.1597 42.1095C68.1597 43.2359 68.638 43.5321 69.6638 43.0777C69.8301 43.0043 70.0603 43.0777 70.2586 43.0777H72.0185L72.0173 43.0802ZM66.0007 37.8886C65.0631 38.2873 64.242 38.6442 63.417 38.9872C61.8873 39.6251 61.6724 41.1476 62.1623 42.3955C62.3784 42.9473 62.8491 43.2258 63.4464 43.2612C64.7203 43.3371 65.6592 42.5854 65.8229 41.2324C65.9533 40.1376 65.9469 39.0277 66.0007 37.8886ZM112.285 43.0574C111.793 43.0574 111.335 43.0663 110.878 43.0562C110.541 43.0473 110.419 43.16 110.579 43.5283C112.374 43.5283 114.176 43.5346 115.977 43.5143C116.084 43.5143 116.188 43.3068 116.294 43.1954L116.194 43.0473H114.442C114.442 41.2615 114.434 39.5301 114.446 37.8013C114.448 37.3988 114.467 36.9862 114.556 36.5939C114.912 35.0093 115.745 33.8095 117.39 33.3526C118.706 32.9856 119.589 33.5273 119.827 34.8056C119.853 34.9435 119.853 35.0878 119.853 35.227C119.859 37.7178 119.86 40.2085 119.859 42.6993C119.859 42.8132 119.825 42.9296 119.802 43.0752H118.088C118.003 43.3865 118.045 43.5434 118.39 43.5346C119.044 43.5169 119.699 43.5295 120.354 43.5295H123.728C123.85 43.2081 123.816 43.0473 123.464 43.0562C122.993 43.0688 122.52 43.06 121.989 43.06V42.4335C121.986 40.1731 122.001 37.9101 121.965 35.6497C121.947 34.5474 121.447 33.6931 120.426 33.1843C118.789 32.3705 116.653 32.7008 115.374 34.0019C115.042 34.3386 114.774 34.7423 114.421 35.1865V25.993H110.561C110.419 26.3879 110.565 26.4942 110.892 26.4828C111.348 26.4702 111.803 26.479 112.282 26.479V43.06L112.285 43.0574ZM91.8092 34.6372V26.479C91.3078 26.479 90.8345 26.4917 90.3638 26.4676C90.2487 26.4613 90.1375 26.3284 90.0249 26.255C90.1426 26.1689 90.259 26.0069 90.3792 26.0044C91.5431 25.9842 92.7096 25.993 93.9388 25.993V43.0511H95.7243L95.8241 43.1992C95.7154 43.3106 95.6092 43.5118 95.5018 43.5143C94.3212 43.5371 93.1381 43.527 91.9 43.527V41.9171C91.8104 41.9171 91.7631 41.9083 91.7554 41.9171C90.9138 43.7383 89.0989 44.2256 87.2276 43.5877C85.3347 42.941 83.3394 40.7224 83.544 37.7418C83.6988 35.5017 85.3705 33.3552 87.5794 32.8489C89.2818 32.4591 90.6772 32.854 91.6173 34.3803C91.6518 34.436 91.6966 34.4866 91.8117 34.6372H91.8092ZM85.9064 38.1544C86.0189 39.3087 86.0586 40.3351 86.2325 41.3362C86.4436 42.5411 87.1701 43.2372 88.1677 43.3663C89.6207 43.5523 90.6222 43.1068 91.2029 41.9703C91.3935 41.5994 91.5764 41.1881 91.6122 40.7818C91.7184 39.5744 91.8002 38.3607 91.7887 37.1482C91.7823 36.2547 91.6582 35.3536 91.1696 34.555C90.5135 33.4855 89.5197 33.1046 88.3251 33.2197C87.1739 33.3298 86.5024 34.0551 86.2952 35.141C86.0982 36.1737 86.0202 37.228 85.9051 38.1531L85.9064 38.1544ZM40.407 43.2992C40.613 43.1929 40.8291 43.0207 41.0376 43.022C41.3625 43.0271 41.6989 43.1233 42.0097 43.2372C43.6852 43.8421 45.3927 44.051 47.1642 43.7978C50.3362 43.346 52.6283 40.0934 51.889 37.0002C51.5155 35.4359 50.4168 34.5132 48.9485 33.9994C47.9188 33.6387 46.8611 33.3526 45.8404 32.9717C44.8223 32.592 43.7594 32.2503 42.8474 31.6833C41.475 30.829 41.287 28.9179 42.2604 27.6244C43.4742 26.0107 46.9365 25.4703 48.6901 27.7219C49.2759 28.4749 49.634 29.3267 49.831 30.2531C49.9167 30.6556 49.9282 30.6505 50.3298 30.5847V26.1462C50.1188 26.231 49.8886 26.2461 49.8131 26.3613C49.5253 26.8131 49.1506 26.7688 48.7451 26.6182C48.433 26.5005 48.1324 26.3499 47.8255 26.2196C45.6767 25.3071 43.1762 25.7804 41.6144 27.3941C39.3633 29.7254 39.9939 33.359 42.9152 34.7094C43.7415 35.0916 44.6394 35.3194 45.4989 35.6308C46.4415 35.9725 47.4366 36.2193 48.3102 36.6913C51.0691 38.1835 50.1827 41.8741 48.3141 42.8828C47.145 43.5143 45.9197 43.5232 44.656 43.3903C43.1582 43.2346 42.002 42.5132 41.3139 41.1881C40.8803 40.3528 40.6232 39.4264 40.2753 38.5468C40.2241 38.4177 40.1218 38.3114 40.0425 38.1962C39.976 38.3341 39.8506 38.4683 39.8506 38.6088C39.8379 40.2161 39.8417 41.8209 39.8417 43.646C40.1052 43.484 40.251 43.3814 40.407 43.3017V43.2992ZM58.5336 42.8208C58.1282 43.3878 57.5027 43.4966 56.867 43.3435C56.2697 43.2017 56.0791 42.679 55.9755 42.1424C55.9289 41.8635 55.9088 41.5809 55.9154 41.2982C55.9116 38.8784 55.9128 36.4585 55.9154 34.0386C55.9154 33.8703 55.9372 33.7019 55.9538 33.5007C56.9553 33.5007 57.9056 33.5032 58.8585 33.5007C59.232 33.5007 59.232 33.4893 59.1859 33.0552H55.9013V29.9646L53.7679 30.1329V33.0793H51.9542C51.9632 33.2286 51.9593 33.3881 51.9747 33.3893C52.5541 33.4564 53.1373 33.5096 53.7692 33.5665V34.1905C53.7692 36.4851 53.7628 38.7834 53.7692 41.0793C53.7743 42.6461 54.4535 43.5257 55.8374 43.7738C56.1316 43.8269 56.4334 43.8358 56.7353 43.8573C58.32 43.9738 59.3522 43.146 59.6195 41.5286C59.5031 41.4843 59.3791 41.44 59.3189 41.4185C59.0427 41.9209 58.8329 42.4056 58.5323 42.8271L58.5336 42.8208ZM107.47 32.8185C107.228 32.7692 106.982 32.7388 106.736 32.7274C104.973 32.6135 103.489 33.6842 103.164 35.3688C102.854 36.9837 103.482 38.3493 105.349 38.9315C106.22 39.2049 107.087 39.5213 107.912 39.9136C108.732 40.3034 108.991 41.0616 108.768 42.0209C108.577 42.836 107.975 43.3283 107.105 43.3865C105.619 43.4814 104.556 42.8081 103.85 41.545C103.62 41.1324 103.488 40.6667 103.298 40.2326C103.262 40.1528 103.163 40.0579 103.09 40.0554C103.024 40.0529 102.895 40.1668 102.893 40.23C102.881 41.3159 102.884 42.4044 102.884 43.5295C103.063 43.5004 103.209 43.5207 103.255 43.4637C103.583 43.0461 103.972 43.1853 104.366 43.308C104.836 43.4549 105.3 43.632 105.78 43.7358C106.966 43.9953 108.098 43.8573 109.126 43.1688C111.156 41.8057 111.054 39.0454 108.92 37.8772C108.583 37.6937 108.213 37.5646 107.85 37.4254C106.93 37.0723 105.992 36.7622 105.087 36.3775C103.946 35.8877 104.087 34.4664 104.716 33.8336C105.673 32.8742 107.619 33.016 108.365 34.1436C108.662 34.5929 108.829 35.127 109.078 35.6118C109.148 35.7548 109.291 35.8586 109.402 35.9788L109.528 35.8826V32.9907C108.745 33.4678 108.131 32.9628 107.466 32.8185H107.47ZM100.335 33.0995H96.424C96.424 33.2197 96.415 33.3779 96.424 33.3817C96.9995 33.4501 97.5828 33.5058 98.1852 33.5627V43.06C97.6838 43.06 97.2106 43.0688 96.7373 43.0574C96.3945 43.0486 96.3485 43.2106 96.4636 43.5295C98.2722 43.5295 100.092 43.5346 101.908 43.5194C101.999 43.5194 102.09 43.3701 102.181 43.2929C102.091 43.2156 102.002 43.0752 101.908 43.0714C101.416 43.0486 100.921 43.06 100.335 43.06V33.0995ZM92.9258 49.2198L92.363 54.705H93.2622C93.3837 53.5912 93.5052 52.5028 93.6382 51.303L95.4621 53.976L97.286 51.3232C97.4139 52.5332 97.529 53.6128 97.6467 54.6974H98.5996C98.4077 52.8344 98.2159 51.0106 98.0266 49.1894L97.8872 49.1666C97.0942 50.3019 96.2999 51.4333 95.4902 52.5889L93.0729 49.1742C93.0236 49.1896 92.9746 49.2056 92.9258 49.2223V49.2198ZM45.2456 51.3207L45.6063 54.6936H46.5605C46.3661 52.8281 46.1768 51.0068 45.9849 49.1831C45.9403 49.1761 45.8955 49.1702 45.8506 49.1654C45.0602 50.2918 44.2685 51.4232 43.4524 52.5838L41.0222 49.1565C40.9785 49.1673 40.935 49.1791 40.8918 49.1919L40.3252 54.6999H41.2282C41.3522 53.5837 41.4712 52.4977 41.6017 51.2992L42.4995 52.6281C42.786 53.0496 43.0789 53.4659 43.4281 53.976L45.2431 51.3232L45.2456 51.3207ZM76.6717 49.5058C76.0348 49.8191 75.5415 50.3594 75.2909 51.018C75.0403 51.6767 75.0511 52.4048 75.321 53.0559C75.9081 54.486 77.7487 55.2036 79.4191 54.6582C80.6124 54.2684 81.3837 53.0635 81.1279 51.9877H78.3933V52.7167H80.1507C79.9026 53.5748 79.2771 54 78.3217 54.0241C77.3048 54.0494 76.5182 53.5368 76.2176 52.6597C75.9235 51.7991 76.1857 50.8157 76.9377 50.3664C77.3266 50.1336 77.8177 50.0045 78.2756 49.9614C78.9612 49.9007 79.5176 50.2601 79.9665 50.774C80.2146 50.6031 80.4295 50.4588 80.6418 50.3145C79.9333 49.154 78.0825 48.792 76.6717 49.5058ZM114.094 52.9103C112.779 51.6118 111.524 50.3766 110.176 49.0477V54.6999H111.029V51.0638L114.941 54.9202V49.2451H114.096V52.9103L114.094 52.9078V52.9103ZM58.8099 49.2071V54.6936H59.7027V51.1562L59.9546 50.9613C61.1608 52.2307 62.3656 53.4976 63.5679 54.7657V49.2527H62.725V52.8395C62.6849 52.8691 62.6444 52.8982 62.6035 52.9268L58.9493 49.1299L58.8124 49.2059L58.8099 49.2071ZM85.7683 49.9867H88.554V49.2603H84.809V54.7025H88.7075V53.9646H85.7746V52.8825H88.2445V52.1282H85.7683V49.9867ZM102.471 54.6949H106.34V53.9507H103.433V52.8749H105.898V52.1117H103.433V49.9893H106.247V49.2489H102.474V54.6961L102.471 54.6949ZM55.281 54.6911C54.6914 54.767 54.1938 54.867 54.025 54.1747C54.0032 54.0836 53.7845 53.9861 53.6566 53.9849C52.9499 53.9671 52.2427 53.9671 51.536 53.9849C51.4081 53.9861 51.1932 54.0772 51.1689 54.1684C51.0001 54.7949 50.5626 54.7949 49.9832 54.6873C50.8402 52.8255 51.6907 50.9891 52.5963 49.0236C53.5262 50.9853 54.387 52.8078 55.281 54.6911ZM51.5846 53.209H53.5876L52.5809 50.8714C52.2279 51.6979 51.9171 52.4332 51.5846 53.209ZM72.4074 54.6911C71.8318 54.7733 71.3215 54.867 71.1475 54.157C71.1271 54.076 70.9352 53.9849 70.8226 53.9823C70.0988 53.9657 69.3747 53.9657 68.6508 53.9823C68.5255 53.9861 68.3144 54.0886 68.2901 54.1861C68.1226 54.8316 67.6672 54.7911 67.116 54.6873L69.7329 49.0211C70.6653 50.998 71.5325 52.8319 72.4125 54.6885L72.4074 54.6911ZM69.715 50.8727L68.7148 53.204H70.7203L69.715 50.8727ZM120.82 49.9829H122.527V49.2539H118.065V50.0045H119.834V54.7088H120.819L120.82 49.9829ZM99.2519 26.1753C98.5024 26.1727 97.9486 26.722 97.9447 27.4738C97.9422 28.2091 98.5203 28.8052 99.2404 28.8103C99.9592 28.8141 100.536 28.2243 100.54 27.4865C100.542 26.7271 100.003 26.1791 99.2519 26.1778V26.1753Z" fill="#C5C5C5"/>
</svg>
