<svg width="163" height="81" viewBox="0 0 163 81" fill="none" xmlns="http://www.w3.org/2000/svg">
<path d="M40.9404 53.5389H30.2054C29.7194 53.5389 29.2602 53.4579 28.8471 53.1719C28.5968 53.0046 28.3898 52.7813 28.2432 52.52C28.0965 52.2588 28.0142 51.967 28.0029 51.6683C27.9946 51.5588 27.9899 51.4491 27.9888 51.3392V29.8236C27.9888 29.368 28.0502 28.9377 28.3086 28.5415C28.6578 27.9973 29.163 27.7277 29.7833 27.6404C29.9202 27.6214 30.0622 27.6214 30.2003 27.6214C37.3872 27.6214 44.5729 27.6214 51.7611 27.6189C52.4249 27.6189 53.0171 27.7758 53.4789 28.2897C53.8152 28.6605 53.9994 29.1009 54.0007 29.5933C54.0071 36.9149 54.0071 44.2378 54.0033 51.5595C53.9972 52.0459 53.8121 52.5134 53.4827 52.8745C53.1533 53.2356 52.7022 53.4655 52.2139 53.5212C52.0348 53.5389 51.8557 53.5389 51.6767 53.5389H40.9404ZM43.0828 42.2305V42.3166C42.763 42.3761 42.4369 42.4077 42.1274 42.4963C41.3152 42.7279 40.5209 43.0026 39.7854 43.4379C38.5882 44.1467 37.5599 45.0086 37.0061 46.3312C36.5021 47.536 36.7643 48.7029 37.8541 49.5142C38.8773 50.2761 40.0796 50.5166 41.3011 50.6153C43.2427 50.7735 45.1561 50.5735 47.0069 49.9281C48.0698 49.5572 49.0521 49.0421 49.8336 48.2106C50.7724 47.212 50.7443 46.0464 49.8796 45.0149C49.1941 44.1973 48.2629 43.7341 47.3203 43.3202C46.3495 42.895 45.3365 42.5672 44.3567 42.1622C43.9416 41.9795 43.5454 41.7574 43.1736 41.499C43.0905 41.4446 43.0777 41.2029 43.1186 41.075C43.1468 40.9826 43.3194 40.8826 43.4294 40.8801C44.0076 40.8624 44.4603 40.5916 44.8492 40.203C45.9619 39.0867 46.2945 37.6819 46.2177 36.1707C46.1717 35.2544 45.9325 34.3761 45.1958 33.723C45.1344 33.6673 45.1242 33.48 45.1676 33.3914C45.4874 32.7295 45.8455 32.084 46.1525 31.417C46.2804 31.1386 46.3546 30.8197 46.384 30.5121C46.3968 30.3906 46.2382 30.1704 46.1231 30.1451C46.0067 30.1172 45.8327 30.2565 45.7138 30.359C45.6383 30.4235 45.6102 30.5488 45.5731 30.6513C45.2661 31.4993 44.9707 32.3523 44.6522 33.1965C44.6138 33.294 44.4565 33.4053 44.3542 33.4066C43.6264 33.4167 43.0687 33.7319 42.6671 34.3178C41.6273 35.8379 41.4073 37.5098 41.7731 39.2854C41.7961 39.3981 41.8229 39.5449 41.7731 39.6322C41.6183 39.9069 41.4584 40.1891 41.241 40.4169C40.934 40.7371 40.5874 40.6738 40.3994 40.2777C40.2638 39.9916 40.1308 39.6866 40.0962 39.3791C39.9942 38.4194 39.9178 37.4572 39.8673 36.4935C39.8276 35.7366 39.8494 34.9747 39.8085 34.2179C39.7982 34.0457 39.6473 33.8799 39.5616 33.7116C39.4043 33.8141 39.1702 33.8787 39.1011 34.0242C38.8198 34.6102 38.532 35.2051 38.3491 35.8265C38.0255 36.9225 37.7799 38.0426 37.4972 39.1525C37.4039 39.517 37.2926 39.8777 37.1915 40.2397L37.0803 40.2271C37.0393 40.0144 36.9767 39.8031 36.9651 39.5892C36.8986 38.4539 36.85 37.3174 36.7861 36.1834C36.7592 35.7366 36.7221 35.2873 36.6505 34.8481C36.5929 34.4887 36.3333 34.4305 36.0749 34.6925C36.0055 34.7633 35.9477 34.8445 35.9035 34.9329C35.4098 35.9454 35.1988 37.0427 34.9276 38.1223C34.7268 38.9131 34.514 39.7008 34.2894 40.4852C34.251 40.6194 34.1308 40.7295 34.017 40.8966C33.9607 40.7789 33.9261 40.7371 33.921 40.6928C33.8699 40.2397 33.7803 39.7853 33.7867 39.3323C33.8021 38.2058 33.8609 37.0794 33.907 35.9543C33.9261 35.4658 33.9543 34.9785 33.9811 34.4887C34.0067 34.0116 34.0515 33.5344 34.0502 33.0586C34.0502 32.932 33.9121 32.8054 33.8366 32.6789C33.7138 32.7586 33.513 32.8156 33.4823 32.9231C33.3659 33.3104 33.2457 33.7129 33.238 34.1128C33.206 36.0796 33.1894 38.0476 33.215 40.0144C33.2227 40.5827 33.3544 41.1573 33.5002 41.7104C33.6102 42.1242 34.0144 42.1799 34.2203 41.8091C34.4966 41.3104 34.7435 40.7776 34.8995 40.2296C35.1886 39.2158 35.3932 38.1793 35.6503 37.1541C35.7309 36.8276 35.8601 36.5112 35.9675 36.1897L36.0545 36.1998C36.0673 36.3011 36.0928 36.4036 36.0967 36.5074C36.1478 37.6629 36.176 38.8197 36.2527 39.9727C36.2821 40.4131 36.3909 40.8561 36.52 41.2788C36.6057 41.5623 36.8615 41.6205 37.0828 41.4243C37.2619 41.2649 37.4435 41.0548 37.51 40.8333C37.7275 40.1207 37.8861 39.3905 38.0817 38.6716C38.3593 37.654 38.6471 36.6415 38.9413 35.629C38.9694 35.5303 39.0628 35.4493 39.1267 35.3595L39.2035 35.3848C39.2124 35.4987 39.229 35.6126 39.229 35.729C39.2585 36.8554 39.2713 37.9818 39.3199 39.1082C39.348 39.7385 39.4861 40.3486 39.8021 40.9118C40.2472 41.7066 41.0171 41.7635 41.5326 41.0206C41.7245 40.746 41.8779 40.4447 42.0736 40.1144C42.2233 40.2498 42.3691 40.403 42.5354 40.5283C42.6953 40.6485 42.7144 40.7637 42.6236 40.9358C42.3678 41.4142 42.4369 41.718 42.8577 42.0559L43.0879 42.2356L43.0828 42.2305ZM125.373 43.7506C125.373 44.3606 125.355 44.9706 125.379 45.5781C125.392 45.9034 125.454 46.2299 125.535 46.5476C125.616 46.8729 125.855 47.0386 126.191 47.0576C126.35 47.0678 126.511 47.0703 126.669 47.0602C126.912 47.045 127.044 47.1209 127.043 47.3918C127.043 47.6639 126.905 47.7411 126.667 47.7284C126.08 47.6968 125.494 47.6424 124.908 47.6449C124.073 47.6487 123.237 47.6892 122.401 47.7259C122.041 47.7411 121.896 47.612 121.977 47.2779C121.996 47.1956 122.105 47.1336 122.179 47.0678C122.195 47.0513 122.238 47.0589 122.266 47.0627C123.327 47.1614 123.563 46.5324 123.59 45.6515C123.618 44.6542 123.596 43.6544 123.596 42.6558C123.596 40.4473 123.6 38.24 123.592 36.0328C123.592 35.7569 123.55 35.4746 123.486 35.2051C123.371 34.7127 123.028 34.5077 122.357 34.4887C122.183 34.4849 122.007 34.4963 121.966 34.2609C121.918 33.9799 122 33.8622 122.286 33.8673C122.903 33.8774 123.519 33.923 124.134 33.9154C125.229 33.9002 126.324 33.8268 127.418 33.8331C128.962 33.8432 130.343 34.2482 131.16 35.7138C132.218 37.6059 131.576 40.1094 129.352 40.9814C129.297 41.0029 129.236 41.0105 129.179 41.0257C129.001 41.0763 128.924 41.1472 129.047 41.3446C129.624 42.2736 130.186 43.2127 130.756 44.1454C131.104 44.715 131.47 45.2718 131.801 45.8477C132.323 46.7551 133.066 47.2854 134.134 47.2956C134.332 47.2981 134.46 47.3335 134.449 47.5753C134.437 47.8132 134.275 47.7778 134.129 47.779C133.659 47.7816 133.193 47.779 132.723 47.779C131.589 47.7854 130.695 47.3234 130.082 46.3679C129.313 45.1706 128.571 43.9569 127.818 42.7494C127.72 42.59 127.604 42.4381 127.525 42.2685C127.231 41.6357 126.69 41.4585 126.057 41.4484C125.599 41.4421 125.37 41.6686 125.37 42.128V43.7455L125.373 43.7506ZM125.404 34.7115C125.39 34.7684 125.376 34.7963 125.376 34.8254C125.374 36.6504 125.376 38.4767 125.37 40.303C125.37 40.4954 125.453 40.5713 125.636 40.5764C126.073 40.589 126.511 40.6295 126.947 40.6169C128.385 40.5776 129.427 39.8461 129.726 38.5666C130.031 37.2693 129.289 35.5645 128.08 34.9671C127.221 34.5431 126.325 34.6368 125.406 34.7102L125.404 34.7115ZM87.9439 47.936C85.4779 47.8765 83.4187 46.9868 81.9426 44.9415C80.936 43.5493 80.5613 41.9673 80.7224 40.2751C80.9527 37.8274 82.1179 35.9416 84.2321 34.6608C85.6679 33.7757 87.3793 33.4357 89.049 33.704C91.3577 34.0508 93.1483 35.2494 94.3481 37.2807C94.914 38.2249 95.2262 39.2967 95.2549 40.3941C95.3406 43.4316 94.0411 45.6882 91.3999 47.1399C90.3408 47.7221 89.1641 47.9524 87.9439 47.936ZM87.8531 34.4811C87.431 34.5444 87.0064 34.5887 86.5907 34.6786C84.9203 35.0418 83.7921 36.0707 83.1884 37.6376C82.6346 39.0715 82.5668 40.57 82.8559 42.0825C83.1411 43.5835 83.8024 44.8795 84.9407 45.9148C85.5943 46.5096 86.349 46.902 87.2251 47.0627C87.8301 47.1741 88.4261 47.1576 89.0337 47.0678C90.4815 46.8539 91.6109 46.1565 92.3502 44.8871C93.1752 43.4696 93.376 41.9217 93.2417 40.3055C93.1522 39.2361 92.858 38.2299 92.3272 37.3047C91.3385 35.5835 89.9328 34.509 87.8518 34.4798L87.8531 34.4811ZM117.189 33.9179L116.89 33.9217C114.799 33.904 112.707 33.8837 110.615 33.8673C110.408 33.866 110.183 33.8255 110.185 34.1622C110.186 34.4659 110.364 34.4976 110.6 34.4912C110.698 34.4887 110.797 34.5102 110.896 34.5191C111.371 34.5608 111.669 34.8102 111.753 35.2848C111.801 35.5582 111.85 35.8353 111.85 36.1112C111.858 39.2285 111.859 42.3444 111.85 45.4617C111.85 45.7781 111.787 46.0958 111.712 46.4046C111.623 46.7855 111.335 47.007 110.944 47.045C110.815 47.0605 110.685 47.0648 110.556 47.0576C110.281 47.0349 110.176 47.1551 110.188 47.4247C110.198 47.6879 110.351 47.7309 110.568 47.7259C111.613 47.7044 112.658 47.6854 113.703 47.6677C114.41 47.6575 115.117 47.6373 115.824 47.6449C117.248 47.6626 118.67 47.6968 120.093 47.7259C120.314 47.7309 120.419 47.6246 120.438 47.4057C120.471 47.0386 120.515 46.6716 120.553 46.3046C120.625 45.6705 120.701 45.0364 120.765 44.4024C120.772 44.3302 120.73 44.2125 120.676 44.1821C120.465 44.067 120.208 44.1935 120.136 44.4327C120.104 44.5377 120.077 44.6441 120.056 44.7517C119.821 45.992 119.071 46.5324 118.041 46.7501C116.939 46.9804 115.821 46.9273 114.705 46.8944C114.084 46.8766 113.731 46.5463 113.636 45.935C113.614 45.7968 113.603 45.6572 113.601 45.5174C113.599 44.0606 113.601 42.6014 113.595 41.1434C113.595 40.9295 113.672 40.8713 113.874 40.8738C114.533 40.8826 115.19 40.8611 115.847 40.8826C116.231 40.8978 116.623 40.9497 116.999 41.0307C117.515 41.1421 117.65 41.5673 117.71 42.023C117.735 42.2204 117.845 42.2685 118.019 42.2596C118.186 42.2508 118.316 42.2065 118.316 42.0065C118.316 40.9257 118.32 39.8474 118.307 38.7691C118.307 38.6982 118.198 38.5817 118.123 38.5666C117.801 38.4931 117.739 38.5666 117.708 38.9133C117.679 39.231 117.641 39.5689 117.34 39.7537C117.142 39.8752 116.907 39.9853 116.683 39.998C115.74 40.0562 114.795 40.0714 113.851 40.1094C113.644 40.1182 113.598 40.0132 113.598 39.8347C113.6 38.1869 113.6 36.5378 113.598 34.8912C113.598 34.7203 113.646 34.6279 113.834 34.6305C115.037 34.6469 116.249 34.5457 117.431 34.8443C118.105 35.0139 118.698 35.3354 118.931 36.0669C119.025 36.3593 119.095 36.6593 119.161 36.9592C119.193 37.106 119.218 37.2212 119.411 37.2275C119.714 37.2389 119.782 37.1896 119.769 36.8719C119.726 35.9252 119.673 34.9798 119.623 34.0331C119.619 33.9761 119.595 33.9204 119.595 33.9192H117.189V33.9179ZM102.723 45.2794C102.551 44.8453 102.383 44.4099 102.207 43.9784C101.745 42.8469 101.277 41.718 100.815 40.5865C100.303 39.3361 99.784 38.0894 99.2916 36.8326C99.0929 36.3459 98.938 35.8428 98.8286 35.3291C98.7505 34.9355 99.0396 34.6203 99.4425 34.5482C99.6369 34.5115 99.8364 34.5026 100.035 34.4874C100.328 34.4647 100.234 34.2394 100.244 34.0774C100.253 33.9382 100.228 33.8167 100.037 33.8268C99.6702 33.8445 99.3018 33.8648 98.9347 33.8648C97.703 33.8635 96.47 33.8736 95.2383 33.8306C94.893 33.8179 94.8993 33.985 94.8661 34.2115C94.8252 34.4811 94.9978 34.4938 95.1743 34.4849C95.8791 34.452 96.3536 34.795 96.6414 35.4063C96.9074 35.972 97.1402 36.5529 97.3832 37.1275C97.9422 38.4463 98.5011 39.7626 99.0524 41.0826C99.9682 43.2721 100.885 45.4629 101.779 47.6639C101.883 47.9195 102.031 47.9284 102.233 47.9259C102.469 47.9233 102.696 47.9676 102.82 47.6563C103.108 46.9273 103.432 46.2109 103.744 45.4921C104.392 43.9971 105.042 42.5028 105.693 41.0092C106.466 39.2437 107.224 37.4693 108.02 35.7151C108.35 34.9861 108.842 34.4153 109.766 34.4824C110.075 34.5052 110 34.2546 110.01 34.0774C110.024 33.8496 109.903 33.8394 109.707 33.8407C108.516 33.8534 107.323 33.8584 106.132 33.8369C105.876 33.8319 105.826 33.9091 105.822 34.1318C105.816 34.3773 105.877 34.5153 106.155 34.4887C106.262 34.4786 106.372 34.5039 106.481 34.5241C106.847 34.595 107.012 34.7823 106.967 35.1481C106.932 35.4245 106.863 35.6956 106.762 35.9556C106.516 36.5934 106.244 37.2225 105.981 37.854C105.579 38.8159 105.178 39.7778 104.771 40.7371C104.267 41.9268 103.755 43.1139 103.245 44.3011C103.102 44.6352 102.95 44.9643 102.803 45.2971L102.723 45.2756V45.2794ZM66.6376 34.433C66.6376 34.2558 66.5993 34.1229 66.3882 34.0964C65.3049 33.9496 64.2266 33.7445 63.1395 33.661C61.9525 33.5699 60.8551 33.8926 59.9201 34.671C58.2139 36.0948 58.0527 38.8501 60.1056 40.1764C60.8679 40.6675 61.7133 41.0269 62.5191 41.4522C63.2098 41.8192 63.9389 42.1356 64.5784 42.5773C66.0135 43.567 66.0352 45.5819 64.6129 46.5881C63.4861 47.3854 62.239 47.4462 60.9983 46.8235C60.08 46.3628 59.5364 45.5832 59.342 44.5808C59.2908 44.3163 59.1847 44.2226 58.9327 44.2226C58.6462 44.2226 58.65 44.4125 58.6551 44.6112C58.673 45.3579 58.6973 46.1046 58.7089 46.8526C58.7178 47.493 58.7153 47.5082 59.3381 47.6272C60.7809 47.9031 62.2288 48.0777 63.6946 47.7993C64.4433 47.6698 65.147 47.356 65.741 46.8868C66.4125 46.3476 66.8116 45.6439 66.9843 44.8036C67.2311 43.6164 67.1224 42.5102 66.2923 41.5509C65.5786 40.7282 64.6167 40.2979 63.6626 39.8461C62.8747 39.474 62.0638 39.1272 61.3283 38.6665C59.9725 37.816 59.8088 36.0138 60.9766 35.0544C61.909 34.2875 63.0013 34.2546 64.0872 34.6077C65.287 34.9988 65.8127 35.9518 65.9073 37.1592C65.9303 37.4655 66.0928 37.4515 66.3012 37.4579C66.5353 37.4655 66.6491 37.3933 66.6402 37.1326C66.6236 36.6947 66.6351 36.2543 66.6351 35.8138V34.4343L66.6376 34.433ZM75.1548 38.7602V35.0734C75.1548 34.8975 75.142 34.714 75.4004 34.7229C76.3341 34.7545 77.2703 34.7507 78.2002 34.8317C78.7361 34.8798 79.1901 35.1987 79.3884 35.7176C79.5547 36.1568 79.648 36.6327 79.7056 37.1022C79.7504 37.4528 79.9576 37.4136 80.1891 37.4275C80.4577 37.4452 80.4705 37.2895 80.4679 37.0883C80.4641 36.1492 80.4679 35.2114 80.4654 34.271C80.4654 33.8205 80.4423 33.8053 79.987 33.8255C79.0533 33.8622 78.117 33.9217 77.1833 33.9166C74.2748 33.8989 71.3663 33.8572 68.459 33.8255C68.0868 33.8205 68.0714 33.8281 68.0714 34.2039C68.0714 35.1721 68.074 36.1404 68.0702 37.1111C68.0702 37.3035 68.0804 37.4579 68.3336 37.425C68.5306 37.3996 68.789 37.5211 68.8069 37.1478C68.8235 36.8314 68.876 36.5124 68.954 36.2062C69.1228 35.5404 69.4963 34.9342 70.4095 34.8266C71.246 34.7304 72.0966 34.7469 72.942 34.7241C73.3833 34.7115 73.3846 34.7241 73.3846 35.1633C73.3846 38.6286 73.3846 42.0951 73.382 45.5629C73.382 45.7718 73.3667 45.9818 73.3373 46.1881C73.2388 46.8615 73.0098 47.0538 72.3281 47.0614C72.2296 47.0614 72.1286 47.069 72.0301 47.0614C71.773 47.0412 71.6655 47.1551 71.6796 47.412C71.6924 47.7069 71.7947 47.7411 72.2117 47.7246C73.1556 47.6866 74.1008 47.6727 75.0448 47.6689C75.5628 47.6664 76.0795 47.7044 76.5963 47.7297C76.8521 47.7423 76.8521 47.5727 76.8521 47.3918C76.8521 47.2146 76.8585 47.0462 76.595 47.0589C76.3561 47.0702 76.1168 47.0647 75.8787 47.0424C75.5871 47.0133 75.3607 46.8551 75.2916 46.5666C75.2139 46.2677 75.1701 45.9612 75.1612 45.6528C75.1484 43.9252 75.1548 42.1964 75.1548 40.4688V38.7602ZM43.2376 49.818C44.2828 49.8025 45.3215 49.6527 46.3277 49.3725C47.2358 49.1231 48.0928 48.7776 48.8654 48.2283C49.7684 47.5867 49.9679 46.7602 49.4243 45.8186C49.0188 45.1162 48.3716 44.6783 47.6797 44.3277C46.7613 43.8632 45.8097 43.4582 44.8619 43.0507C44.3593 42.8342 43.8579 42.4811 43.2759 42.8545C42.0672 42.9823 40.9647 43.4139 39.9453 44.0568C39.0884 44.5985 38.3337 45.2554 37.8694 46.1844C37.5689 46.7855 37.4461 47.4019 37.7799 48.0372C38.0792 48.603 38.5767 48.9358 39.1306 49.2041C40.2331 49.7357 41.4239 49.7977 42.7106 49.8749C42.8232 49.861 43.0304 49.8205 43.2376 49.818ZM44.9681 34.6077C44.7059 34.2242 44.3286 33.9508 43.8502 34.1305C43.5594 34.2537 43.3066 34.4506 43.1173 34.7013C42.561 35.4177 42.3972 36.2821 42.2987 37.1604C42.2086 37.8543 42.2875 38.5595 42.529 39.2171C42.772 39.8537 43.322 40.2511 43.8272 40.1283C44.2646 40.0233 44.5818 39.7271 44.8249 39.3652C45.3646 38.5615 45.5552 37.6578 45.5437 36.701C45.536 35.9518 45.3966 35.2329 44.9681 34.6077Z" fill="#C5C5C5"/>
</svg>
