<svg width="166" height="38" viewBox="0 0 166 38" fill="none" xmlns="http://www.w3.org/2000/svg">
<path d="M19.1464 25.6926C19.3474 25.3288 19.3391 24.8855 19.1247 24.5295L14.5622 16.9516L9.65333 8.7985L5.79613 2.38512C5.33435 1.61731 4.21457 1.63729 3.78048 2.42109L0.4773 8.38522C0.275719 8.74919 0.283747 9.19308 0.498356 9.54952L5.0604 17.1266L9.62197 24.6916C9.83674 25.0478 9.84513 25.4915 9.64397 25.8556L3.95714 36.1473C3.52389 36.9314 4.10167 37.8905 4.99733 37.874L11.8134 37.7485C12.2287 37.7408 12.6084 37.5125 12.8098 37.1493L14.8779 33.4204L19.1464 25.6926ZM33.7817 33.0723L31.7136 36.8012C31.5121 37.1644 31.1324 37.3927 30.7171 37.4004L23.9021 37.5259C23.0062 37.5424 22.4284 36.5828 22.8621 35.7988L28.5478 25.5197C28.7491 25.1558 28.7409 24.7122 28.5264 24.356L23.9641 16.7785L19.4021 9.20145C19.1875 8.845 19.1795 8.40112 19.381 8.03715L22.6855 2.07069C23.1193 1.28742 24.2381 1.26682 24.7005 2.03359L28.5696 8.45019L33.4785 16.6033L38.0399 24.1682C38.2547 24.5245 38.2631 24.9683 38.0617 25.3324L33.7817 33.0723Z" fill="url(#paint0_linear_1105_4493)"/>
<path d="M61.6592 8.88V11.824H54.4272V30H51.0032V11.824H43.7712V8.88H61.6592ZM73.7277 8.88C75.9891 8.88 77.7811 9.44533 79.1037 10.576C80.4477 11.7067 81.1197 13.232 81.1197 15.152C81.1197 17.136 80.4477 18.672 79.1037 19.76C77.7811 20.8267 75.9891 21.36 73.7277 21.36L73.4077 21.552H68.5117V30H65.1197V8.88H73.7277ZM73.4717 18.704C74.8584 18.704 75.8824 18.4267 76.5437 17.872C77.2264 17.296 77.5677 16.4213 77.5677 15.248C77.5677 14.096 77.2264 13.232 76.5437 12.656C75.8824 12.08 74.8584 11.792 73.4717 11.792H68.5117V18.704H73.4717ZM75.4877 19.408L82.3677 30H78.4317L72.5437 20.752L75.4877 19.408ZM103.516 30H99.8997L97.8837 24.464H89.0197L87.0037 30H83.4837L91.4517 8.88H95.5477L103.516 30ZM89.9797 21.68H96.9237L93.4677 11.824L89.9797 21.68ZM114.077 8.88C117.384 8.88 119.954 9.79733 121.789 11.632C123.645 13.4453 124.573 16.048 124.573 19.44C124.573 22.832 123.645 25.4453 121.789 27.28C119.954 29.0933 117.384 30 114.077 30H106.621V8.88H114.077ZM114.077 27.088C116.317 27.088 118.024 26.4267 119.197 25.104C120.392 23.76 120.989 21.872 120.989 19.44C120.989 17.008 120.392 15.1307 119.197 13.808C118.024 12.464 116.317 11.792 114.077 11.792H110.045V27.088H114.077ZM129.012 30V8.88H144.308V11.824H132.436V17.904H141.716V20.784H132.436V27.056H144.756V30H129.012ZM164.62 30H160.588L155.372 21.872L150.188 30H146.252L153.58 19.28L146.828 8.88H150.86L155.692 16.56L160.588 8.88H164.332L157.484 19.152L164.62 30Z" fill="white"/>
<defs>
<linearGradient id="paint0_linear_1105_4493" x1="12.8687" y1="47.7151" x2="41.6449" y2="40.9415" gradientUnits="userSpaceOnUse">
<stop stop-color="#CD43FF"/>
<stop offset="0.201764" stop-color="#FD65A6"/>
<stop offset="0.694469" stop-color="#FC9651"/>
<stop offset="1" stop-color="#FFBD72"/>
</linearGradient>
</defs>
</svg>
